<svg width="40" height="40" viewBox="0 0 40 40" fill="none" xmlns="http://www.w3.org/2000/svg">
<path d="M36.5335 12.0832V12.2998L34.1002 21.2998C33.8126 22.3681 33.1789 23.3107 32.2982 23.9803C31.4176 24.6498 30.3398 25.0084 29.2335 24.9998H16.4835C15.2319 25.0049 14.0238 24.5403 13.098 23.6979C12.1723 22.8555 11.5962 21.6964 11.4835 20.4498L10.4002 8.18317C10.3626 7.76763 10.1706 7.38129 9.86203 7.10048C9.55344 6.81967 9.15075 6.66481 8.73353 6.6665H5.11686C4.67483 6.6665 4.25091 6.49091 3.93835 6.17835C3.62579 5.86579 3.4502 5.44186 3.4502 4.99984C3.4502 4.55781 3.62579 4.13389 3.93835 3.82133C4.25091 3.50877 4.67483 3.33317 5.11686 3.33317H8.73353C9.98521 3.32809 11.1933 3.79267 12.119 4.6351C13.0448 5.47754 13.6209 6.63656 13.7335 7.88317V8.33317H33.2169C33.692 8.32944 34.1624 8.42733 34.5966 8.62027C35.0308 8.81321 35.4187 9.09674 35.7344 9.45186C36.05 9.80697 36.2861 10.2255 36.4268 10.6793C36.5675 11.1331 36.6096 11.6118 36.5502 12.0832H36.5335Z" fill="#C0504D"/>
<path d="M15.1169 36.6667C17.418 36.6667 19.2835 34.8012 19.2835 32.5C19.2835 30.1989 17.418 28.3334 15.1169 28.3334C12.8157 28.3334 10.9502 30.1989 10.9502 32.5C10.9502 34.8012 12.8157 36.6667 15.1169 36.6667Z" fill="#C0504D"/>
<path d="M28.4499 36.6667C30.7511 36.6667 32.6165 34.8012 32.6165 32.5C32.6165 30.1989 30.7511 28.3334 28.4499 28.3334C26.1487 28.3334 24.2832 30.1989 24.2832 32.5C24.2832 34.8012 26.1487 36.6667 28.4499 36.6667Z" fill="#C0504D"/>
</svg>
