<svg width="16" height="16" viewBox="0 0 16 16" fill="none" xmlns="http://www.w3.org/2000/svg">
<path d="M5.55059 7.27725C5.54848 7.78341 5.55059 8.28954 5.55274 8.79568C6.40129 8.82333 7.25193 8.81055 8.10048 8.82333C7.7262 10.7054 5.1657 11.3158 3.81102 10.0866C2.41804 9.00836 2.48396 6.64353 3.93223 5.64187C4.94452 4.83374 6.38427 5.03363 7.39653 5.73331C7.79424 5.36541 8.16637 4.97197 8.52578 4.56365C7.68364 3.89163 6.65009 3.41313 5.55059 3.46418C3.25595 3.38761 1.1463 5.3973 1.10803 7.69197C0.961274 9.56766 2.19474 11.4072 3.93649 12.0708C5.67183 12.7385 7.89632 12.2834 9.00431 10.7246C9.73588 9.73993 9.89325 8.47245 9.80819 7.28151C8.38755 7.27087 6.96909 7.27299 5.55059 7.27725Z" fill="#6D747A"/>
<path d="M13.8487 7.27101C13.8445 6.84779 13.8423 6.42246 13.8402 5.99927C13.417 5.99927 12.9959 5.99927 12.5749 5.99927C12.5706 6.42248 12.5664 6.84567 12.5642 7.27101C12.1389 7.27312 11.7157 7.27527 11.2925 7.27953C11.2925 7.70272 11.2925 8.12379 11.2925 8.54489C11.7157 8.54915 12.141 8.55341 12.5642 8.55765C12.5685 8.98086 12.5685 9.40405 12.5727 9.82727C12.996 9.82727 13.417 9.82727 13.8402 9.82727C13.8423 9.40405 13.8445 8.98086 13.8487 8.55553C14.274 8.55127 14.6973 8.54915 15.1205 8.54489C15.1205 8.12379 15.1205 7.7006 15.1205 7.27953C14.6973 7.27527 14.2719 7.27527 13.8487 7.27101Z" fill="#6D747A"/>
</svg>
