<svg width="531" height="280" viewBox="0 0 531 280" fill="none" xmlns="http://www.w3.org/2000/svg">
<g clip-path="url(#clip0_1_4298)">
<path d="M138.885 252.164L143.652 271.494L118.107 277.881L129.165 265.197L125.331 254.572L138.885 252.164Z" fill="#FF957D"/>
<path d="M144.236 271.219L117.017 279.965C117.017 279.965 116.544 266.932 129.097 264.6L132.636 268.393L141.945 261.979L144.236 271.219Z" fill="#FFC56B"/>
<path d="M125.324 265.862L129.001 270.19" stroke="#0D344F" stroke-width="0.86" stroke-miterlimit="10"/>
<path d="M123.582 266.967L127.259 271.289" stroke="#0D344F" stroke-width="0.86" stroke-miterlimit="10"/>
<path d="M123.822 257.939L140.738 252.465L108.683 120.851L71.998 146.842L123.822 257.939Z" fill="#1E2046"/>
<path d="M120.062 249.899L138.412 242.862" stroke="#FFF8ED" stroke-width="1.5" stroke-miterlimit="10"/>
<path d="M135.703 244.028C136.448 247.133 137.201 250.243 137.96 253.357C138.076 253.844 138.817 253.638 138.7 253.151C137.95 250.041 137.198 246.932 136.444 243.822C136.327 243.335 135.586 243.541 135.703 244.028Z" fill="#FFF8ED"/>
<path d="M132.478 245.386C133.329 248.468 134.177 251.553 135.023 254.64C135.051 254.738 135.116 254.821 135.205 254.871C135.293 254.922 135.398 254.934 135.497 254.907C135.595 254.88 135.678 254.815 135.728 254.726C135.779 254.637 135.791 254.532 135.764 254.434C134.923 251.347 134.077 248.263 133.226 245.18C133.189 245.093 133.122 245.022 133.036 244.98C132.951 244.938 132.853 244.929 132.762 244.955C132.67 244.98 132.591 245.038 132.539 245.117C132.487 245.196 132.465 245.292 132.478 245.386Z" fill="#FFF8ED"/>
<path d="M128.843 246.621L132.225 256.114C132.389 256.581 133.137 256.382 132.972 255.909C131.838 252.744 130.711 249.58 129.59 246.415C129.419 245.949 128.671 246.148 128.843 246.621Z" fill="#FFF8ED"/>
<path d="M125.125 248.357L128.027 257.274C128.184 257.747 128.932 257.549 128.774 257.068L125.873 248.151C125.715 247.678 124.974 247.883 125.125 248.357Z" fill="#FFF8ED"/>
<path d="M121.195 249.667C122.038 251.821 122.937 253.954 123.843 256.087C124.069 256.615 124.295 257.15 124.529 257.679C124.666 257.994 124.878 258.365 125.29 258.296C126.058 258.173 125.571 256.89 124.913 257.439C124.529 257.761 125.077 258.303 125.461 257.987L125.496 257.953L125.118 258.056C125.331 257.836 125.379 257.631 125.256 257.439L125.132 257.137C125.064 256.986 125.002 256.835 124.933 256.677L124.48 255.621C124.192 254.935 123.904 254.249 123.623 253.563C123.047 252.191 122.487 250.819 121.942 249.447C121.764 248.994 121.016 249.193 121.195 249.653V249.667Z" fill="#FFF8ED"/>
<path d="M128.864 246.313L88.7969 136.08" stroke="#FFF8ED" stroke-width="1.5" stroke-miterlimit="10"/>
<path d="M34.1125 259.167L26.3338 276.885L0.00683594 277.173L13.7054 267.398L20.366 258.364L34.1125 259.167Z" fill="#FF957D"/>
<path d="M27.8292 277.476L30.1683 268.675L16.5933 273.477L12.4775 268.312C12.4775 268.312 2.50374 263.681 0 277.229L27.8292 277.476Z" fill="#FFC56B"/>
<path d="M10.7901 271.638L8.6499 267.674" stroke="#0D344F" stroke-width="0.86" stroke-miterlimit="10"/>
<path d="M8.93803 271.748L6.79785 267.783" stroke="#0D344F" stroke-width="0.86" stroke-miterlimit="10"/>
<path d="M17.375 258.605L73.0814 107.867V103.065L101.446 102.592C101.384 104.691 118.176 122.663 104.615 138.035C87.1641 161.968 35.8889 259.682 35.8889 259.682L17.375 258.605Z" fill="#0096C8"/>
<path d="M91.9725 115.131C91.9725 115.131 95.2377 132.822 89.7912 140.175C84.3447 147.529 30.4424 250.161 30.4424 250.161" stroke="#FFF8ED" stroke-width="1.5" stroke-miterlimit="10"/>
<path d="M20.3662 249.344L42.1521 250.161" stroke="#FFF8ED" stroke-width="1.5" stroke-miterlimit="10"/>
<path d="M39.429 250.161L34.7988 259.689" stroke="#FFF8ED" stroke-width="1.5" stroke-miterlimit="10"/>
<path d="M34.2567 250.161L29.6265 259.689" stroke="#FFF8ED" stroke-width="1.5" stroke-miterlimit="10"/>
<path d="M29.0843 250.161L24.4541 259.689" stroke="#FFF8ED" stroke-width="1.5" stroke-miterlimit="10"/>
<path d="M23.9056 250.161L19.2822 259.689" stroke="#FFF8ED" stroke-width="1.5" stroke-miterlimit="10"/>
<path d="M46.5833 55.0074C46.5833 55.0074 53.4429 103.463 64.9944 96.9467C72.3341 92.8309 74.0215 83.7077 74.7075 82.3838C74.7075 80.1545 74.7075 78.6042 74.7829 78.2681C74.7829 78.2681 78.7752 65.5436 82.5274 60.8586C82.9389 60.351 86.7117 52.1332 86.5471 52.0921C75.1671 49.1973 67.9234 57.614 66.5583 75.7026C66.5172 76.2651 56.3719 50.3978 56.3719 50.3978C56.6669 49.2316 59.0403 40.9316 57.1402 41.9399C55.2401 42.9483 55.5213 44.8552 54.9383 45.2874C54.3552 45.7195 53.3743 32.4738 51.9269 32.8785C49.8691 33.4547 52.1807 41.7959 50.8706 41.0413C49.5604 40.2868 49.0322 32.6453 47.8455 33.0088C45.9454 33.585 48.9705 41.6175 48.0993 41.6107C47.2281 41.6038 46.5559 34.2984 45.2114 34.6002C43.3113 35.0324 46.3364 43.9361 45.3212 43.353C44.306 42.7699 43.4485 37.6527 42.5774 38.0917C41.7062 38.5307 46.5833 55.0074 46.5833 55.0074Z" fill="#FF937E"/>
<path d="M53.278 34.633L54.7459 37.7884C55.471 39.3394 56.7819 40.5391 58.3908 41.1243C59.9998 41.7095 61.7752 41.6323 63.3272 40.9095C64.8745 40.1809 66.0694 38.8679 66.6494 37.259C67.2295 35.65 67.1473 33.8766 66.4209 32.3282L64.9529 29.1797C64.5946 28.4111 64.0883 27.7207 63.4631 27.1479C62.8378 26.575 62.1058 26.131 61.3089 25.8412C60.512 25.5513 59.6658 25.4213 58.8186 25.4586C57.9715 25.496 57.14 25.6998 56.3716 26.0586C54.826 26.7873 53.6325 28.0991 53.0525 29.7064C52.4726 31.3137 52.5537 33.0854 53.278 34.633Z" fill="#FF616B"/>
<path d="M29.4617 45.5957L30.9296 48.7442C31.288 49.5128 31.7942 50.2032 32.4194 50.776C33.0447 51.3489 33.7767 51.7929 34.5736 52.0827C35.3705 52.3726 36.2167 52.5026 37.0639 52.4653C37.9111 52.428 38.7426 52.2241 39.5109 51.8653C40.2792 51.5077 40.9695 51.0021 41.5423 50.3775C42.1151 49.7528 42.5591 49.0214 42.849 48.2251C43.1388 47.4287 43.2689 46.583 43.2316 45.7364C43.1944 44.8897 42.9907 44.0587 42.632 43.2909L41.1641 40.1355C40.439 38.5845 39.1281 37.3848 37.5191 36.7996C35.9102 36.2144 34.1348 36.2916 32.5828 37.0144C31.8142 37.3727 31.1238 37.8789 30.551 38.5042C29.9781 39.1294 29.5341 39.8614 29.2442 40.6583C28.9544 41.4553 28.8244 42.3015 28.8617 43.1486C28.899 43.9958 29.1029 44.8273 29.4617 45.5957Z" fill="#FF616B"/>
<path d="M38.5427 40.8741L41.375 46.948L58.9252 38.7642L56.0929 32.6903L38.5427 40.8741Z" fill="#FF616B"/>
<path d="M71.168 94.7513L73.1572 103.353L101.295 103.024L103.614 92.5974L71.168 94.7513Z" fill="#FF7859"/>
<path d="M68.9795 36.0189L71.5312 28.3705C70.5435 26.6968 72.9032 20.29 74.0418 18.726C77.2453 14.4594 78.4594 10.0144 83.6932 8.93744C89.7159 7.70272 98.0983 9.49307 100.437 15.3168C101.398 17.6697 112.304 27.52 108.484 33.8925" fill="#3F468E"/>
<path d="M92.021 26.1492C92.0435 26.2058 92.0772 26.2573 92.12 26.3006C92.1628 26.3438 92.2139 26.378 92.2703 26.4011C92.3267 26.4241 92.3871 26.4356 92.448 26.4347C92.5088 26.4339 92.5689 26.4208 92.6246 26.3962C93.6056 25.9709 95.7938 24.7773 97.2274 27.2193C98.661 29.6613 96.8227 32.2337 95.3616 32.9608C94.9432 33.1666 93.9897 33.6879 93.8251 34.1338C93.3517 35.5057 96.9187 44.9238 97.3783 47.8529C98.3867 54.4037 100.561 51.4953 100.561 51.4953C100.561 51.4953 80.888 64.3295 80.9908 56.0432C81.1006 46.7691 81.6013 40.0741 81.4916 40.0604C77.3416 39.4568 74.2685 40.8218 72.9103 29.5859C71.655 19.1731 78.7135 16.9094 80.5724 16.4704C82.1364 16.1343 87.3222 14.2754 92.021 26.1492Z" fill="#FF937E"/>
<path d="M96.4314 28.453C96.4314 28.453 93.4681 25.8464 93.3857 31.0803L96.4314 28.453Z" fill="#D95A4E"/>
<path d="M82.1022 29.805C81.6394 29.9938 81.2431 30.3157 80.9634 30.7299C80.6837 31.1442 80.5333 31.6321 80.5313 32.1319C80.5292 32.6318 80.6756 33.1209 80.9518 33.5375C81.228 33.954 81.6217 34.2792 82.0829 34.4718C82.5442 34.6644 83.0522 34.7157 83.5426 34.6193C84.0331 34.5228 84.4838 34.283 84.8378 33.9301C85.1917 33.5772 85.433 33.1272 85.5309 32.637C85.6289 32.1469 85.5791 31.6387 85.3879 31.1769C85.1313 30.5616 84.6423 30.0724 84.0271 29.8155C83.4119 29.5587 82.7202 29.5549 82.1022 29.805Z" fill="#FF7859"/>
<path d="M74.1584 34.8803C74.5855 34.5959 74.9157 34.1881 75.1051 33.7113C75.2945 33.2344 75.3341 32.7112 75.2186 32.2113C75.1031 31.7114 74.8381 31.2585 74.4587 30.913C74.0793 30.5676 73.6037 30.3459 73.0952 30.2776C73.0952 30.2776 73.2118 33.2684 74.1584 34.8803Z" fill="#FF7859"/>
<path d="M74.9951 33.0355L79.2892 32.7817C79.2892 32.7817 78.3357 34.9082 77.0804 34.7641C75.8251 34.6201 74.9951 33.0355 74.9951 33.0355Z" fill="white"/>
<path d="M76.4155 30.5247L77.1015 32.3699L76.0931 32.5139C76.0508 32.5201 76.0076 32.5152 75.9678 32.4996C75.9279 32.4841 75.8928 32.4585 75.8658 32.4253C75.8389 32.3921 75.821 32.3525 75.8139 32.3103C75.8069 32.2681 75.8109 32.2248 75.8256 32.1847L76.4155 30.5247Z" fill="#D95A4E"/>
<path d="M80.1399 27.1024C80.6338 27.3974 79.8107 25.9774 79.159 25.854C78.8726 25.7801 78.5687 25.8213 78.3123 25.9688C78.0559 26.1162 77.8674 26.3581 77.7871 26.6428C78.601 26.5159 79.4336 26.6785 80.1399 27.1024Z" fill="black"/>
<path d="M72.8209 27.3909C72.375 27.7476 72.9924 26.2316 73.6166 26.019C73.8904 25.9021 74.1994 25.8986 74.4759 26.0092C74.7523 26.1197 74.9737 26.3354 75.0914 26.6089C74.2661 26.5941 73.462 26.871 72.8209 27.3909Z" fill="black"/>
<path d="M80.9492 40.0326C82.7317 39.8581 84.4739 39.3947 86.1076 38.6606C85.3874 42.3031 82.6024 42.5226 80.9492 40.0326Z" fill="#1E2046"/>
<path d="M81.6559 51.4594C80.3251 51.0204 78.185 52.2345 78.4937 51.9533C74.2407 58.559 69.1372 68.3133 68.7394 74.5898C68.2592 82.2793 68.6845 93.2752 68.6845 93.2752C68.8354 94.2355 100.012 94.798 107.393 94.3796C111.9 81.8266 112.085 70.7484 109.78 60.8981C109.78 60.8981 110.068 59.6017 106.193 55.2733C105.362 54.3472 98.0502 46.884 97.6112 46.3147C97.6112 46.301 74.0487 63.7037 81.6559 51.4594Z" fill="#3F468E"/>
<path d="M76.7103 64.9864H77.0052C77.2908 64.9864 77.5648 64.8729 77.7667 64.671C77.9687 64.469 78.0822 64.1951 78.0822 63.9095C78.0822 63.6238 77.9687 63.3499 77.7667 63.1479C77.5648 62.946 77.2908 62.8325 77.0052 62.8325H76.7103C76.4246 62.8325 76.1507 62.946 75.9487 63.1479C75.7468 63.3499 75.6333 63.6238 75.6333 63.9095C75.6333 64.1951 75.7468 64.469 75.9487 64.671C76.1507 64.8729 76.4246 64.9864 76.7103 64.9864H77.0052C77.2908 64.9864 77.5648 64.8729 77.7667 64.671C77.9687 64.469 78.0822 64.1951 78.0822 63.9095C78.0822 63.6238 77.9687 63.3499 77.7667 63.1479C77.5648 62.946 77.2908 62.8325 77.0052 62.8325H76.7103C76.4246 62.8325 76.1507 62.946 75.9487 63.1479C75.7468 63.3499 75.6333 63.6238 75.6333 63.9095C75.6333 64.1951 75.7468 64.469 75.9487 64.671C76.1507 64.8729 76.4246 64.9864 76.7103 64.9864Z" fill="#FFF8ED"/>
<path d="M84.8255 75.9696C85.1111 75.9696 85.385 75.8561 85.587 75.6541C85.789 75.4522 85.9024 75.1782 85.9024 74.8926C85.9024 74.607 85.789 74.3331 85.587 74.1311C85.385 73.9291 85.1111 73.8157 84.8255 73.8157C84.5399 73.8157 84.2659 73.9291 84.064 74.1311C83.862 74.3331 83.7485 74.607 83.7485 74.8926C83.7485 75.1782 83.862 75.4522 84.064 75.6541C84.2659 75.8561 84.5399 75.9696 84.8255 75.9696Z" fill="#FFF8ED"/>
<path d="M72.8824 78.37C73.1541 78.3483 73.4076 78.2251 73.5925 78.0249C73.7774 77.8247 73.8801 77.5621 73.8801 77.2896C73.8801 77.0171 73.7774 76.7546 73.5925 76.5543C73.4076 76.3541 73.1541 76.2309 72.8824 76.2092C72.6108 76.2309 72.3572 76.3541 72.1723 76.5543C71.9874 76.7546 71.8848 77.0171 71.8848 77.2896C71.8848 77.5621 71.9874 77.8247 72.1723 78.0249C72.3572 78.2251 72.6108 78.3483 72.8824 78.37Z" fill="#FFF8ED"/>
<path d="M87.6858 60.2127C87.9715 60.2127 88.2454 60.0993 88.4474 59.8973C88.6493 59.6953 88.7628 59.4214 88.7628 59.1358C88.7628 58.8502 88.6493 58.5762 88.4474 58.3743C88.2454 58.1723 87.9715 58.0588 87.6858 58.0588C87.4002 58.0588 87.1263 58.1723 86.9243 58.3743C86.7224 58.5762 86.6089 58.8502 86.6089 59.1358C86.6089 59.4214 86.7224 59.6953 86.9243 59.8973C87.1263 60.0993 87.4002 60.2127 87.6858 60.2127Z" fill="#FFF8ED"/>
<path d="M77.5329 30.3538C77.6084 30.93 77.8485 31.3758 78.0748 31.3416C78.3012 31.3073 78.4247 30.8202 78.3492 30.244C78.2737 29.6678 78.0337 29.222 77.8073 29.2562C77.5809 29.2905 77.4575 29.7501 77.5329 30.3538Z" fill="black"/>
<path d="M74.4258 30.3531C74.5013 30.9293 74.7414 31.3752 74.9677 31.3478C75.1941 31.3203 75.3176 30.8264 75.2421 30.2502C75.1667 29.674 74.9197 29.2282 74.7002 29.2556C74.4807 29.283 74.3504 29.7632 74.4258 30.3531Z" fill="black"/>
<path d="M89.785 27.6576C85.3331 25.3391 83.8446 18.5687 83.8446 18.5687L72.6704 23.8574C72.6704 23.8574 69.6522 14.3981 75.1673 13.3966C75.3776 12.1748 75.9706 11.0513 76.8607 10.1883C77.7509 9.32532 78.8921 8.76736 80.1199 8.59493C81.4275 8.34833 82.7754 8.42032 84.0494 8.80478C85.3234 9.18925 86.486 9.87489 87.439 10.8037C87.439 10.8037 94.0379 16.2913 92.6797 24.7286C92.6797 24.8383 92.6454 24.9481 92.6248 25.0578C92.6248 25.0921 93.2902 29.4823 89.785 27.6576Z" fill="#3F468E"/>
<path d="M54.3621 81.9172L57.8331 81.9721C58.6808 81.9866 59.523 81.834 60.3117 81.523C61.1004 81.212 61.8201 80.7486 62.4297 80.1594C63.0393 79.5702 63.5269 78.8666 63.8646 78.089C64.2022 77.3113 64.3834 76.4747 64.3977 75.627C64.4122 74.7793 64.2596 73.9371 63.9486 73.1483C63.6376 72.3596 63.1742 71.6399 62.585 71.0303C61.9957 70.4207 61.2922 69.9332 60.5145 69.5955C59.7369 69.2579 58.9003 69.0767 58.0526 69.0624L54.5748 69.0075C53.7274 68.993 52.8855 69.1457 52.0972 69.4568C51.3089 69.7679 50.5896 70.2313 49.9806 70.8206C49.3715 71.41 48.8846 72.1135 48.5477 72.8912C48.2108 73.6688 48.0305 74.5052 48.0171 75.3526C48.0025 76.2003 48.1551 77.0426 48.4662 77.8313C48.7772 78.62 49.2405 79.3397 49.8298 79.9493C50.419 80.5589 51.1225 81.0465 51.9002 81.3841C52.6779 81.7218 53.5144 81.9029 54.3621 81.9172Z" fill="#FF616B"/>
<path d="M53.7855 108.127L57.2633 108.182C58.9741 108.21 60.6258 107.557 61.8555 106.367C63.0852 105.177 63.7921 103.548 63.821 101.837C63.8355 100.989 63.6829 100.147 63.3719 99.3583C63.0609 98.5696 62.5975 97.8499 62.0083 97.2403C61.4191 96.6307 60.7156 96.1431 59.9379 95.8055C59.1602 95.4678 58.3236 95.2867 57.4759 95.2724L54.005 95.2175C53.1573 95.203 52.315 95.3556 51.5263 95.6666C50.7376 95.9776 50.0179 96.441 49.4083 97.0302C48.7987 97.6194 48.3112 98.323 47.9735 99.1006C47.6358 99.8783 47.4547 100.715 47.4404 101.563C47.4259 102.41 47.5785 103.253 47.8895 104.041C48.2005 104.83 48.6639 105.55 49.2531 106.159C49.8423 106.769 50.5458 107.256 51.3235 107.594C52.1012 107.932 52.9378 108.113 53.7855 108.127Z" fill="#FF616B"/>
<path d="M53.8656 97.5605L60.5674 97.6946L60.9547 78.3301L54.2529 78.196L53.8656 97.5605Z" fill="#FF616B"/>
<path d="M67.0107 95.3686C67.0107 95.3686 87.3424 106.577 100.547 101.762C103.661 100.623 105.479 98.6406 106.035 95.3686C107.791 84.9009 110.836 64.5006 109.965 63.65C108.223 49.9309 97.3642 53.7449 96.0815 57.3461C91.808 69.3229 93.1593 82.1297 92.3979 86.3277L65.6457 85.5526C64.7059 84.9764 58.1001 80.6549 58.4637 82.5893C58.8273 84.5236 60.5627 84.7912 60.7891 85.4222C61.0155 86.0533 52.4204 84.4688 52.3861 85.8407C52.3313 87.7819 56.2549 87.2126 56.0217 87.5418C55.7885 87.8711 52.2833 86.1699 52.2695 87.3155C52.2695 89.1333 56.0766 89.4762 56.0766 89.8192C56.0766 89.9701 52.7703 87.7614 52.6468 89.0235C52.5096 90.8001 56.7625 91.7673 55.8845 91.1774C55.7199 91.0677 52.249 89.1195 52.9349 90.8962C53.2573 91.733 67.0107 95.3686 67.0107 95.3686Z" fill="#FF937E"/>
<path d="M55.9463 90.8679L53.1064 90.1545" stroke="#FF7859" stroke-width="0.5" stroke-miterlimit="10" stroke-linecap="round"/>
<path d="M56.0283 89.6204L53.1885 88.907" stroke="#FF7859" stroke-width="0.5" stroke-miterlimit="10" stroke-linecap="round"/>
<path d="M55.919 87.6585L53.0791 86.9451" stroke="#FF7859" stroke-width="0.5" stroke-miterlimit="10" stroke-linecap="round"/>
<path d="M523.771 254.853L526.618 263.681C526.618 263.681 524.045 274.896 522.186 271.123C520.936 268.765 518.875 266.937 516.383 265.979L510.854 255.285L523.771 254.853Z" fill="#753231"/>
<path d="M511.108 255.773L522.344 255.649L521.24 267.777L515.67 265.218L511.108 255.773Z" fill="#A94846"/>
<path d="M515.443 265.217L502.129 273.764C501.532 274.148 501.848 274.957 502.596 274.964C508.714 274.964 525.232 274.909 529.526 274.882C529.638 274.894 529.751 274.879 529.856 274.837C529.96 274.795 530.053 274.728 530.125 274.642C530.198 274.556 530.248 274.453 530.272 274.343C530.295 274.233 530.291 274.119 530.26 274.011C529.362 271.658 526.906 265.093 526.625 263.303C526.577 262.981 522.818 268.372 521.02 267.775C519.47 267.268 515.793 264.901 515.443 265.217Z" fill="#5BC29C"/>
<path d="M514.853 266.007L517.09 267.475C517.327 267.63 517.525 267.839 517.665 268.086C517.805 268.332 517.884 268.609 517.895 268.892C517.907 269.175 517.85 269.457 517.73 269.714C517.61 269.972 517.431 270.196 517.206 270.369V270.369C516.914 270.594 516.559 270.723 516.19 270.738C515.822 270.752 515.458 270.653 515.148 270.452L511.883 268.305" stroke="white" stroke-width="1.6" stroke-miterlimit="10" stroke-linecap="round"/>
<path d="M528.895 279.623H503.302C502.844 279.623 502.404 279.441 502.08 279.117C501.755 278.793 501.573 278.353 501.573 277.894V275.631C501.573 275.403 501.664 275.185 501.824 275.024C501.985 274.864 502.203 274.773 502.431 274.773H529.766C529.993 274.773 530.212 274.864 530.372 275.024C530.533 275.185 530.624 275.403 530.624 275.631V277.894C530.624 278.353 530.441 278.793 530.117 279.117C529.793 279.441 529.353 279.623 528.895 279.623Z" fill="#5BC29C"/>
<path d="M473.696 254.853L473.977 263.681C473.977 263.681 471.364 274.896 469.505 271.123C468.255 268.765 466.193 266.937 463.702 265.979L460.848 254.873L473.696 254.853Z" fill="#753231"/>
<path d="M461.232 255.772H469.183L468.332 267.777L462.762 265.218L461.232 255.772Z" fill="#A94846"/>
<path d="M462.762 265.217L449.448 273.764C448.851 274.148 449.167 274.957 449.907 274.964C456.026 274.964 472.51 274.909 476.845 274.882C476.956 274.893 477.069 274.877 477.172 274.834C477.276 274.792 477.367 274.725 477.439 274.639C477.511 274.553 477.56 274.451 477.584 274.341C477.607 274.232 477.603 274.118 477.572 274.011C476.673 271.658 474.218 265.093 473.943 263.303C473.895 262.981 470.136 268.372 468.332 267.775C466.782 267.268 463.112 264.901 462.762 265.217Z" fill="#5BC29C"/>
<path d="M476.495 279.623H450.902C450.444 279.623 450.004 279.441 449.68 279.117C449.356 278.793 449.173 278.353 449.173 277.894V275.631C449.173 275.403 449.264 275.185 449.425 275.024C449.585 274.864 449.803 274.773 450.031 274.773H477.366C477.594 274.773 477.812 274.864 477.973 275.024C478.133 275.185 478.224 275.403 478.224 275.631V277.894C478.224 278.353 478.042 278.793 477.717 279.117C477.393 279.441 476.953 279.623 476.495 279.623Z" fill="#5BC29C"/>
<path d="M462.172 266.007L464.409 267.475C464.646 267.63 464.842 267.84 464.982 268.087C465.122 268.334 465.2 268.61 465.211 268.894C465.221 269.177 465.164 269.459 465.044 269.716C464.923 269.972 464.743 270.197 464.518 270.369C464.226 270.595 463.871 270.725 463.503 270.739C463.134 270.754 462.77 270.654 462.46 270.452L459.195 268.305" stroke="white" stroke-width="1.6" stroke-miterlimit="10" stroke-linecap="round"/>
<path d="M481.071 134.963C481.071 134.963 470.191 107.957 464.045 97.7907C461.301 93.2977 449.153 85.5327 449.153 93.675C449.153 93.675 444.008 141.171 444.351 161.468C444.674 181.662 456.184 254.168 456.184 254.168C456.184 254.168 471.323 255.08 473.402 252.309L481.071 134.963Z" fill="#FF937E"/>
<g style="mix-blend-mode:multiply" opacity="0.5">
<path d="M481.07 134.962C481.07 134.962 470.191 107.956 464.045 97.79C461.301 93.297 449.448 82.8774 449.448 90.9991C449.448 90.9991 444.008 141.149 444.331 161.447C444.653 181.641 456.163 254.147 456.163 254.147C456.163 254.147 471.302 255.059 473.381 252.288L481.07 134.962Z" fill="#FF937E"/>
</g>
<path d="M470.266 113.602C470.266 113.602 461.438 156.035 462.035 164.575C462.632 173.115 467.166 252.857 467.166 252.857" stroke="white" stroke-width="0.83" stroke-miterlimit="10"/>
<path d="M454.25 255.703H475.089L475.137 248.583H454.304L454.25 255.703Z" fill="#F4B1A8"/>
<path d="M447.383 90.7181C449.667 81.1148 471.899 82.9257 479.259 89.5383C484.342 94.0999 497.32 114.521 500.146 125.578C503.425 138.399 505.065 152.44 507.335 166.125C507.836 169.15 510.113 180.825 511.451 186.868C515.869 206.761 522.227 228.41 523.798 251.732C519.758 252.706 509.078 255.402 507.85 253.152C480.226 202.467 470.863 160.178 464.971 146.527C464.295 144.96 463.762 143.334 463.379 141.671L447.383 90.7181Z" fill="#FF937E"/>
<path d="M469.498 90.8066C469.498 90.8066 485.913 112.757 490.18 130.4C494.446 148.043 517.227 253.872 517.227 253.872" stroke="white" stroke-width="0.83" stroke-miterlimit="10"/>
<path d="M461.987 97.6523C461.987 97.6523 465.664 116.557 482.477 110.953" stroke="white" stroke-width="0.83" stroke-miterlimit="10"/>
<path d="M506.937 255.703H527.77L524.971 248.583H504.139L506.937 255.703Z" fill="#F4B1A8"/>
<path d="M415.877 49.1497C415.877 49.1497 431.133 93.1126 441.601 87.2065C448.254 83.4544 449.791 75.2023 450.408 74.0019C450.408 71.9783 450.408 70.5721 450.477 70.2566C450.477 70.2566 454.092 58.7188 457.494 54.4796C458.847 51.8943 460.065 49.2406 461.144 46.5294C454.209 42.1942 448.584 53.4507 438.452 68.528C438.164 68.9533 424.733 44.9586 424.733 44.9586C425.001 43.9022 427.148 36.3773 425.419 37.2964C423.69 38.2156 423.951 39.9305 423.423 40.3284C422.895 40.7262 422.003 28.7083 420.679 29.0787C418.827 29.6 420.905 37.1455 419.719 36.4802C418.532 35.8148 418.059 28.8661 416.975 29.1953C415.253 29.7166 417.997 37.0015 417.208 36.9946C416.419 36.9878 415.836 30.3614 414.588 30.6358C412.866 31.0268 415.61 39.1074 414.691 38.5723C413.772 38.0373 412.99 33.4071 412.194 33.7706C411.398 34.1342 415.877 49.1497 415.877 49.1497Z" fill="#A94846"/>
<path d="M451.944 66.0234C453.316 62.2849 455.443 57.106 457.494 54.5062C458.847 51.9208 460.065 49.2672 461.143 46.556C456.417 43.5995 452.294 47.9279 446.944 55.6997C448.542 59.1638 450.23 62.5936 451.944 66.0234Z" fill="#8064A2"/>
<path d="M451.499 50.8914L453.557 23.5698C452.631 21.9921 453.166 14.9336 454.243 13.4656C457.261 9.44595 456.404 6.76387 461.322 5.75552C466.995 4.59625 476.77 6.29056 479.699 13.3422C482.628 20.3938 482.628 29.0574 487.93 53.2853" fill="#031F46"/>
<path d="M471.179 20.4414C471.2 20.4949 471.231 20.5437 471.271 20.5846C471.312 20.6256 471.36 20.658 471.413 20.6798C471.467 20.7016 471.524 20.7124 471.581 20.7115C471.639 20.7106 471.695 20.698 471.748 20.6746C472.674 20.2699 474.732 19.1518 476.076 21.4497C477.421 23.7477 475.699 26.1622 474.327 26.8482C473.929 27.0403 473.024 27.5341 472.88 27.9457C472.427 29.2353 475.034 41.8637 475.466 44.6556C476.412 50.8292 460.375 57.6339 460.375 57.6339C460.375 57.6339 456.314 54.3756 459.778 47.3925C462.92 41.0543 461.15 33.6734 461.074 33.6186C459.456 32.9738 454.455 34.3045 453.179 23.6997C451.999 13.9111 458.667 11.7846 460.388 11.3525C461.884 11.0232 466.761 9.27403 471.179 20.4414Z" fill="#A94846"/>
<path d="M475.329 22.6087C475.329 22.6087 472.544 20.1598 472.468 25.0781L475.329 22.6087Z" fill="#753231"/>
<path d="M461.85 23.8845C461.415 24.061 461.042 24.3625 460.779 24.7507C460.515 25.139 460.373 25.5967 460.369 26.0659C460.366 26.5351 460.501 26.9948 460.759 27.3869C461.017 27.7791 461.385 28.086 461.817 28.269C462.249 28.452 462.726 28.5028 463.187 28.415C463.648 28.3272 464.072 28.1047 464.407 27.7757C464.741 27.4467 464.971 27.026 465.066 26.5666C465.162 26.1072 465.119 25.6297 464.943 25.1947C464.827 24.9047 464.655 24.6407 464.436 24.4177C464.217 24.1947 463.957 24.0172 463.669 23.8954C463.382 23.7736 463.073 23.7099 462.76 23.7081C462.448 23.7062 462.139 23.7661 461.85 23.8845Z" fill="#BD504E"/>
<path d="M454.558 29.1194C454.988 28.7929 455.292 28.3272 455.417 27.8018C455.542 27.2764 455.481 26.7238 455.244 26.2384C455.086 25.8491 454.827 25.5087 454.495 25.252C454.162 24.9953 453.767 24.8315 453.351 24.7773C453.351 24.7773 453.666 27.6103 454.558 29.1194Z" fill="#BD504E"/>
<path d="M455.176 26.9237L459.216 26.6836C459.216 26.6836 458.317 28.6797 457.158 28.5425C455.999 28.4053 455.176 26.9237 455.176 26.9237Z" fill="white"/>
<path d="M456.499 24.5566L457.117 26.2921L456.17 26.4293C456.13 26.4359 456.089 26.4319 456.052 26.4175C456.014 26.4031 455.981 26.3789 455.956 26.3474C455.931 26.316 455.914 26.2784 455.909 26.2385C455.903 26.1986 455.908 26.1579 455.923 26.1206L456.499 24.5566Z" fill="#753231"/>
<path d="M459.977 22.0054C460.436 22.2798 459.668 20.949 459.051 20.8324C458.781 20.7608 458.493 20.7983 458.251 20.937C458.008 21.0756 457.83 21.3042 457.754 21.5733C458.523 21.4513 459.31 21.6043 459.977 22.0054Z" fill="black"/>
<path d="M453.117 22.2737C452.692 22.6098 453.275 21.183 453.865 20.9841C454.121 20.8821 454.407 20.8829 454.663 20.9865C454.918 21.09 455.124 21.2882 455.237 21.5397C454.467 21.5305 453.717 21.79 453.117 22.2737Z" fill="black"/>
<path d="M460.766 33.4956C462.443 33.3403 464.084 32.9116 465.623 32.2266C464.944 35.6358 462.323 35.8415 460.766 33.4956Z" fill="#031F46"/>
<path d="M460.395 46.1299C460.286 45.7938 458.379 45.7664 458.653 45.5126C454.798 51.501 449.605 62.1127 449.249 67.7992C448.81 74.7617 444.982 93.1384 444.982 93.1384C445.112 94.0096 474.005 91.4167 480.693 91.0325C484.774 79.6525 488.54 64.2803 486.448 55.3629C486.448 55.3629 486.715 54.1968 483.203 50.2662C482.449 49.4294 475.816 42.6659 475.418 42.1445C475.418 42.1514 454.448 61.3307 460.395 46.1299Z" fill="#8064A2"/>
<g style="mix-blend-mode:multiply" opacity="0.5">
<g style="mix-blend-mode:multiply" opacity="0.5">
<path d="M486.133 54.2725C484.596 57.4896 482.147 60.6038 480.446 62.9635C476.837 67.9332 472.757 72.5435 468.264 76.7306C462.09 82.5338 455.484 87.8088 449.002 93.2553C457.233 92.9329 475.542 91.3209 480.693 91.0259C484.775 79.6459 488.54 64.2737 486.448 55.3563C486.448 55.37 486.517 55.0476 486.133 54.2725Z" fill="#5BC29C"/>
</g>
</g>
<path d="M457.556 24.3642C457.624 24.913 457.851 25.3314 458.063 25.304C458.276 25.2765 458.392 24.8101 458.324 24.2682C458.255 23.7263 458.022 23.3078 457.809 23.3353C457.597 23.3627 457.487 23.8223 457.556 24.3642Z" fill="black"/>
<path d="M454.633 24.3847C454.702 24.9266 454.928 25.3451 455.141 25.3176C455.354 25.2902 455.47 24.8237 455.402 24.2818C455.333 23.7399 455.1 23.3215 454.887 23.3489C454.675 23.3764 454.558 23.8428 454.633 24.3847Z" fill="black"/>
<path d="M469.08 23.0899L454.297 15.4072L452.98 19.5229C452.98 19.5229 449.173 13.4934 454.352 12.5536C454.352 12.5536 456.856 6.70242 461.082 5.89985C465.307 5.09729 476.392 11.3875 476.392 11.3875C476.392 11.3875 473.065 12.4096 471.796 20.3049C471.796 20.4078 471.796 20.5107 471.741 20.6136C471.748 20.6753 472.379 24.8048 469.08 23.0899Z" fill="#031F46"/>
<path d="M461.164 43.4823C459.463 46.2261 458.873 49.5805 456.801 52.091C454.766 54.4368 451.976 55.9991 448.913 56.5086C442.142 57.7913 435.557 54.3616 430.618 49.9852C427.668 47.2444 424.917 44.2965 422.387 41.1638C422.161 40.8894 421.77 41.2873 421.996 41.5548C426.66 47.0904 431.599 52.8387 438.404 55.7129C444.187 58.1412 451.403 58.0246 456.184 53.5178C459.024 50.8495 459.614 46.967 461.61 43.7636C461.795 43.4617 461.315 43.1805 461.13 43.4823H461.164Z" fill="#031F46"/>
<path d="M414.155 41.6445H435.111V27.3492H414.155V41.6445Z" fill="#031F46"/>
<path d="M410.589 41.6719H431.544V27.2668H410.589V41.6719Z" fill="#FF937E"/>
<path d="M413.291 34.5515C413.291 33.6696 413.553 32.8076 414.042 32.0744C414.532 31.3411 415.229 30.7696 416.043 30.4322C416.858 30.0947 417.755 30.0064 418.62 30.1784C419.484 30.3505 420.279 30.7751 420.903 31.3987C421.526 32.0223 421.951 32.8167 422.123 33.6816C422.295 34.5465 422.206 35.443 421.869 36.2578C421.532 37.0725 420.96 37.7688 420.227 38.2588C419.494 38.7487 418.632 39.0102 417.75 39.0102C417.164 39.0102 416.584 38.8949 416.043 38.6708C415.503 38.4467 415.011 38.1183 414.597 37.7043C414.183 37.2902 413.854 36.7987 413.63 36.2578C413.406 35.7168 413.291 35.137 413.291 34.5515Z" fill="#031F46"/>
<path d="M416.186 39.0102C418.649 39.0102 420.645 37.014 420.645 34.5515C420.645 32.089 418.649 30.0928 416.186 30.0928C413.724 30.0928 411.728 32.089 411.728 34.5515C411.728 37.014 413.724 39.0102 416.186 39.0102Z" fill="#5BC29C"/>
<path d="M413.483 34.5513C413.483 34.0151 413.642 33.491 413.94 33.0453C414.238 32.5995 414.662 32.2523 415.157 32.0474C415.653 31.8425 416.198 31.7893 416.724 31.8944C417.249 31.9995 417.732 32.2582 418.111 32.6378C418.489 33.0174 418.747 33.5009 418.851 34.0269C418.955 34.553 418.9 35.098 418.694 35.593C418.488 36.0879 418.139 36.5106 417.693 36.8075C417.246 37.1044 416.722 37.2622 416.186 37.2608C415.83 37.2617 415.477 37.1922 415.149 37.0563C414.82 36.9204 414.521 36.7207 414.27 36.4688C414.019 36.217 413.82 35.9179 413.685 35.5888C413.55 35.2597 413.481 34.9071 413.483 34.5513Z" fill="#031F46"/>
<path d="M429.246 27.4043H432.004V26.3616H429.246V27.4043Z" fill="#18333D"/>
<path d="M414.944 27.3223H421.09V25.8612H414.944V27.3223Z" fill="#031F46"/>
<path d="M431.675 49.23C431.675 49.23 433.98 74.9601 446.635 84.1451C449.619 86.3127 452.583 86.7517 455.937 85.222C466.686 80.3312 487.957 71.9694 488.177 70.6729C496.271 62.3317 489.014 48.887 484.891 49.9434C471.172 53.4486 464.162 60.0543 455.779 67.0168L439.851 41.8491C439.797 40.6281 439.673 31.8342 438.116 33.3776C436.559 34.921 437.389 36.6907 436.95 37.2875C436.511 37.8843 431.668 25.249 430.378 26.0653C428.554 27.2245 433.232 34.6671 431.75 34.3379C430.269 34.0086 427.504 26.6895 426.448 27.3892C424.76 28.5073 430.07 35.456 429.192 35.7098C428.314 35.9636 425.536 29.0286 424.315 29.7146C422.593 30.6886 428.156 38.4948 426.99 38.2204C425.824 37.946 423.491 33.2129 422.764 33.892C422.037 34.5711 431.675 49.23 431.675 49.23Z" fill="#A94846"/>
<path d="M484.912 49.9439C477.311 51.8852 470.308 53.3737 465.444 56.7692C467.845 63.2377 472.88 75.3586 474.547 82.0466C482.669 78.6168 488.06 71.4212 488.197 70.6735C496.292 62.3323 489.034 48.8738 484.912 49.9439Z" fill="#8064A2"/>
<path d="M433.76 30.6269C445.572 31.7587 449.688 44.9154 455.134 53.4075C456.496 55.6169 458.145 57.6353 460.039 59.4096C461.816 61.001 463.935 62.0917 466.377 61.5703C468.929 61.0284 471.405 59.3684 473.518 57.9005C475.618 56.4803 477.472 54.7263 479.006 52.7078C480.715 50.4432 481.752 47.7424 481.996 44.9154C482.072 43.7492 482.092 42.2744 481.269 41.3415C480.981 40.9884 480.574 40.7529 480.124 40.6796C479.674 40.6063 479.213 40.7003 478.827 40.9437C478.539 41.1495 478.827 41.6296 479.109 41.4238C480.727 40.292 481.441 42.7958 481.461 43.9139C481.483 45.1745 481.31 46.431 480.947 47.6386C480.168 50.1187 478.814 52.3797 476.996 54.2375C475.266 55.9917 473.31 57.5074 471.179 58.7442C468.936 60.1161 466.219 61.783 463.51 60.9324C461.205 60.2053 459.394 58.1474 457.899 56.3228C456.35 54.3495 454.973 52.2474 453.783 50.0394C451.492 45.9786 449.482 41.7325 446.622 38.0215C443.432 33.9058 439.117 30.5858 433.781 30.0713C433.424 30.0713 433.431 30.5926 433.781 30.6269H433.76Z" fill="#031F46"/>
<path d="M477.606 65.2609C477.262 65.4104 476.884 65.4607 476.513 65.4061C476.142 65.3516 475.793 65.1943 475.507 64.9522C475.167 64.7088 474.867 64.4151 474.615 64.0811C474.33 63.7416 474.118 63.347 473.991 62.9218C473.827 62.1673 474.677 61.934 475.24 62.0026C475.596 62.07 475.934 62.2071 476.237 62.406C476.54 62.605 476.8 62.8619 477.003 63.1619C477.261 63.513 477.446 63.9128 477.546 64.3371C477.646 64.7615 477.66 65.2017 477.586 65.6313C477.517 65.9812 478.052 66.1252 478.121 65.7754C478.298 64.8251 478.104 63.8432 477.579 63.0316C477.343 62.6398 477.03 62.3002 476.658 62.0336C476.287 61.7671 475.865 61.5791 475.418 61.4813C474.65 61.3578 473.6 61.5979 473.436 62.4965C473.396 63.0604 473.57 63.6186 473.923 64.0605C474.191 64.4869 474.524 64.8687 474.91 65.1923C475.292 65.5763 475.781 65.8346 476.313 65.9326C476.845 66.0307 477.394 65.9639 477.887 65.7411C478.196 65.5765 477.887 65.0963 477.606 65.2678V65.2609Z" fill="#FFF8ED"/>
<path d="M484.72 64.2185C484.377 63.2447 484.116 62.2444 483.938 61.2277C483.821 60.5418 483.65 59.5403 484.144 58.9229C484.637 58.3056 485.728 58.6554 486.112 59.3139C486.31 59.6962 486.418 60.1187 486.428 60.5491C486.437 60.9796 486.348 61.4065 486.167 61.7971C485.748 62.6532 485.2 63.4398 484.541 64.1293C484.308 64.3969 484.699 64.8153 484.932 64.5203C486.201 63.0798 487.676 61.1454 486.654 59.1493C486.457 58.7191 486.107 58.3773 485.673 58.1898C485.238 58.0023 484.75 57.9825 484.301 58.1341C483.423 58.5045 483.231 59.506 483.279 60.384C483.395 61.748 483.7 63.0892 484.185 64.3694C484.301 64.7055 484.871 64.5615 484.72 64.2185Z" fill="#FFF8ED"/>
<path d="M454.49 90.2647C453.861 89.4427 453.143 88.6928 452.349 88.0285C452.186 87.8636 451.986 87.7402 451.765 87.6686C451.544 87.597 451.309 87.5793 451.08 87.6169C450.9 87.6784 450.737 87.7841 450.608 87.9242C450.479 88.0644 450.386 88.2346 450.339 88.4195C449.88 89.8394 451.19 91.1633 452.48 91.4926C452.847 91.5938 453.232 91.615 453.608 91.5547C453.985 91.4943 454.344 91.3538 454.661 91.1427C454.949 90.9369 454.661 90.4568 454.38 90.6625C453.926 90.9432 453.391 91.0627 452.86 91.0017C452.33 90.9408 451.836 90.7028 451.458 90.3264C451.261 90.1548 451.102 89.9442 450.991 89.7081C450.88 89.472 450.82 89.2154 450.813 88.9545C450.808 88.8249 450.833 88.6959 450.885 88.5771C450.938 88.4584 451.016 88.3529 451.115 88.2686C451.437 88.0559 451.801 88.3715 452.061 88.5704C452.816 89.2166 453.506 89.9357 454.119 90.7174C454.171 90.7693 454.241 90.7984 454.315 90.7984C454.388 90.7984 454.458 90.7693 454.51 90.7174C454.562 90.6656 454.591 90.5953 454.591 90.5219C454.591 90.4486 454.562 90.3783 454.51 90.3264L454.49 90.2647Z" fill="#FFF8ED"/>
<path d="M464.23 85.6622C463.875 85.1575 463.64 84.5778 463.544 83.9679C463.491 83.6715 463.475 83.3696 463.496 83.0693C463.491 82.773 463.555 82.4796 463.681 82.2118C463.922 81.7728 464.511 81.9169 464.8 82.2118C464.955 82.4577 465.05 82.7372 465.077 83.027C465.103 83.3169 465.06 83.6089 464.95 83.8787C464.747 84.5998 464.407 85.2751 463.949 85.868C463.93 85.899 463.918 85.9334 463.913 85.9692C463.908 86.005 463.91 86.0415 463.918 86.0766C463.927 86.1117 463.943 86.1446 463.965 86.1736C463.987 86.2025 464.014 86.2269 464.045 86.2452C464.109 86.2814 464.185 86.2915 464.256 86.2737C464.328 86.2558 464.389 86.2113 464.429 86.1492C464.918 85.5058 465.279 84.7746 465.492 83.9953C465.62 83.6429 465.663 83.2651 465.617 82.893C465.57 82.5209 465.436 82.1652 465.225 81.8551C465.026 81.6214 464.754 81.4613 464.453 81.4003C464.152 81.3394 463.839 81.3812 463.565 81.519C462.947 81.9032 462.879 82.8909 462.941 83.522C462.986 84.3844 463.274 85.2164 463.771 85.9228C463.976 86.211 464.457 85.9229 464.251 85.6416L464.23 85.6622Z" fill="#FFF8ED"/>
<path d="M480.933 86.6433C480.137 86.3525 479.289 86.2287 478.443 86.2798C478.019 86.3198 477.616 86.4816 477.283 86.7458C476.949 87.01 476.699 87.3651 476.563 87.7683C476.498 88.1272 476.547 88.4976 476.705 88.8266C476.863 89.1556 477.121 89.4262 477.441 89.5998C477.775 89.8099 478.162 89.9215 478.556 89.9215C478.951 89.9215 479.337 89.8099 479.671 89.5998C480.453 89.0683 481.012 88.2674 481.242 87.3498C481.251 87.3147 481.254 87.2781 481.249 87.242C481.244 87.2059 481.232 87.1711 481.214 87.1396C481.196 87.1081 481.172 87.0804 481.143 87.0582C481.114 87.0361 481.081 87.0198 481.046 87.0103C481.011 87.0008 480.974 86.9984 480.938 87.0031C480.902 87.0078 480.867 87.0196 480.836 87.0377C480.804 87.0559 480.777 87.0801 480.754 87.1089C480.732 87.1377 480.716 87.1707 480.707 87.2058C480.377 88.3171 479.335 89.8193 477.963 89.2637C477.7 89.1806 477.471 89.0162 477.308 88.7943C477.145 88.5723 477.058 88.3042 477.057 88.0289C477.142 87.7065 477.324 87.4183 477.58 87.2044C477.836 86.9905 478.152 86.8615 478.484 86.8354C479.261 86.7969 480.038 86.9159 480.768 87.1852C480.839 87.2043 480.915 87.1945 480.979 87.1578C481.042 87.1211 481.089 87.0607 481.108 86.9897C481.127 86.9188 481.117 86.8431 481.08 86.7795C481.044 86.7158 480.983 86.6693 480.912 86.6502L480.933 86.6433Z" fill="#FFF8ED"/>
<path d="M456.548 60.8928C455.965 60.7579 455.434 60.4578 455.018 60.0285C454.6 59.6287 454.329 59.0993 454.25 58.5263C454.215 58.0804 454.366 57.4699 454.936 57.4699C455.505 57.4699 455.91 58.053 456.04 58.5263C456.266 59.3357 456.115 60.1931 456.376 61.0026C456.486 61.3387 457.021 61.1947 456.911 60.8517C456.637 60.0148 456.829 59.1025 456.548 58.2725C456.447 57.9223 456.249 57.6077 455.977 57.365C455.705 57.1223 455.37 56.9613 455.011 56.9006C454.678 56.895 454.356 57.0206 454.115 57.2503C453.873 57.4801 453.732 57.7955 453.721 58.1284C453.678 58.8344 453.909 59.5299 454.366 60.0697C454.871 60.753 455.599 61.2383 456.424 61.4416C456.774 61.5239 456.925 60.9889 456.575 60.9065L456.548 60.8928Z" fill="#FFF8ED"/>
<path d="M465.856 51.4268C465.533 51.2982 465.187 51.2349 464.839 51.2406C464.491 51.2462 464.148 51.3207 463.829 51.4598C463.51 51.5988 463.222 51.7996 462.981 52.0506C462.741 52.3016 462.552 52.5979 462.426 52.9222C462.281 53.2613 462.265 53.6419 462.381 53.992C462.497 54.3421 462.738 54.6375 463.057 54.8223C463.846 55.1722 464.655 54.5685 465.115 53.9649C465.325 53.6437 465.478 53.2887 465.568 52.9154C465.65 52.6547 465.753 52.3186 466.041 52.2294C466.111 52.2072 466.169 52.1594 466.205 52.0958C466.24 52.0321 466.25 51.9573 466.233 51.8864C466.212 51.816 466.165 51.7564 466.101 51.7205C466.037 51.6846 465.961 51.6752 465.89 51.6944C465.286 51.9207 465.129 52.5038 464.95 53.0663C464.869 53.3639 464.717 53.6374 464.506 53.8632C464.296 54.089 464.034 54.2604 463.743 54.3627C463.621 54.402 463.491 54.4033 463.368 54.3666C463.246 54.3298 463.137 54.2567 463.057 54.1569C462.908 53.9331 462.849 53.661 462.892 53.3955C462.939 53.1218 463.047 52.8622 463.209 52.6364C463.37 52.4106 463.581 52.2245 463.825 52.0922C464.09 51.9321 464.387 51.8335 464.694 51.8038C465.002 51.7741 465.312 51.8141 465.602 51.9207C465.667 51.9552 465.742 51.9645 465.813 51.9468C465.884 51.929 465.945 51.8855 465.986 51.8247C466.004 51.7932 466.016 51.7585 466.021 51.7224C466.026 51.6863 466.023 51.6496 466.014 51.6145C466.004 51.5794 465.988 51.5466 465.965 51.5179C465.943 51.4892 465.915 51.4652 465.883 51.4474L465.856 51.4268Z" fill="#FFF8ED"/>
<path d="M487.861 80.092C487.084 80.0724 486.337 79.7894 485.741 79.2894C485.275 78.8915 484.706 78.1576 485.131 77.5402C485.292 77.3412 485.507 77.1932 485.751 77.114C485.994 77.0349 486.256 77.028 486.503 77.0943C486.744 77.1822 486.96 77.3284 487.131 77.5199C487.302 77.7114 487.423 77.9422 487.484 78.1919C487.722 78.8233 487.842 79.4927 487.841 80.1674C487.851 80.2336 487.885 80.2939 487.936 80.3374C487.987 80.381 488.051 80.4049 488.118 80.4049C488.185 80.4049 488.25 80.381 488.301 80.3374C488.352 80.2939 488.386 80.2336 488.396 80.1674C488.397 79.4654 488.274 78.7687 488.033 78.1096C487.95 77.7728 487.789 77.4603 487.563 77.1979C487.336 76.9356 487.051 76.7308 486.729 76.6005C486.388 76.499 486.025 76.494 485.682 76.586C485.338 76.678 485.026 76.8635 484.781 77.1218C484.534 77.4702 484.427 77.898 484.479 78.3217C484.531 78.7454 484.739 79.1345 485.062 79.4129C485.424 79.7971 485.858 80.1059 486.34 80.3213C486.821 80.5368 487.341 80.6547 487.868 80.6682C487.934 80.6577 487.994 80.624 488.038 80.5731C488.081 80.5222 488.105 80.4574 488.105 80.3904C488.105 80.3234 488.081 80.2586 488.038 80.2076C487.994 80.1567 487.934 80.123 487.868 80.1125L487.861 80.092Z" fill="#FFF8ED"/>
<path d="M326 125.516L350.358 278.107" stroke="#FF616B" stroke-width="3.14" stroke-miterlimit="10"/>
<path d="M280.151 125.516L255.792 278.107" stroke="#FF616B" stroke-width="3.14" stroke-miterlimit="10"/>
<path d="M354.57 116.605H254.599V127.114H354.57V116.605Z" fill="#FFC56B"/>
<path d="M348.205 120.824H264.47L285.961 0.157227H369.703L348.205 120.824Z" fill="#FFC56B"/>
<path d="M341.763 120.824H258.022L279.513 0.157227H363.254L341.763 120.824Z" fill="white"/>
<path d="M310.01 98.2639C303.651 93.6406 296.751 94.5117 290.152 98.0101C284.664 100.905 279.863 98.1473 276.227 93.62C274.121 91.0134 270.053 82.2469 265.979 85.5875C265.609 85.8924 265.186 86.125 264.73 86.2734L259.929 113.218H319.079C317.961 107.325 314.874 101.762 310.01 98.2639Z" fill="#0096C8"/>
<path d="M342.394 116.605H242.423V127.114H342.394V116.605Z" fill="#FF616B"/>
<path d="M284.081 11.3533C294.968 13.6666 304.723 19.6681 311.696 28.3434C318.669 37.0187 322.432 47.8355 322.351 58.9655C315.992 58.9243 309.365 58.7185 303.734 55.7689C296.099 51.7698 291.764 43.6001 287.888 35.8762C284.013 28.1524 280.02 19.8454 281.372 11.3396" fill="#5BC29C"/>
<path d="M304.824 39.7166L309.091 43.5717C309.345 43.8049 309.729 43.4276 309.468 43.1944L305.202 39.3325C304.948 39.0993 304.564 39.4834 304.824 39.7166Z" fill="white"/>
<path d="M314.401 48.7716L317.783 52.5581C318.009 52.8188 318.393 52.4347 318.16 52.1808L314.778 48.3944C314.545 48.1337 314.168 48.5178 314.401 48.7716Z" fill="white"/>
<path d="M287.189 19.6251L289.548 22.0397C289.795 22.2866 290.172 21.9025 289.932 21.6556L287.566 19.2479C287.326 18.9941 286.942 19.3782 287.189 19.6251Z" fill="white"/>
<path d="M342.683 13.665C338.695 15.0198 335.034 17.1934 331.935 20.0462C328.837 22.899 326.369 26.3681 324.69 30.2309C327.276 31.5342 330.473 31.2186 333.079 29.9428C335.686 28.6669 337.778 26.5541 339.596 24.2905C341.811 21.5467 343.766 18.2541 343.561 14.7283" fill="#5BC29C"/>
<path d="M317.405 113.1C316.17 109.671 315.978 105.589 315.793 101.947C315.608 98.3044 316.643 94.4014 319.346 91.9594C323.057 88.5845 329.011 88.5639 332.571 85.0381C335.164 82.4726 335.912 78.645 336.783 75.1123C339.527 64.0821 344.13 53.8477 354.652 49.5811L343.355 113.258L317.405 113.1Z" fill="#FF937E"/>
<path d="M236.915 254.331L237.121 270.588C237.121 270.588 239.659 279.842 242.012 276.261C243.309 274.223 244.883 272.376 246.69 270.773L247.904 254.996L236.915 254.331Z" fill="#FFC56B"/>
<path d="M247.808 270.719L262.11 278.874C262.748 279.245 262.399 280.006 261.596 279.999C254.99 279.965 237.203 279.78 232.525 279.725C231.956 279.725 231.565 279.3 231.743 278.902C232.738 276.686 236.099 268.29 236.483 268.235C236.483 268.235 239.824 273.634 241.772 273.092C243.445 272.559 245.026 271.77 246.457 270.753C246.647 270.598 246.882 270.511 247.127 270.505C247.371 270.499 247.611 270.574 247.808 270.719Z" fill="#FF937E"/>
<path d="M250.696 271.652L248.268 273.875" stroke="white" stroke-width="1.02" stroke-miterlimit="10" stroke-linecap="round"/>
<path d="M252.301 272.935L249.873 275.158" stroke="white" stroke-width="1.02" stroke-miterlimit="10" stroke-linecap="round"/>
<path d="M177.422 253.323L174.555 260.066C174.555 260.066 172.662 269.463 176.373 267.323C178.371 266.116 180.537 265.212 182.8 264.641L191.196 250.97L177.422 253.323Z" fill="#FFC56B"/>
<path d="M184.042 264.95L193.151 278.669C193.556 279.279 192.904 279.808 192.184 279.444C186.305 276.44 170.494 268.284 166.344 266.13C165.837 265.869 165.658 265.32 166.015 265.046C167.894 263.509 174.672 257.5 175.042 257.644C175.042 257.644 175.598 263.969 177.58 264.36C179.317 264.628 181.084 264.628 182.821 264.36C183.061 264.306 183.312 264.335 183.534 264.442C183.756 264.549 183.935 264.728 184.042 264.95Z" fill="#FF937E"/>
<path d="M186.202 267.112L183.033 268.011" stroke="white" stroke-width="1.02" stroke-miterlimit="10" stroke-linecap="round"/>
<path d="M187.06 268.984L183.891 269.876" stroke="white" stroke-width="1.02" stroke-miterlimit="10" stroke-linecap="round"/>
<path d="M218.058 95.0867C213.73 104.279 211.638 106.748 208.935 117.902C205.8 130.825 206.466 148.221 204.634 161.213C202.761 174.5 202.981 173.382 199.832 188.171C195.902 206.568 185.619 235.399 177.436 253.213C178.17 254.311 185.16 258.701 189.907 261.63C204.799 243.267 218.237 211.898 224.04 188.685C228.444 171.077 231.839 158.503 232.854 141.533C232.978 139.475 235.358 139.605 236.133 141.485C244.365 161.336 231.222 236.366 232.889 265.21H250.792C254.825 237.649 258.338 211.342 259.778 180.618C261.184 150.128 267.18 125.79 247.932 95.073C236.27 95.3474 227.621 95.2719 218.058 95.0867Z" fill="#0096C8"/>
<path opacity="0.5" d="M227.923 95.3545C227.923 95.3545 230.152 116.873 208.716 117.394" stroke="white" stroke-width="0.75" stroke-miterlimit="10"/>
<path opacity="0.5" d="M244.159 95.3545C244.845 96.7264 246.731 113.91 259.881 114.294" stroke="white" stroke-width="0.75" stroke-miterlimit="10"/>
<path d="M239.638 40.4299C240.201 38.619 233.986 11.9353 232.532 10.7143C228.54 7.37373 224.643 6.5986 219.553 7.70299C215.616 8.55357 206.52 13.369 204.298 41.3834" fill="#FF616B"/>
<path d="M217.667 11.4554C220.83 11.4554 223.395 8.89106 223.395 5.72772C223.395 2.56439 220.83 0 217.667 0C214.504 0 211.939 2.56439 211.939 5.72772C211.939 8.89106 214.504 11.4554 217.667 11.4554Z" fill="#FF616B"/>
<path d="M237.107 21.683C234.802 11.723 227.579 11.9905 225.734 12.2031C224.177 12.3883 218.806 12.402 218.435 24.8453C218.434 24.9044 218.422 24.9628 218.397 25.0168C218.373 25.0708 218.338 25.1192 218.294 25.1591C218.25 25.199 218.199 25.2295 218.143 25.2486C218.087 25.2678 218.028 25.2753 217.969 25.2706C216.926 25.2088 214.539 24.8384 214.018 27.5548C213.496 30.2712 216.076 32.0135 217.633 32.1987C218.092 32.2467 219.142 32.4045 219.43 32.7612C219.772 33.0106 220.175 33.1623 220.596 33.2002L219.169 47.3377C245.338 57.4693 234.329 46.4871 234.329 46.4871L231.304 33.7421C231.66 33.7421 233.238 33.893 233.252 33.893C235.906 33.4266 239.597 32.4114 237.107 21.683Z" fill="#FFC56B"/>
<path d="M217.928 21.5122L223.944 19.1045C223.944 19.1045 223.498 14.7418 223.642 15.1946C224.276 16.0539 224.983 16.8571 225.754 17.5954L232.82 15.6404L229.514 10.6741L234.933 16.9986C234.933 16.9986 232.971 5.07671 224.849 8.76715C216.727 12.4576 217.928 21.5122 217.928 21.5122Z" fill="#FF616B"/>
<path d="M231.304 33.7413L226.653 32.6438C226.653 32.6438 228.128 38.2961 231.304 33.7413Z" fill="#1E2046"/>
<path d="M215.006 27.8491C215.006 27.8491 216.858 24.481 218.662 29.2553L215.006 27.8491Z" fill="#FA9E52"/>
<path d="M227.373 24.8655C227.86 24.8835 228.331 25.0455 228.726 25.331C229.12 25.6165 229.422 26.0127 229.591 26.4695C229.761 26.9262 229.791 27.423 229.678 27.8969C229.565 28.3709 229.314 28.8007 228.957 29.132C228.6 29.4633 228.152 29.6811 227.671 29.7581C227.19 29.835 226.697 29.7675 226.254 29.5641C225.812 29.3607 225.439 29.0305 225.184 28.6154C224.929 28.2003 224.803 27.7188 224.822 27.232C224.833 26.9089 224.908 26.5911 225.043 26.2971C225.177 26.0031 225.369 25.7386 225.606 25.5187C225.843 25.2988 226.121 25.1279 226.425 25.0158C226.728 24.9037 227.05 24.8526 227.373 24.8655Z" fill="#FA9E52"/>
<path d="M237.855 26.3058C236.744 26.0315 235.639 25.0643 235.68 23.8707C235.705 23.4142 235.844 22.9712 236.083 22.5819C236.323 22.1925 236.656 21.8693 237.052 21.6414C237.521 23.1548 237.791 24.7228 237.855 26.3058Z" fill="#FA9E52"/>
<path d="M233.657 25.5111L234.741 25.0103C234.797 24.9903 234.848 24.9557 234.887 24.9101C234.926 24.8645 234.952 24.8094 234.963 24.7504C234.974 24.6913 234.97 24.6304 234.95 24.5737C234.93 24.517 234.896 24.4665 234.85 24.4272L233.238 22.7261" fill="#FA9E52"/>
<path d="M228.265 20.1057C227.916 20.5379 228.197 18.967 228.752 18.6309C228.992 18.467 229.286 18.4032 229.572 18.4531C229.858 18.5031 230.113 18.663 230.282 18.8984C229.49 19.0552 228.778 19.4819 228.265 20.1057Z" fill="#183350"/>
<path d="M235.543 19.5911C236.071 19.7763 235.001 18.5896 234.357 18.6033C234.067 18.5882 233.783 18.6877 233.566 18.8802C233.349 19.0727 233.217 19.3429 233.197 19.6322C233.95 19.3431 234.781 19.3286 235.543 19.5911Z" fill="#183350"/>
<path d="M231.276 23.494C231.434 23.9536 231.736 24.2623 231.962 24.18C232.189 24.0976 232.237 23.6724 232.086 23.2196C231.935 22.7669 231.626 22.4445 231.4 22.5337C231.174 22.6228 231.126 23.0481 231.276 23.494Z" fill="#183350"/>
<path d="M234.178 22.5134C234.329 22.9524 234.617 23.2542 234.83 23.1994C235.043 23.1445 235.097 22.7192 234.947 22.2802C234.796 21.8412 234.508 21.5462 234.295 21.5942C234.082 21.6422 234.034 22.0812 234.178 22.5134Z" fill="#183350"/>
<path d="M230.495 26.9782C230.796 26.9027 236.14 25.3044 236.14 25.3044C236.14 25.3044 235.694 28.0483 234.302 28.3501C232.909 28.6519 230.495 26.9782 230.495 26.9782Z" fill="#FFF8ED"/>
<path d="M247.3 62.3806C247.3 62.3806 258.543 65.7692 260.985 62.9293C263.043 60.5216 274.636 43.6677 277.88 37.0757C278.456 35.9027 280.658 33.6459 284.314 33.2275C288.979 32.6924 299.124 32.8433 299.104 34.2907C299.104 36.1291 288.43 38.283 288.43 38.283C288.43 38.283 289.864 45.4443 283.313 45.7804C283.313 45.7804 275.973 76.3329 270.87 78.6651C265.766 80.9974 245.16 81.7999 245.16 81.7999L247.3 62.3806Z" fill="#FFC56B"/>
<path d="M295.811 29.4412L297.588 31.5539L284.472 47.2897C284.164 47.6616 283.723 47.8989 283.243 47.9514C282.763 48.0039 282.281 47.8674 281.9 47.571C281.694 47.4136 281.523 47.2148 281.398 46.9875C281.273 46.7601 281.198 46.5091 281.176 46.2507C281.154 45.9923 281.186 45.7321 281.271 45.487C281.355 45.2418 281.49 45.017 281.667 44.8271L295.811 29.4412Z" fill="#A94846"/>
<path d="M285.021 35.9092C285.021 35.9092 292.731 37.8024 292.1 39.2704C291.469 40.7383 283.821 41.0195 283.821 41.0195L285.021 35.9092Z" fill="#FFC56B"/>
<path d="M295.811 29.4417C295.811 29.4417 294.322 28.0698 297.348 26.3412C300.373 24.6126 301.964 24.9075 301.964 24.9075C301.964 24.9075 302.437 30.9576 299.577 31.28C296.716 31.6024 297.567 31.5544 297.567 31.5544L295.811 29.4417Z" fill="white"/>
<path d="M252.054 83.0967L256.17 62.0791C251.368 54.7599 241.147 46.7205 236.277 46.6657C236.181 46.6657 236.099 46.7548 236.016 46.8852C234.946 46.0483 233.814 45.2183 233.828 45.1703C238.438 55.9055 220.171 43.6475 220.171 43.6475C217.749 43.8327 206.452 49.0253 197.473 55.4527C191.134 59.9732 193.103 58.8139 193.103 58.8139C193.103 58.8139 203.468 75.0368 205.875 77.6365C206.369 79.5503 208.708 75.1328 208.708 75.1328L213.215 101.24L254.606 101.563C255.1 101.233 251.937 81.4642 247.856 68.8632C248.556 70.3585 250.943 83.6249 252.054 83.0967Z" fill="#FF937E"/>
<path d="M204.689 48.6884C203.824 51.9467 206.26 54.862 208.208 57.2011C210.266 59.6431 212.625 61.9548 215.561 63.2924C220.239 65.4189 227.682 64.3694 228.8 58.3947C229.28 55.8155 227.819 52.907 225.055 52.4269C221.81 51.9056 223.141 56.6318 224.142 58.0997C224.951 59.2415 226.049 60.1483 227.322 60.7279C228.596 61.3075 230.001 61.5392 231.393 61.3992C234.589 61.1454 237.409 59.4099 239.576 57.1188C242.085 54.3655 244.06 51.1695 245.4 47.6938C246.893 44.2035 247.334 40.3531 246.669 36.6156C246.594 36.2521 246.045 36.403 246.12 36.7665C247.293 42.5286 245.023 48.318 241.936 53.106C239.062 57.5715 233.993 62.3664 228.183 60.48C225.713 59.6774 223.614 57.304 223.566 54.6357C223.566 53.7851 223.717 52.9208 224.739 52.9619C225.507 53.0446 226.229 53.3716 226.797 53.8948C227.305 54.3471 227.705 54.9083 227.967 55.5366C228.228 56.1649 228.344 56.8441 228.306 57.5235C228.045 63.2513 221.035 64.7604 216.645 63.1278C213.743 62.0508 211.363 59.9312 209.339 57.6401C207.316 55.3491 204.353 52.1525 205.224 48.8325C205.244 48.7597 205.234 48.682 205.197 48.6164C205.159 48.5508 205.098 48.5027 205.025 48.4826C204.952 48.4626 204.874 48.4723 204.809 48.5097C204.743 48.547 204.695 48.6088 204.675 48.6816L204.689 48.6884Z" fill="#FFF8ED"/>
<path d="M225.473 103.264C224.225 94.5523 226.42 85.6074 230.927 78.1168C235.324 70.8045 241.902 65.0425 249.393 61.0365C253.628 58.7851 258.119 57.0509 262.769 55.8713C262.84 55.8489 262.899 55.8 262.935 55.7347C262.971 55.6694 262.98 55.5928 262.96 55.5209C262.941 55.4491 262.894 55.3876 262.831 55.3493C262.767 55.3111 262.691 55.299 262.618 55.3157C254.184 57.4065 246.339 61.3949 239.68 66.9769C232.946 72.6744 228.104 80.2843 225.796 88.7971C224.531 93.5671 224.235 98.5422 224.925 103.429C224.973 103.792 225.528 103.641 225.473 103.278V103.264Z" fill="#FFF8ED"/>
<path d="M207.975 88.8576C212.967 91.6115 218.488 93.274 224.171 93.7352C229.854 94.1963 235.57 93.4457 240.942 91.5329C243.329 90.6685 246.018 89.6533 247.911 87.911C249.461 86.4774 250.188 84.2343 248.885 82.3822C248.652 82.0286 248.333 81.7394 247.958 81.5413C247.584 81.3433 247.166 81.2427 246.742 81.2488C246.318 81.255 245.903 81.3677 245.534 81.5765C245.165 81.7854 244.855 82.0837 244.632 82.4439C243.377 84.3166 244.18 86.5597 245.819 87.8493C248.137 89.7014 251.526 90.3118 254.414 90.3736C257.65 90.4361 260.849 89.6736 263.709 88.158C264.038 87.9865 263.75 87.472 263.421 87.6641C261.16 88.8655 258.673 89.5797 256.12 89.7605C253.567 89.9412 251.004 89.5846 248.597 88.7136C246.505 87.9247 243.946 86.1824 244.715 83.5963C245.023 82.5743 245.929 81.6002 247.088 81.806C247.58 81.9475 248.019 82.2315 248.35 82.6221C248.681 83.0128 248.888 83.4926 248.947 84.0011C249.4 86.4774 246.965 88.1168 245.064 89.1251C242.891 90.2411 240.611 91.1373 238.26 91.8004C233.603 93.1185 228.746 93.5833 223.923 93.1723C218.422 92.6985 213.084 91.0618 208.263 88.3706C208.231 88.3517 208.196 88.3392 208.159 88.334C208.122 88.3288 208.085 88.3308 208.049 88.3401C208.013 88.3493 207.979 88.3655 207.949 88.3878C207.919 88.4101 207.894 88.4381 207.875 88.4701C207.856 88.502 207.844 88.5374 207.839 88.5742C207.834 88.611 207.836 88.6485 207.845 88.6844C207.854 88.7204 207.87 88.7543 207.893 88.784C207.915 88.8137 207.943 88.8387 207.975 88.8576Z" fill="#FFF8ED"/>
<path d="M196.451 54.032C201.191 56.3711 204.6 60.7338 206.459 65.6109C208.654 71.3935 208.722 77.7249 208.105 83.8093C208.071 84.1728 208.64 84.1728 208.681 83.8093C209.312 77.5122 209.216 70.9202 206.815 64.973C204.874 60.1713 201.458 55.8635 196.739 53.5381C196.416 53.3803 196.121 53.8674 196.451 54.032Z" fill="#FFF8ED"/>
<path d="M208.187 83.8983C208.882 81.6746 209.899 79.5647 211.205 77.6355C212.447 75.804 214.114 73.5198 216.281 72.7378C216.756 72.5581 217.264 72.4882 217.769 72.5334C218.274 72.5785 218.762 72.7375 219.197 72.9984C220.342 73.7461 220.418 75.2347 219.883 76.3802C219.294 77.4131 218.469 78.2922 217.475 78.9457C216.57 79.6182 215.619 80.2257 214.628 80.7635C212.305 82.0112 209.786 82.8533 207.179 83.2535C206.815 83.3083 206.966 83.8571 207.33 83.8022C211.283 83.2 215.015 81.5914 218.168 79.1309C219.196 78.4217 220.014 77.4476 220.534 76.3116C220.742 75.8419 220.83 75.3278 220.791 74.8156C220.751 74.3034 220.584 73.8092 220.306 73.3773C220.028 72.9453 219.647 72.5893 219.197 72.3412C218.747 72.0931 218.243 71.9607 217.729 71.9558C215.198 71.8117 213.236 74.0685 211.816 75.8657C209.957 78.2157 208.545 80.8872 207.652 83.7473C207.542 84.0972 208.091 84.2481 208.201 83.8983H208.187Z" fill="#FFF8ED"/>
<path d="M251.746 49.128C250.056 49.5086 248.45 50.1944 247.006 51.1516C245.723 52.0021 244.262 53.1271 243.7 54.6294C243.572 54.9492 243.529 55.2965 243.575 55.6377C243.62 55.979 243.753 56.3028 243.959 56.5783C244.166 56.8537 244.44 57.0714 244.754 57.2106C245.069 57.3498 245.415 57.4058 245.757 57.3732C246.582 57.2934 247.365 56.9711 248.007 56.4471C248.727 55.9414 249.414 55.3916 250.065 54.8008C251.558 53.439 252.874 51.8949 253.982 50.2049C254.181 49.8963 253.687 49.6082 253.488 49.9168C252.648 51.1978 251.683 52.3926 250.607 53.4838C249.582 54.5978 248.409 55.567 247.122 56.3648C246.813 56.5733 246.46 56.7093 246.091 56.7627C245.722 56.8161 245.345 56.7857 244.989 56.6735C244.814 56.6032 244.655 56.4974 244.522 56.3627C244.389 56.2281 244.286 56.0675 244.219 55.891C244.151 55.7146 244.12 55.526 244.129 55.3372C244.138 55.1485 244.185 54.9635 244.269 54.794C244.749 53.4221 246.162 52.4137 247.308 51.6523C248.71 50.7233 250.27 50.0563 251.91 49.6836C252.267 49.6013 252.116 49.0525 251.759 49.1349L251.746 49.128Z" fill="#FFF8ED"/>
<path d="M245.73 133.021C242.356 133.567 238.897 133.166 235.737 131.862C232.578 130.559 229.842 128.405 227.833 125.64C224.678 121.339 222.6 115.399 226.427 108.567C234.302 94.477 251.019 101.398 252.452 105.219C253.886 109.04 254.839 109.28 250.305 114.534C245.771 119.789 249.688 120.914 251.259 126.477C252.439 130.668 249.413 132.39 245.73 133.021Z" fill="white"/>
<path d="M241.71 126.709C242.763 126.709 243.617 125.855 243.617 124.802C243.617 123.749 242.763 122.895 241.71 122.895C240.657 122.895 239.803 123.749 239.803 124.802C239.803 125.855 240.657 126.709 241.71 126.709Z" fill="#FF616B"/>
<path d="M236.456 123.61C237.641 123.61 238.603 122.648 238.603 121.463C238.603 120.277 237.641 119.316 236.456 119.316C235.27 119.316 234.309 120.277 234.309 121.463C234.309 122.648 235.27 123.61 236.456 123.61Z" fill="#5BC29C"/>
<path d="M241.71 108.326C241.711 107.9 241.586 107.483 241.35 107.128C241.115 106.773 240.779 106.496 240.385 106.331C239.992 106.167 239.559 106.124 239.14 106.206C238.722 106.288 238.338 106.493 238.036 106.794C237.734 107.095 237.528 107.479 237.444 107.897C237.361 108.315 237.403 108.748 237.566 109.142C237.728 109.536 238.005 109.873 238.359 110.11C238.713 110.347 239.13 110.473 239.556 110.473C240.126 110.473 240.673 110.247 241.077 109.845C241.481 109.442 241.708 108.896 241.71 108.326Z" fill="#45A2B9"/>
<path d="M248.151 107.612C248.15 107.188 248.023 106.773 247.786 106.421C247.549 106.069 247.213 105.795 246.821 105.633C246.428 105.472 245.997 105.43 245.581 105.514C245.165 105.597 244.783 105.802 244.483 106.103C244.184 106.403 243.98 106.786 243.898 107.202C243.815 107.619 243.858 108.05 244.021 108.442C244.184 108.834 244.459 109.169 244.812 109.404C245.165 109.64 245.58 109.766 246.004 109.766C246.286 109.766 246.566 109.71 246.827 109.602C247.088 109.493 247.325 109.335 247.525 109.134C247.724 108.934 247.882 108.697 247.99 108.436C248.097 108.174 248.152 107.894 248.151 107.612Z" fill="#1E2046"/>
<path d="M237.91 114.04C237.91 113.614 237.784 113.197 237.547 112.843C237.31 112.489 236.974 112.213 236.58 112.05C236.187 111.887 235.754 111.844 235.336 111.927C234.918 112.01 234.534 112.216 234.233 112.517C233.932 112.818 233.727 113.202 233.643 113.62C233.56 114.038 233.603 114.471 233.766 114.864C233.929 115.258 234.205 115.594 234.559 115.831C234.914 116.067 235.33 116.194 235.756 116.194C236.327 116.194 236.875 115.967 237.279 115.563C237.683 115.159 237.91 114.611 237.91 114.04Z" fill="#FF937E"/>
<path d="M225.309 111.111C226.448 112.153 232.093 113.964 231.942 115.913C231.791 117.861 227.264 114.595 227.044 115.666C226.825 116.736 231.702 116.9 231.386 118.409C231.071 119.918 226.708 117.723 226.413 118.499C226.118 119.274 231.345 119.335 230.687 120.508C230.028 121.681 226.571 120.083 225.309 120.364C224.047 120.646 230.694 121.496 227.236 122.264C225.988 122.546 224.561 121.887 221.81 121.338C178.849 107.242 172.627 106.11 195.058 61.9622C197.315 64.7471 200.999 71.5175 204.662 75.8802C192.808 103.373 210.725 101.439 226.317 108.861" fill="#FFC56B"/>
</g>
<defs>
<clipPath id="clip0_1_4298">
<rect width="531" height="280" fill="white"/>
</clipPath>
</defs>
</svg>
