<svg width="638" height="302" viewBox="0 0 638 302" fill="none" xmlns="http://www.w3.org/2000/svg">
<g clip-path="url(#clip0_1_4466)">
<path d="M57.6601 44.1058C58.5532 44.6783 58.5227 46.2966 57.6067 47.724C56.6907 49.1515 55.225 49.8461 54.3396 49.2507C53.4541 48.6553 53.477 47.0599 54.393 45.6325C55.309 44.205 56.7746 43.5333 57.6601 44.1058Z" fill="#3F468E"/>
<path d="M65.141 39.8084C66.0264 40.3809 66.0035 41.9992 65.0799 43.4267C64.1563 44.8541 62.6983 45.5564 61.8128 44.9534C60.9273 44.3503 60.9502 42.7626 61.8739 41.3351C62.7975 39.9077 64.2555 39.2436 65.141 39.8084Z" fill="#3F468E"/>
<path d="M57.9278 44.8454C57.7522 44.5706 57.4316 34.6014 57.4316 34.6014L65.3856 27.6016V40.8837" stroke="#3F468E" stroke-width="0.84" stroke-linecap="round" stroke-linejoin="round"/>
<path d="M140.894 105.951C141.78 106.516 141.757 108.142 140.841 109.57C139.925 110.997 138.459 111.692 137.574 111.096C136.688 110.501 136.711 108.906 137.627 107.471C138.543 106.035 140.009 105.379 140.894 105.951Z" fill="#3F468E"/>
<path d="M148.375 101.654C149.261 102.226 149.23 103.845 148.314 105.272C147.398 106.7 145.933 107.402 145.047 106.799C144.162 106.196 144.185 104.608 145.101 103.181C146.017 101.753 147.482 101.081 148.375 101.654Z" fill="#3F468E"/>
<path d="M141.162 106.692C140.986 106.418 140.666 96.4483 140.666 96.4483L148.589 89.4485V102.715" stroke="#3F468E" stroke-width="0.84" stroke-linecap="round" stroke-linejoin="round"/>
<path d="M99.5447 13.984C100.43 14.5565 100.4 16.1748 99.4836 17.6022C98.5676 19.0297 97.102 19.7243 96.2165 19.1289C95.331 18.5335 95.354 16.9381 96.27 15.5107C97.186 14.0832 98.6516 13.4039 99.5447 13.984Z" fill="#3F468E"/>
<path d="M99.8043 14.7248C99.6287 14.45 99.3081 4.48083 99.3081 4.48083L103.331 1" stroke="#3F468E" stroke-width="0.84" stroke-linecap="round" stroke-linejoin="round"/>
<path d="M111.01 263.901C105.942 263.138 102.247 259.398 101.171 258.024C101.171 258.069 79.5453 216.093 71.0799 206.116C75.7592 194.124 91.5068 184.544 98.6899 178.171C100.354 176.697 109.842 168.927 111.804 167.881C121.437 162.751 126.017 154.034 122.918 137.263C119.201 140.141 111.14 134.126 98.4456 131.24C98.4456 131.24 61.1336 167.117 51.943 184.926C42.5386 203.132 40.9432 207.063 67.7975 238.971C75.2401 248.894 98.5296 277.443 98.5296 277.443C98.5296 277.443 105.4 296.129 105.506 296.412C105.613 296.694 111.155 278.283 113.735 269.771C114.453 267.405 113.476 264.26 111.01 263.901Z" fill="#FFC56B"/>
<path d="M93.9266 245.688C93.9801 245.352 94.0411 245.016 94.0946 244.673C87.0184 231.49 76.4309 212.422 71.0799 206.124C75.7592 194.132 91.5068 184.552 98.6899 178.178C100.354 176.705 109.842 168.934 111.804 167.889C121.437 162.759 126.017 154.042 122.918 137.271C119.201 140.149 111.14 134.134 98.4456 131.248C98.4456 131.248 61.1336 167.125 51.943 184.934C42.5386 203.14 40.9432 207.071 67.7975 238.978C71.3852 243.765 78.6522 252.879 85.2169 261.031C88.0107 255.856 90.914 250.741 93.9266 245.688Z" fill="#1E2046"/>
<path d="M78.8889 257.673C82.9117 254.765 94.2778 246.673 98.5143 244.093C94.461 235.277 85.1635 223.163 78.034 214.43C75.743 211.617 74.5644 208.06 74.722 204.436C74.8796 200.811 76.3624 197.37 78.8889 194.766C86.2093 187.202 95.9343 181.087 100.171 176.752C103.678 173.299 107.607 170.304 111.865 167.836C121.453 162.698 125.315 151.706 122.224 135.012C118.506 137.882 111.14 134.15 98.4456 131.264C98.4456 131.264 61.1336 167.141 51.943 184.95C42.5387 203.155 43.4013 203.583 44.8287 208.285C49.6301 218.018 73.7822 251.292 78.8889 257.673Z" fill="#0096C8"/>
<g style="mix-blend-mode:multiply">
<path d="M69.0181 165.545C74.2165 170.652 79.1858 175.995 84.1704 181.338C85.6589 182.949 87.1627 184.552 88.6589 186.155C93.3229 182.461 97.6892 179.285 100.17 176.766C103.677 173.314 107.606 170.318 111.864 167.85C121.452 162.713 125.314 151.141 122.223 134.408C118.505 137.278 111.139 134.126 98.4449 131.24C98.4449 131.24 81.285 147.744 67.377 163.919L69.0181 165.545Z" fill="#1E2046"/>
</g>
<path d="M101.537 292.022L99.7964 284.114L105.338 287.007L105.063 261.817L115.544 265.336L105.506 296.381C104.523 296.061 103.64 295.491 102.944 294.727C102.248 293.963 101.763 293.031 101.537 292.022Z" fill="#FF937E"/>
<path d="M27.4627 234.46C25.0054 228.102 23.9106 221.299 24.2491 214.491C24.2033 214.491 39.5158 178.385 40.6532 165.34C52.6376 160.172 68.8968 163.981 78.6217 164.576C80.8736 164.714 102.888 172.599 110.85 168.668C127.323 160.546 120.659 142.363 121.842 135.211C117.109 134.608 112.277 134.287 99.0105 130.562C99.0105 130.562 61.6679 130.76 42.2868 136.837C22.4399 143.05 18.4706 144.722 14.6234 186.271C12.7684 198.568 8.79144 235.231 8.79144 235.231C8.79144 235.231 0.234409 253.322 0.097008 253.551C-0.040393 253.78 17.1958 244.727 25.1727 240.536C26.2385 239.986 27.0625 239.061 27.4855 237.938C27.9085 236.816 27.9004 235.577 27.4627 234.46Z" fill="#FFC56B"/>
<path d="M122.635 135.188C114.638 134.395 106.734 132.838 99.033 130.54C99.033 130.54 61.6904 130.738 42.3092 136.814C22.4624 143.028 18.4931 144.699 14.6458 186.248C13.3863 194.576 11.165 214.072 9.85205 225.797C14.539 222.041 19.3022 218.392 24.2563 215.011C24.2563 214.843 24.2563 214.667 24.2563 214.492C24.2105 214.492 39.523 178.386 40.6604 165.34C52.6449 160.172 68.904 163.981 78.6289 164.577C80.8808 164.714 102.895 172.6 110.857 168.668C127.322 160.524 121.429 142.341 122.635 135.188Z" fill="#1E2046"/>
<path d="M122.635 135.379C117.903 134.776 112.3 134.265 99.033 130.54C99.033 130.54 61.6905 130.738 42.3093 136.814C22.4624 143.028 18.4473 144.234 13.3024 162.516C12.7146 166.157 5.08121 210.652 4.31787 216.98C9.41698 218.614 26.0807 214.446 31.0729 216.354C31.2027 206.988 36.0499 188.05 38.8284 175.439C39.6353 171.829 41.695 168.621 44.6422 166.386C47.5893 164.15 51.2332 163.03 54.9273 163.226C63.1408 163.653 71.3162 166.104 77.3465 167.042C85.7891 168.325 105.811 170.386 113.773 166.455C130.215 158.295 125.307 140.974 122.635 135.379Z" fill="#0096C8"/>
<path d="M0.0967225 253.559C-0.842185 251.673 5.36376 238.49 5.36376 238.49L8.41712 244.238L25.2564 226.575C25.2564 226.575 30.3937 237.91 28.5464 238.788C26.6991 239.666 0.0967225 253.559 0.0967225 253.559Z" fill="#FF937E"/>
<path d="M6.76831 203.429C10.1575 204.025 13.9055 204.628 17.1879 203.284C18.3619 202.806 19.3967 202.04 20.1971 201.057C20.9975 200.074 21.5377 198.905 21.7679 197.658C23.0885 192.155 21.6153 185.628 18.4474 181.002C16.9589 178.827 14.6307 177.743 12.6842 176.109C12.4934 175.957 12.2109 176.231 12.4094 176.392C13.9361 177.651 15.7986 178.552 17.1574 180.002C18.9424 182.077 20.2203 184.539 20.8901 187.193C21.6634 189.866 21.9479 192.656 21.7298 195.429C21.5084 197.971 20.7222 200.719 18.4779 202.193C15.0811 204.414 10.6537 203.719 6.89808 203.055C6.64618 203.009 6.53931 203.383 6.79122 203.429H6.76831Z" fill="#FFF8ED"/>
<path d="M34.5385 186.079C29.1591 180.526 25.843 173.298 25.1418 165.599C24.9586 163.431 25.1418 161.324 26.951 159.851C28.5208 158.671 30.3081 157.812 32.2104 157.324C36.0027 156.324 39.9673 156.163 43.8284 156.851C48.1232 157.589 52.3363 158.742 56.4082 160.294C56.6449 160.377 56.7517 159.996 56.5151 159.912C48.9199 157.202 40.2941 154.622 32.2485 156.912C28.9814 157.843 25.0884 159.53 24.722 163.355C24.6184 165.377 24.8113 167.403 25.2945 169.37C26.6007 175.774 29.71 181.672 34.2561 186.369C34.4317 186.545 34.7141 186.27 34.5385 186.087V186.079Z" fill="#FFF8ED"/>
<path d="M47.2097 137.469L57.5606 146.507C60.4002 148.988 63.2704 152.118 66.8352 153.553C72.8503 155.973 79.5219 151.973 81.8272 146.301C83.257 142.535 83.3593 138.393 82.1172 134.561C82.0485 134.317 81.6669 134.424 81.7432 134.66C83.6745 141.072 82.2699 148.897 76.0182 152.385C74.6804 153.166 73.1888 153.648 71.6467 153.795C70.1046 153.943 68.5488 153.753 67.0871 153.24C65.3201 152.47 63.6946 151.41 62.2781 150.103C60.7514 148.828 59.3163 147.523 57.8354 146.233L47.4922 137.195C47.3013 137.027 47.0265 137.301 47.2097 137.469Z" fill="#FFF8ED"/>
<path d="M91.4455 169.127C89.6822 166.035 87.4685 161.661 90.4073 158.516C91.9951 156.806 94.308 157.264 96.3079 157.844C98.3079 158.425 100.392 159.043 102.415 159.646C104.438 160.249 108.644 161.829 109.705 158.837C110.247 157.31 109.384 155.615 109.491 154.043C109.696 152.222 110.609 150.555 112.033 149.402C115.682 146.219 120.857 146.822 125.3 147.387C125.551 147.425 125.544 147.028 125.3 146.997C121.345 146.494 116.903 145.936 113.277 148.028C110.43 149.684 108.697 152.532 109.231 155.837C109.407 156.928 109.75 158.211 109.086 159.211C108.422 160.211 107.27 160.272 106.247 160.188C104.163 160.012 102.064 159.134 100.064 158.547C96.9415 157.623 92.2928 155.364 89.789 158.615C87.2013 161.982 89.2852 166.165 91.0943 169.302C91.1248 169.337 91.1665 169.36 91.2122 169.367C91.258 169.375 91.3048 169.366 91.3446 169.342C91.3845 169.319 91.4148 169.282 91.4305 169.238C91.4461 169.195 91.446 169.147 91.4302 169.104L91.4455 169.127Z" fill="#FFF8ED"/>
<path d="M60.7211 172.485C62.0188 174.103 63.7745 175.157 65.3012 176.546C66.8279 177.935 68.3545 180.363 67.3393 182.553C66.1867 185.027 62.9577 185.897 60.8051 187.217C58.6525 188.538 57.1182 190.706 58.1716 193.377C58.8357 195.049 60.0723 196.431 60.8738 198.019C61.344 199.011 61.6018 200.09 61.6308 201.188C61.6597 202.285 61.4591 203.377 61.0417 204.392C59.2479 209.179 54.4083 211.568 50.0878 213.652C49.8588 213.759 50.0878 214.094 50.2863 213.988C54.103 212.148 58.225 210.171 60.4998 206.392C61.5337 204.757 62.0646 202.854 62.0265 200.919C61.9425 198.95 61.0112 197.362 59.9654 195.751C58.9197 194.141 57.6754 192.232 58.4388 190.225C58.9807 188.797 60.3395 187.935 61.6143 187.172C63.7592 185.973 66.7363 184.996 67.7668 182.538C69.7438 177.805 63.3165 175.073 60.9807 172.18C60.8204 171.981 60.5456 172.263 60.7059 172.454L60.7211 172.485Z" fill="#FFF8ED"/>
<path d="M57.7896 225.833C60.5228 224.696 63.4673 224.154 66.4263 224.245C69.3854 224.336 72.2911 225.057 74.9494 226.36C80.2754 229.018 84.4475 233.529 86.682 239.047C87.9892 242.154 88.7634 245.46 88.972 248.825C88.972 249.077 89.3766 249.077 89.3613 248.825C89.0387 242.719 86.7944 236.87 82.9492 232.116C81.0285 229.793 78.6683 227.873 76.0039 226.465C73.3396 225.057 70.4235 224.189 67.4229 223.91C64.0693 223.605 60.6931 224.151 57.6064 225.497C57.3774 225.597 57.6064 225.932 57.8049 225.833H57.7896Z" fill="#FFF8ED"/>
<path d="M77.2317 193.27C75.1682 193.55 73.2502 194.489 71.7626 195.946C70.2749 197.403 69.2969 199.301 68.9737 201.359C68.6506 203.416 68.9995 205.522 69.9687 207.366C70.938 209.209 72.4758 210.69 74.3539 211.59C74.5829 211.704 74.7814 211.368 74.5524 211.254C72.7308 210.399 71.2363 208.975 70.2937 207.197C69.351 205.419 69.0113 203.383 69.3255 201.395C69.6397 199.407 70.5909 197.575 72.036 196.174C73.4811 194.774 75.342 193.88 77.3386 193.628C77.5829 193.59 77.476 193.216 77.2317 193.254V193.27Z" fill="#FFF8ED"/>
<path d="M26.1725 101.021C23.5259 98.5494 20.3556 96.7072 16.8979 95.6317C16.747 95.5748 16.5855 95.5513 16.4246 95.563C16.2356 95.6274 16.0793 95.7635 15.9894 95.9419C15.8995 96.1203 15.8831 96.3268 15.9437 96.5171C16.1024 96.8971 16.3675 97.2231 16.7071 97.456C18.1192 98.7079 19.5085 100.12 20.9207 101.372" fill="#FFC56B"/>
<path d="M20.6453 100.181L24.3399 99.9219L24.2483 99.7311C23.8437 99.0822 23.485 98.2044 23.8895 97.5861C23.9464 97.4776 24.0252 97.3821 24.1209 97.3056C24.2166 97.2291 24.3272 97.1733 24.4456 97.1417C24.564 97.1101 24.6876 97.1035 24.8087 97.1222C24.9298 97.1408 25.0457 97.1844 25.149 97.2502C26.0192 97.838 31.0191 100.922 31.1336 104.448C31.1336 104.448 55.217 110.624 57.8505 110.96C60.484 111.296 70.3082 103.189 70.3082 103.189L82.659 112.944C82.659 112.944 63.171 126.127 60.3161 126.066C57.5833 125.998 27.6986 113.181 25.2483 112.128C23.1033 112.57 21.0499 111.723 19.1797 110.128C18.4311 109.483 17.9236 108.603 17.7405 107.632C17.5575 106.662 17.7096 105.657 18.1721 104.784L20.6453 100.181Z" fill="#FFC56B"/>
<path d="M77.1029 93.3641C69.9428 100.776 59.5461 111.173 57.8668 110.959C57.4546 110.906 56.5157 110.707 55.2256 110.417C54.3096 115.486 53.5463 120.585 52.8135 125.684C57.3935 127.669 60.9812 129.119 61.798 129.142C64.6452 129.21 85.9806 110.89 85.9806 110.89L93.5682 84.8757C87.0569 85.6543 81.6524 88.6466 77.1029 93.3641Z" fill="#FF937E"/>
<path d="M20.8901 101.371C20.8901 101.371 26.1114 101.073 25.2641 104.837C24.4168 108.6 23.3481 111.707 23.3481 111.707C23.3481 111.707 27.9281 105.371 27.5846 103.676C27.2411 101.982 20.8901 101.371 20.8901 101.371Z" fill="#753231"/>
<path d="M98.8496 49.2815C98.4345 47.4611 98.5338 45.5611 99.1364 43.7939C99.7389 42.0267 100.821 40.4618 102.262 39.2741C107.292 35.1063 110.544 39.8237 114.437 38.4116C118.33 36.9994 117.109 35.7628 120.605 31.0759C124.101 26.389 132.948 37.3734 134.406 31.8392C135.864 26.305 141.62 41.7626 136.177 46.1671C130.734 50.5716 125.841 48.877 122.567 48.6556C119.292 48.4342 118.368 56.06 112.727 56.06C109.254 56.0905 101.071 55.8462 98.8496 49.2815Z" fill="#3F468E"/>
<path d="M81.148 62.4865C79.9114 61.0667 79.5145 56.0897 80.3847 54.4027C82.6747 49.8227 85.896 47.5327 90.957 46.5174C94.8653 45.7541 116.628 50.9219 101.163 72.4023" fill="#3F468E"/>
<path d="M80.5527 66.1741C78.6902 56.2506 85.3465 53.5942 87.1098 53.0523C88.5907 52.6019 93.4684 50.4874 98.7431 61.6245C98.7684 61.6774 98.8039 61.7248 98.8476 61.7638C98.8913 61.8029 98.9424 61.8328 98.9978 61.852C99.0531 61.8712 99.1118 61.8792 99.1703 61.8755C99.2288 61.8718 99.286 61.8566 99.3385 61.8307C100.262 61.3498 102.293 60.0673 103.835 62.3268C105.377 64.5863 103.758 67.1817 102.392 67.9755C102.003 68.2045 101.109 68.7389 100.987 69.2045C100.934 69.4106 100.606 69.7083 100.102 70.0595L107.01 82.3187C87.3007 101.906 91.6212 84.1583 91.6212 84.1583L90.5754 74.8074C90.2472 74.9448 88.8808 75.7082 88.8655 75.7158C86.3083 76.3494 82.568 76.9142 80.5527 66.1741Z" fill="#FFC56B"/>
<path d="M103.056 63.0227C103.056 63.0227 100.003 60.6946 100.293 65.7479L103.056 63.0227Z" fill="#DB8F42"/>
<path d="M90.6367 65.1584C90.2029 65.3676 89.841 65.7006 89.5965 66.1155C89.352 66.5303 89.236 67.0084 89.2632 67.4891C89.2903 67.9699 89.4594 68.4318 89.749 68.8165C90.0387 69.2012 90.4359 69.4913 90.8904 69.6503C91.3449 69.8093 91.8364 69.8299 92.3026 69.7097C92.7689 69.5894 93.189 69.3335 93.5099 68.9745C93.8308 68.6155 94.038 68.1694 94.1054 67.6926C94.1728 67.2158 94.0973 66.7297 93.8885 66.2958C93.7498 66.0075 93.5556 65.7494 93.317 65.5362C93.0785 65.323 92.8003 65.1589 92.4983 65.0533C92.1963 64.9477 91.8764 64.9026 91.557 64.9206C91.2376 64.9387 90.9249 65.0195 90.6367 65.1584Z" fill="#FFA64D"/>
<path d="M81.7128 70.654C82.1924 70.326 82.5508 69.8494 82.7329 69.2977C82.915 68.746 82.9106 68.1497 82.7204 67.6007C82.5266 67.1876 82.2308 66.8307 81.8608 66.5636C81.4909 66.2965 81.059 66.128 80.606 66.074C80.7748 67.6422 81.1468 69.1818 81.7128 70.654Z" fill="#FFA64D"/>
<path d="M85.2317 68.2725H84.0485C83.9894 68.2755 83.9305 68.2631 83.8775 68.2365C83.8246 68.21 83.7794 68.1702 83.7464 68.121C83.7133 68.0718 83.6936 68.015 83.689 67.9559C83.6844 67.8969 83.6952 67.8376 83.7203 67.784L84.4836 65.6008" fill="#DB8F42"/>
<path d="M87.9498 61.2282C88.4384 61.4801 87.5605 60.1671 86.9193 60.0832C86.6371 60.0292 86.3449 60.0887 86.1063 60.2487C85.8676 60.4088 85.7017 60.6565 85.6445 60.9381C86.4232 60.7615 87.2392 60.8641 87.9498 61.2282Z" fill="#183350"/>
<path d="M81.1407 63.6556C80.7362 64.0296 81.2323 62.5259 81.8277 62.2816C82.0851 62.1536 82.3826 62.1324 82.6556 62.2224C82.9285 62.3125 83.155 62.5065 83.2857 62.7625C82.4884 62.8007 81.7296 63.1167 81.1407 63.6556Z" fill="#183350"/>
<path d="M86.5679 65.51C86.6061 65.9909 86.4534 66.3955 86.2244 66.4107C85.9954 66.426 85.7664 66.0596 85.7282 65.5863C85.6901 65.113 85.8351 64.7085 86.0718 64.6856C86.3084 64.6627 86.5221 65.0367 86.5679 65.51Z" fill="#183350"/>
<path d="M83.5377 65.7631C83.5835 66.2211 83.4308 66.6027 83.2171 66.6256C83.0033 66.6485 82.782 66.2898 82.7362 65.8623C82.6904 65.4348 82.843 65.0226 83.0644 65.0074C83.2858 64.9921 83.4995 65.3127 83.5377 65.7631Z" fill="#183350"/>
<path d="M88.659 68.3647L82.8652 69.1281C82.8652 69.1281 84.3919 71.4639 85.743 71.1586C87.0941 70.8532 88.659 68.3647 88.659 68.3647Z" fill="#FFF8ED"/>
<path d="M82.9419 52.7624C84.5527 55.3671 86.5529 57.7097 88.873 59.7088C90.4608 61.0065 95.9492 64.8308 99.5598 61.9988C103.17 59.1668 94.934 42.6634 82.9419 52.7624Z" fill="#3F468E"/>
<path d="M106.766 96.1495C117.125 94.2793 130.391 89.2794 135.933 84.3025C142.391 78.4591 147.091 70.9304 149.505 62.5626L157.704 34.777C157.704 34.777 165.291 18.9148 164.711 18.4339C163.757 17.6324 161.589 21.6934 160.643 23.6017C160.639 23.6113 160.633 23.6199 160.625 23.6272C160.618 23.6344 160.609 23.6402 160.6 23.6441C160.59 23.648 160.58 23.6499 160.57 23.6499C160.559 23.6498 160.549 23.6477 160.54 23.6437C160.53 23.6397 160.521 23.6339 160.514 23.6265C160.507 23.6192 160.501 23.6105 160.497 23.6009C160.493 23.5913 160.491 23.5811 160.491 23.5707C160.491 23.5604 160.494 23.5502 160.498 23.5407L162.444 17.1439C163.093 15.434 162.009 15.7317 161.894 15.9989L158.353 23.159C158.342 23.174 158.327 23.1852 158.31 23.1909C158.292 23.1965 158.273 23.1963 158.256 23.1902C158.239 23.1842 158.224 23.1726 158.214 23.1573C158.204 23.142 158.199 23.1239 158.2 23.1056L160.116 14.5714C160.345 13.0447 159.284 13.6936 159.192 13.9226L155.963 21.9376C155.96 21.9477 155.955 21.957 155.949 21.9651C155.942 21.9732 155.934 21.98 155.925 21.9849C155.916 21.9899 155.905 21.993 155.895 21.994C155.885 21.9951 155.874 21.9941 155.864 21.9911C155.854 21.9881 155.845 21.9831 155.837 21.9765C155.829 21.9699 155.822 21.9617 155.817 21.9525C155.812 21.9433 155.809 21.9332 155.808 21.9228C155.807 21.9124 155.808 21.9019 155.811 21.8918C156.284 19.9377 157.398 16.0065 157.147 14.4875C156.971 13.3882 156.475 14.1287 156.299 14.3272C155.482 15.2432 151.757 27.0673 151.757 27.0673C151.757 27.0673 149.414 20.8766 148.704 21.9605C148.223 22.6552 149.62 26.1665 149.765 29.7161C149.857 32.0061 150.528 32.2275 149.765 34.3953L137.765 61.7534C136.831 63.9491 135.541 65.9761 133.949 67.7533C130.46 71.57 124.025 76.5088 113.285 78.3561L106.766 96.1495Z" fill="#FFC56B"/>
<path d="M139.269 58.2271L137.742 61.7766C136.808 63.9723 135.518 65.9993 133.926 67.7764C130.437 71.5931 124.002 76.5319 113.262 78.3792L106.827 96.1497C117.186 94.2796 133.201 92.5621 138.75 87.608C143.13 83.6702 146.709 78.9246 149.292 73.6312C145.923 68.5016 142.582 63.3669 139.269 58.2271Z" fill="#FF937E"/>
<path d="M90.9879 85.2502C90.3695 85.8456 87.2933 102.677 87.1712 108.341C87.0261 113.486 91.8733 121.837 93.7282 131.134C93.7282 131.134 113.575 140.295 122.842 135.959C123.376 128.005 121.75 93.5553 116.453 80.3877C116.453 80.3877 111.72 81.1052 109.064 81.2884C109.026 81.2884 93.2855 94.4331 90.9879 85.2502Z" fill="#FFC56B"/>
<path d="M91.621 84.1573C91.3996 84.3634 89.2775 85.4932 88.644 85.8519C87.4226 90.1037 84.3311 104.645 84.2319 108.317C84.0868 113.462 88.102 127.004 89.0485 131.897C89.0485 131.897 98.5139 129.981 127.979 133.255C129.742 122.37 124.162 90.0732 118.88 76.8979C118.88 76.8979 108.72 79.333 106.414 80.6688C106.445 80.6688 91.766 121.301 91.621 84.1573Z" fill="#FF937E"/>
<g style="mix-blend-mode:multiply" opacity="0.5">
<g style="mix-blend-mode:multiply" opacity="0.5">
<path d="M123.765 93.7991C117.28 106.863 109.818 119.42 101.445 131.363C107.514 131.462 116.14 131.935 128.01 133.256C129.216 125.806 126.987 108.31 123.765 93.7991Z" fill="#FF937E"/>
</g>
</g>
<path d="M305.242 275.558L304.165 295.191L283.494 296.985L292.731 287.993L290.303 275.352L305.242 275.558Z" fill="#FF937E"/>
<path d="M302.585 276.023L301.486 293.733L304.745 288.29L304.967 276.924L302.585 276.023Z" fill="#E0603D"/>
<path d="M287.235 292.267L282.517 296.534C282.006 296.931 282.372 297.595 283.105 297.603C283.105 297.603 307.532 297.473 307.532 297.145C307.73 295.107 305.326 287.985 304.975 286.092C304.921 285.824 292.708 296.656 291.006 296.015C289.868 295.633 287.578 292.023 287.235 292.267Z" fill="#8CD1B5"/>
<path d="M357.653 275.459L361.034 295.29L337.943 296.985L348.401 287.512L344.752 276.81L357.653 275.459Z" fill="#FF937E"/>
<path d="M352.286 275.596L359.095 287.512L360.82 288.207L358.385 274.848L352.286 275.596Z" fill="#E0603D"/>
<path d="M341.493 292.268L336.775 296.535C336.264 296.932 336.63 297.596 337.363 297.603C337.363 297.603 362.553 297.474 362.607 297.145C362.805 295.107 361.08 287.626 360.744 285.772C360.691 285.504 346.966 296.657 345.271 296.046C344.126 295.634 341.836 292.023 341.493 292.268Z" fill="#8CD1B5"/>
<path d="M328.92 42.854C328.92 42.854 327.729 56.9071 338.157 65.9832C346.614 73.3494 335.149 82.6469 335.149 82.6469C335.149 82.6469 336.729 89.0208 333.691 90.639C319.516 98.2037 302.562 84.3644 299.753 67.2045C292.57 67.8686 295.661 58.1666 299.753 51.4568L328.92 42.854Z" fill="#FF616B"/>
<path d="M248.182 52.5014C248.617 51.738 251.381 55.1654 251.007 54.0891C250.632 53.0128 247.724 48.8374 248.449 48.3336C249.052 47.9137 251.816 53.0281 252.434 52.8373C253.052 52.6464 249.144 47.2038 249.541 46.7305C250.648 45.3413 253.9 52.2418 254.884 51.7991C254.816 51.9594 251.465 46.1657 252.701 45.868C253.274 45.7306 255.922 50.0205 258.335 54.1655C258.371 54.231 258.427 54.2831 258.496 54.3142C258.564 54.3454 258.64 54.3539 258.713 54.3386C258.787 54.3232 258.853 54.2848 258.903 54.2289C258.953 54.173 258.984 54.1027 258.991 54.0281C259.243 52.0128 259.533 49.7915 260.48 50.7304C263.105 59.3027 262.571 61.6767 262.571 61.6767H262.533L277.945 88.7371C278.471 89.6149 279.762 90.2027 280.487 89.4317C282.823 86.9509 299.288 69.5849 299.043 70.4093C298.669 71.6383 297.837 93.4164 296.982 92.8133C289.349 107.378 275.952 106.553 275.952 106.553C265.571 101.263 255.525 64.4553 255.525 64.4553H255.571C253.93 62.7912 247.823 53.2342 248.182 52.5014Z" fill="#FF937E"/>
<path d="M255.533 64.4486C256.432 68.1413 257.132 71.8794 257.632 75.6468C261.27 73.3491 264.694 70.7279 267.861 67.8149L262.518 61.7082H262.556C262.556 61.7082 263.09 59.3342 260.464 50.7619C259.518 49.823 259.228 52.0443 258.976 54.0596C258.969 54.1342 258.938 54.2045 258.888 54.2604C258.838 54.3163 258.771 54.3547 258.698 54.37C258.625 54.3854 258.548 54.3769 258.48 54.3457C258.412 54.3146 258.356 54.2625 258.319 54.197C255.907 50.052 253.258 45.7621 252.686 45.8995C251.449 46.1972 254.8 52.0062 254.869 51.8306C253.877 52.2733 250.625 45.3727 249.526 46.762C249.129 47.2582 253.037 52.7084 252.419 52.8687C251.8 53.029 249.037 47.9452 248.434 48.365C247.709 48.8688 250.625 53.0367 250.991 54.1206C251.358 55.2046 248.602 51.7314 248.167 52.5329C247.732 53.3344 253.922 62.8227 255.564 64.4562L255.533 64.4486Z" fill="#FFC56B"/>
<path d="M300.066 69.5248C300.066 69.5248 298.188 66.1127 294.31 69.4026C290.432 72.6926 279.975 88.5548 279.975 88.5548L290.196 106.417L300.066 69.5248Z" fill="#FFC56B"/>
<g style="mix-blend-mode:multiply">
<path d="M276.258 106.592L298.097 70.3794C298.097 70.3794 297.685 88.8293 296.662 92.3407C292.86 105.47 276.258 106.592 276.258 106.592Z" fill="#FFF8ED"/>
</g>
<path d="M258.915 46.0519H253.93C253.573 46.0516 253.221 45.9703 252.9 45.8141C252.579 45.6579 252.297 45.4308 252.077 45.1501C251.856 44.8693 251.703 44.5421 251.627 44.1933C251.551 43.8444 251.556 43.4829 251.64 43.136L254.487 31.5103C254.589 31.0762 254.834 30.6892 255.183 30.4121C255.532 30.135 255.965 29.984 256.411 29.9836C256.857 29.984 257.289 30.135 257.638 30.4121C257.988 30.6892 258.233 31.0762 258.334 31.5103L261.205 43.1741C261.282 43.5184 261.282 43.8758 261.203 44.2198C261.124 44.5638 260.969 44.8858 260.749 45.1619C260.53 45.4381 260.251 45.6614 259.933 45.8155C259.616 45.9695 259.268 46.0503 258.915 46.0519Z" fill="#FFC56B"/>
<path d="M256.693 38.2893V54.7316" stroke="#020C2B" stroke-width="0.77" stroke-miterlimit="10" stroke-linecap="round"/>
<path d="M256.869 59.4951C255.464 59.4951 254.358 58.5867 254.441 57.5104L255.579 48.9229H258.167L259.273 57.5104C259.388 58.5867 258.273 59.4951 256.869 59.4951Z" fill="#020C2B" stroke="#020C2B" stroke-width="0.66" stroke-miterlimit="10"/>
<path d="M307.158 65.0983L300.402 42.4118C300.211 37.0226 300.959 34.4807 302.181 33.1601C305.524 29.5495 308.043 28.5801 312.646 29.3969C333.073 33.1296 331.63 46.1293 323.257 52.2971C318.448 55.8008 307.158 65.0983 307.158 65.0983Z" fill="#FF616B"/>
<path d="M316.775 46.1593C316.784 46.2123 316.804 46.2628 316.834 46.3075C316.863 46.3521 316.902 46.3898 316.948 46.4181C316.993 46.4463 317.045 46.4644 317.098 46.4711C317.151 46.4778 317.205 46.473 317.256 46.457C318.165 46.167 320.394 45.7471 321.294 48.1669C322.195 50.5867 319.256 53.6629 317.623 52.6401C317.264 52.4187 316.905 53.0981 316.707 53.4874C314.88 57.2752 313.548 61.2827 312.745 65.4107C311.982 69.1053 313.05 73.9143 313.05 73.9143C313.05 73.9143 303.89 72.9678 298.951 71.1892C298.951 71.1892 302.554 59.6246 303.844 56.3194C302.448 55.6324 296.249 55.9759 298.005 45.4265C299.608 35.7779 304.875 34.6024 306.554 34.4039C307.951 34.2283 314.348 34.6329 316.775 46.1593Z" fill="#FF937E"/>
<path d="M306.295 57.1813C306.063 57.4079 305.774 57.5682 305.458 57.6459C305.143 57.7236 304.813 57.7157 304.502 57.6231C304.191 57.5306 303.91 57.3566 303.688 57.1193C303.467 56.8819 303.313 56.5898 303.242 56.2729H307.242L306.287 57.1813" fill="#1E2046"/>
<path d="M317.233 49.5169C318.287 46.0971 320.615 48.6238 320.615 48.6238L317.233 49.5169Z" fill="#D86859"/>
<path d="M307.646 46.6166C307.143 46.6002 306.646 46.7334 306.219 46.9995C305.792 47.2656 305.453 47.6525 305.246 48.1112C305.039 48.5699 304.973 49.0798 305.056 49.5762C305.139 50.0726 305.367 50.5332 305.712 50.8996C306.057 51.2661 306.503 51.5218 306.994 51.6345C307.484 51.7472 307.997 51.7118 308.468 51.5327C308.938 51.3535 309.345 51.0388 309.636 50.6284C309.927 50.218 310.09 49.7303 310.104 49.2272C310.122 48.5555 309.874 47.9039 309.414 47.4147C308.953 46.9255 308.317 46.6385 307.646 46.6166Z" fill="#FF8169"/>
<path d="M297.745 49.1965C298.32 49.0966 298.843 48.8012 299.226 48.3604C299.608 47.9195 299.827 47.3601 299.845 46.7767C299.845 45.8302 299.013 45.0134 298.257 44.5554C298.257 44.5554 297.326 47.3187 297.745 49.1965Z" fill="#FF8169"/>
<path d="M299.311 47.7544L303.509 48.7773C303.509 48.7773 301.982 50.533 300.807 50.0291C299.631 49.5253 299.311 47.7544 299.311 47.7544Z" fill="white"/>
<path d="M306.852 42.8997C307.257 43.3119 306.814 41.7241 306.211 41.4417C305.608 41.1593 304.684 41.0142 304.562 41.5562C304.44 42.0982 305.883 41.915 306.852 42.8997Z" fill="black"/>
<path d="M299.059 40.9758C298.532 41.22 299.517 39.8918 300.181 39.846C300.845 39.8002 301.707 40.0521 301.471 40.7849C301.257 41.3651 300.318 40.4033 299.059 40.9758Z" fill="black"/>
<path d="M304.448 45.3801C304.333 45.8686 304.051 46.2121 303.822 46.1434C303.593 46.0747 303.486 45.6549 303.593 45.1664C303.7 44.6778 303.99 44.3343 304.226 44.403C304.463 44.4717 304.562 44.8916 304.448 45.3801Z" fill="black"/>
<path d="M300.669 44.541C300.562 45.0066 300.295 45.3043 300.066 45.3043C299.837 45.3043 299.746 44.831 299.853 44.3654C299.959 43.8998 300.234 43.6021 300.456 43.6021C300.677 43.6021 300.776 44.0753 300.669 44.541Z" fill="black"/>
<path d="M322.737 38.9538C324.34 41.1293 317.394 34.244 316.409 35.2592C318.142 35.6943 317.402 42.343 317.402 42.343C312.226 44.4499 312.738 36.9157 312.898 35.9997C301.036 44.5796 301.776 33.7631 303.074 30.2594C305.494 23.6947 316.89 26.0992 322.287 31.1448C324.34 33.0685 320.829 36.3737 322.737 38.9538Z" fill="#FF616B"/>
<path d="M301.509 46.9904L299.937 46.6546C300.5 45.8697 301.115 45.1225 301.776 44.418L301.509 46.9904Z" fill="#D86859"/>
<path d="M320.562 67.6028C317.768 67.1542 315.026 66.4253 312.379 65.4272C312.211 65.7707 306.119 70.7706 302.722 69.7783C301.959 69.5893 301.287 69.136 300.826 68.4988C300.365 67.8617 300.144 67.0818 300.203 66.2975C300.455 66.9539 289.516 80.2131 288.234 86.5718C287.028 92.5869 290.272 111.472 290.272 113.831H320.806C320.806 113.831 323.226 75.6789 320.562 67.6028Z" fill="#FFC56B"/>
<g style="mix-blend-mode:multiply">
<path d="M326.447 75.502L296.249 114.661L319.806 115.112C319.806 115.112 326.63 83.7308 326.447 75.502Z" fill="#FFF8ED"/>
</g>
<path d="M337.439 100.822C346.691 97.5549 356.683 97.8526 362.958 96.2419C367.469 93.0588 366.98 93.6924 370.53 91.6085C370.53 91.6085 374.347 89.0665 373.995 90.8069C373.934 91.1657 369.919 95.2496 370.301 95.219C370.683 95.1885 381.232 94.0359 381.346 95.0282C381.461 96.0206 374.782 96.0587 374.843 96.5549C374.904 97.0511 381.614 96.1809 381.972 96.99C382.331 97.7991 375.461 98.5167 375.759 98.822C376.056 99.1273 382.239 98.135 382.446 98.822C382.652 99.509 375.934 100.349 375.85 100.677C375.766 101.005 381.957 100.02 382.537 100.677C382.98 101.143 377.049 102.02 375.331 102.746C371.763 104.263 368.076 105.486 364.309 106.402C361.751 108.005 335.699 118.776 324.386 116.516C324.386 116.516 322.478 113.73 321.607 106.417L337.439 100.822Z" fill="#FF937E"/>
<path d="M382.537 100.645C381.942 100.019 375.759 101.019 375.851 100.645C375.942 100.271 382.652 99.4394 382.446 98.7905C382.24 98.1417 376.049 99.134 375.759 98.7905C375.469 98.447 382.324 97.7676 381.973 96.9585C381.621 96.1494 374.896 97.0196 374.843 96.5234C374.79 96.0272 381.469 95.9891 381.347 94.9967C381.225 94.0044 370.66 95.157 370.301 95.1876C369.942 95.2181 373.935 91.1342 373.996 90.7755C374.309 89.035 370.53 91.577 370.53 91.577C366.981 93.6609 367.477 93.0273 362.958 96.2104C361.385 96.6074 358.988 95.3784 357.019 95.6227C357.401 99.4852 357.966 106.76 358.584 110.592C361.263 109.5 363.706 106.683 364.309 106.309C368.065 105.412 371.741 104.209 375.301 102.714C377.049 101.989 382.98 101.111 382.537 100.645Z" fill="#FFC56B"/>
<path d="M338.485 100.906L320.997 107.432C320.997 107.432 306.234 70.479 317.677 67.6547C329.119 64.8303 338.485 100.906 338.485 100.906Z" fill="#FFC56B"/>
<path d="M286.99 76.3401C287.317 78.3677 288.131 80.2854 289.364 81.9278C290.288 83.1568 291.532 84.3247 293.181 83.7827C293.96 83.4679 294.666 82.9978 295.257 82.401C296.15 81.6377 297.021 80.7751 297.875 79.9431C298.73 79.1111 299.402 78.4164 300.165 77.6531C300.911 76.7651 301.753 75.9637 302.677 75.2638C304.807 73.9051 307.333 75.1188 308.99 76.6455C310.516 78.0348 311.654 79.7752 313.295 81.027C313.947 81.5912 314.712 82.0108 315.538 82.2581C316.364 82.5055 317.234 82.575 318.089 82.4621C319.737 82.1339 320.921 80.8744 321.852 79.5538C324.264 76.1188 326.325 71.7983 330.89 70.9586C331.264 70.8899 331.104 70.3174 330.73 70.3861C327.447 70.9891 325.134 73.5463 323.325 76.1798C322.318 77.6531 321.516 79.3172 320.272 80.5843C318.623 82.2178 316.455 82.2636 314.509 81.1186C311.249 79.2027 309.7 74.9509 305.723 74.1722C304.978 74.0287 304.209 74.0669 303.483 74.2835C302.756 74.5001 302.092 74.8887 301.547 75.4165C300.02 76.7829 298.7 78.363 297.234 79.7828C296.349 80.6301 295.471 81.4927 294.532 82.2865C293.303 83.3247 291.975 83.7674 290.715 82.5232C289.058 80.7839 287.99 78.5674 287.662 76.1875C287.593 75.8134 287.021 75.9737 287.089 76.3478L286.99 76.3401Z" fill="#1E2046"/>
<path d="M281.983 82.3392C282.945 84.8612 284.104 87.3038 285.448 89.6443C286.616 91.824 288.058 93.8455 289.738 95.6594C290.468 96.4739 291.353 97.134 292.341 97.6007C293.33 98.0675 294.402 98.3314 295.494 98.3769C297.906 98.3769 300.074 97.1251 301.96 95.6976C302.833 94.926 303.812 94.2834 304.868 93.7893C305.59 93.5476 306.356 93.4682 307.112 93.5566C307.868 93.645 308.595 93.8991 309.242 94.3007C311.471 95.522 312.99 97.606 314.921 99.2166C316.547 100.568 318.471 101.56 320.646 101.239C322.936 100.904 324.905 99.3769 326.57 97.8579C327.631 96.8887 328.613 95.8371 329.508 94.7129C330.336 93.4801 331.252 92.3091 332.249 91.2092C334.539 89.0566 337.76 89.3772 340.646 89.7359C341.027 89.7817 341.02 89.1863 340.646 89.1405C338.417 88.8657 336.004 88.5986 333.867 89.4764C331.73 90.3542 330.646 92.316 329.287 94.0564C327.679 96.2307 325.69 98.0954 323.417 99.5601C322.352 100.288 321.087 100.669 319.797 100.649C318.507 100.63 317.254 100.212 316.211 99.4532C312.944 97.1632 309.982 91.8962 305.288 93.0412C303.089 93.5755 301.471 95.5373 299.563 96.5984C297.158 97.9189 294.448 98.2472 292.044 96.7587C289.639 95.2701 288.021 92.7282 286.586 90.3771C285.003 87.7735 283.66 85.0321 282.571 82.1865C282.433 81.8277 281.861 81.9804 281.998 82.3392H281.983Z" fill="#1E2046"/>
<path d="M320.562 114.318C321.951 114.631 329.317 123.799 332.325 138.524C333.409 143.867 337.378 165.172 344.538 189.309C354.645 223.521 361.331 263.917 362.171 277.505C358.469 278.474 347.057 279.092 344.714 278.947C339.24 261.444 316.47 194.163 306.417 161.286C306.322 160.936 306.101 160.632 305.795 160.436C305.49 160.239 305.122 160.163 304.764 160.222C304.406 160.281 304.082 160.471 303.855 160.755C303.629 161.039 303.516 161.397 303.539 161.76C303.218 196.27 307.165 270.039 305.562 279.039C303.615 280.108 290.257 279.612 288.005 279.306C285.57 250.773 266.632 130.692 291.203 113.081C303.478 112.822 311.898 112.356 320.562 114.318Z" fill="#8064A2"/>
<path d="M292.86 113.34C292.86 113.34 288.715 114.439 283.395 135.927C277.067 161.492 289.807 279.489 289.807 279.489" stroke="white" stroke-width="0.48" stroke-miterlimit="10"/>
<path d="M317.882 113.05C317.882 113.05 322.31 123.981 339.645 188.819C345.752 211.72 352.324 239.047 360.881 277.955" stroke="white" stroke-width="0.48" stroke-miterlimit="10"/>
<path d="M287.082 279.847C286.898 279.664 286.356 272.29 286.356 272.29L306.883 273.183L305.982 280.206L287.082 279.847Z" fill="#B5E8D3"/>
<path d="M342.164 273.008L344.324 279.665L362.866 278.23L362.507 271.024L342.164 273.008Z" fill="#B5E8D3"/>
<g style="mix-blend-mode:multiply" opacity="0.28">
<path d="M291.204 112.776L331.241 135.18C331.241 135.18 329.715 123.432 319.264 112.761L291.204 112.776Z" fill="#8CD1B5"/>
</g>
<path d="M288.845 116.624H321.417V112.005H288.845V116.624Z" fill="#8CD1B5"/>
<path d="M228.427 85.9904C225.96 83.5034 224.096 80.4836 222.979 77.1633C221.862 73.843 221.522 70.3107 221.984 66.8382C222.977 66.6855 223.847 67.4641 224.534 68.2046C226.88 70.5679 228.769 73.3448 230.106 76.3952C231.441 79.4786 231.577 82.9493 230.488 86.1278" fill="#8CD1B5"/>
<path d="M228.893 86.0516C227.073 83.8759 224.807 82.1167 222.248 80.8932C219.689 79.6697 216.897 79.0105 214.061 78.9602C215.475 81.693 217.67 83.9436 220.366 85.4257C221.715 86.1515 223.202 86.5827 224.73 86.6906C226.258 86.7985 227.791 86.5807 229.229 86.0516" fill="#8CD1B5"/>
<path d="M241.037 87.1895C240.321 82.943 240.417 78.5991 241.32 74.3883C242.235 70.1593 244.412 66.3077 247.564 63.3428C247.691 63.1921 247.85 63.0716 248.03 62.9897C248.209 62.9079 248.405 62.8668 248.602 62.8695C249.75 67.7295 249.645 72.8013 248.297 77.6096C247.327 81.0293 245.617 84.4109 242.678 86.4033" fill="#8CD1B5"/>
<path d="M256.014 83.3497C255.381 86.137 255.61 89.051 256.67 91.7052C257.731 94.3595 259.573 96.6287 261.953 98.212C262.958 96.9658 263.611 95.4728 263.843 93.8886C264.076 92.3044 263.879 90.6869 263.273 89.2046C262.642 87.7336 261.723 86.4035 260.571 85.292C259.418 84.1806 258.056 83.3101 256.564 82.7314" fill="#8CD1B5"/>
<path d="M235.648 70.1287C230.77 67.1517 226.236 63.419 223.106 58.6328C219.976 53.8467 218.343 47.9461 219.465 42.2974C226.967 46.0838 232.712 52.6275 235.495 60.5564C236.518 63.5258 237.068 66.938 235.594 69.7165" fill="#8CD1B5"/>
<path d="M243.923 86.3339C246.213 83.7156 249.266 80.4485 253.083 81.647C257.075 82.8912 258.625 87.227 259.678 90.807C259.721 90.9292 259.808 91.0306 259.922 91.0909C260.037 91.1513 260.17 91.166 260.295 91.1321C260.42 91.0982 260.527 91.0183 260.595 90.9084C260.664 90.7985 260.688 90.6668 260.663 90.5399C259.495 86.54 257.731 81.9828 253.358 80.6165C249.129 79.2959 245.724 82.6469 243.175 85.5629C242.747 86.0591 243.465 86.7842 243.9 86.2881L243.923 86.3339Z" fill="#5BC29C"/>
<path d="M235.61 85.9972C239.495 73.9212 233.472 61.9291 227.938 51.4714C227.625 50.8912 226.747 51.4027 227.053 51.9828C232.457 62.2039 238.419 73.9212 234.625 85.73C234.419 86.356 235.388 86.6231 235.61 85.9972Z" fill="#5BC29C"/>
<path d="M243.472 119.509H230.32C228.765 119.51 227.226 119.205 225.79 118.611C224.353 118.017 223.048 117.145 221.949 116.046C220.849 114.948 219.977 113.643 219.382 112.207C218.787 110.771 218.48 109.232 218.48 107.677L224.053 85.3345H248.854L255.312 107.677C255.312 109.232 255.005 110.771 254.41 112.207C253.815 113.643 252.943 114.948 251.843 116.046C250.744 117.145 249.439 118.017 248.002 118.611C246.566 119.205 245.027 119.51 243.472 119.509Z" fill="#0096C8"/>
<path d="M227.595 91.4641C227.771 91.4458 227.935 91.3627 228.054 91.2309C228.173 91.0991 228.238 90.9278 228.238 90.7503C228.238 90.5728 228.173 90.4016 228.054 90.2698C227.935 90.138 227.771 90.0549 227.595 90.0366C227.418 90.0549 227.255 90.138 227.136 90.2698C227.017 90.4016 226.951 90.5728 226.951 90.7503C226.951 90.9278 227.017 91.0991 227.136 91.2309C227.255 91.3627 227.418 91.4458 227.595 91.4641Z" fill="#FCFCFC"/>
<path d="M236.197 98.5471C236.374 98.5288 236.537 98.4457 236.656 98.3139C236.775 98.1821 236.841 98.0109 236.841 97.8333C236.841 97.6558 236.775 97.4846 236.656 97.3528C236.537 97.221 236.374 97.1379 236.197 97.1196C236.021 97.1379 235.857 97.221 235.738 97.3528C235.62 97.4846 235.554 97.6558 235.554 97.8333C235.554 98.0109 235.62 98.1821 235.738 98.3139C235.857 98.4457 236.021 98.5288 236.197 98.5471Z" fill="#FCFCFC"/>
<path d="M225.313 106.906C225.489 106.887 225.653 106.804 225.772 106.673C225.89 106.541 225.956 106.369 225.956 106.192C225.956 106.014 225.89 105.843 225.772 105.711C225.653 105.58 225.489 105.497 225.313 105.478C225.136 105.497 224.972 105.58 224.854 105.711C224.735 105.843 224.669 106.014 224.669 106.192C224.669 106.369 224.735 106.541 224.854 106.673C224.972 106.804 225.136 106.887 225.313 106.906Z" fill="#FCFCFC"/>
<path d="M246.831 91.4641C247.008 91.4458 247.171 91.3627 247.29 91.2309C247.409 91.0991 247.475 90.9278 247.475 90.7503C247.475 90.5728 247.409 90.4016 247.29 90.2698C247.171 90.138 247.008 90.0549 246.831 90.0366C246.655 90.0549 246.491 90.138 246.372 90.2698C246.253 90.4016 246.188 90.5728 246.188 90.7503C246.188 90.9278 246.253 91.0991 246.372 91.2309C246.491 91.3627 246.655 91.4458 246.831 91.4641Z" fill="#FCFCFC"/>
<path d="M249.35 106.395C249.526 106.377 249.69 106.294 249.809 106.162C249.928 106.03 249.993 105.859 249.993 105.681C249.993 105.504 249.928 105.333 249.809 105.201C249.69 105.069 249.526 104.986 249.35 104.968C249.173 104.986 249.01 105.069 248.891 105.201C248.772 105.333 248.706 105.504 248.706 105.681C248.706 105.859 248.772 106.03 248.891 106.162C249.01 106.294 249.173 106.377 249.35 106.395Z" fill="#FCFCFC"/>
<path d="M237.465 116.02C237.641 116.002 237.805 115.919 237.924 115.787C238.043 115.655 238.109 115.484 238.109 115.307C238.109 115.129 238.043 114.958 237.924 114.826C237.805 114.694 237.641 114.611 237.465 114.593C237.288 114.611 237.125 114.694 237.006 114.826C236.887 114.958 236.821 115.129 236.821 115.307C236.821 115.484 236.887 115.655 237.006 115.787C237.125 115.919 237.288 116.002 237.465 116.02Z" fill="#FCFCFC"/>
<path d="M221.42 97.8989C225.771 98.5096 228.641 102.051 230.412 105.807C232.183 109.563 233.786 114.753 230.503 118.219C230.137 118.601 230.717 119.181 231.083 118.799C234.488 115.204 233.175 110.013 231.389 105.99C229.549 101.838 226.427 97.7844 221.641 97.1126C221.122 97.0439 220.878 97.8302 221.42 97.876V97.8989Z" fill="#FCFCFC"/>
<path d="M237.358 85.9209C237.218 88.1828 237.531 90.4498 238.279 92.5888C239.028 94.7279 240.196 96.6957 241.716 98.3769C243.236 100.058 245.076 101.418 247.129 102.378C249.182 103.338 251.406 103.878 253.67 103.966C254.197 103.966 254.197 103.203 253.67 103.149C251.513 103.062 249.395 102.544 247.441 101.626C245.487 100.707 243.737 99.407 242.293 97.8013C240.85 96.1956 239.742 94.3172 239.036 92.2768C238.33 90.2364 238.04 88.0753 238.182 85.9209C238.182 85.3942 237.419 85.3942 237.358 85.9209Z" fill="#FCFCFC"/>
<path d="M264.014 119.599H209.58V126.134H264.014V119.599Z" fill="#A94846"/>
<path d="M213.939 126.134L272.731 298.152" stroke="#A94846" stroke-width="2" stroke-miterlimit="10"/>
<path d="M258.579 126.134L199.786 298.152" stroke="#A94846" stroke-width="2" stroke-miterlimit="10"/>
<path d="M551.565 277.718L550.489 297.359L529.81 299.153L539.054 290.16L536.619 277.52L551.565 277.718Z" fill="#FF937E"/>
<path d="M548.901 278.184L547.809 295.893L551.069 290.45L551.29 279.092L548.901 278.184Z" fill="#E0603D"/>
<path d="M533.55 294.435L528.84 298.702C528.321 299.099 528.687 299.763 529.42 299.771C529.42 299.771 553.847 299.641 553.847 299.313C554.045 297.275 551.641 290.115 551.29 288.26C551.244 287.993 539.023 298.824 537.321 298.183C536.191 297.801 533.893 294.168 533.55 294.435Z" fill="#45A2B9"/>
<path d="M541.123 29.8241C541.123 29.8241 539.39 35.4194 537.649 43.1291C536.932 46.3351 532.222 46.3962 530.329 51.0373C528.589 55.2738 529.169 60.0981 528.589 62.7927C526.711 71.5635 520.108 63.3728 520.49 68.7696C520.871 74.1665 568.694 105.769 585.892 74.7466C585.892 74.7466 586.465 68.9605 578.374 63.953C570.282 58.9455 570.465 60.0981 570.855 53.9227C571.244 47.7473 572.778 48.1442 566.221 40.8162C562.336 36.4728 563.527 30.9844 559.282 29.4424C555.038 27.9005 541.123 29.8241 541.123 29.8241Z" fill="#FFC56B"/>
<path d="M540.527 50.877C540.527 50.877 545.206 58.0905 543.626 70.51C543.626 70.51 546.908 97.8834 560.481 68.9834L554.832 53.9227L540.527 50.877Z" fill="#FF937E"/>
<path d="M555.977 54.1818C555.733 57.1054 552.619 62.1893 549.871 62.1282C546.55 62.0442 543.344 58.4642 543.252 53.3269C543.252 51.2964 548.68 51.1285 551.397 51.3575C554.115 51.5865 556.222 51.2659 555.977 54.1818Z" fill="#1E2046"/>
<path d="M562.084 48.5174L558.435 48.0823L558.916 44.0137L562.565 44.4488C562.833 44.4809 563.092 44.5657 563.328 44.6983C563.563 44.8308 563.77 45.0086 563.937 45.2214C564.104 45.4341 564.227 45.6777 564.299 45.9381C564.371 46.1985 564.392 46.4706 564.359 46.7388C564.292 47.2759 564.015 47.7646 563.589 48.0979C563.162 48.4313 562.621 48.5821 562.084 48.5174Z" fill="#FF937E"/>
<path d="M538.214 44.5253L541.886 44.4795L541.939 48.571L538.267 48.6244C537.724 48.6305 537.2 48.4211 536.811 48.0419C536.422 47.6628 536.199 47.1448 536.191 46.6016C536.185 46.0583 536.394 45.5347 536.774 45.1455C537.153 44.7564 537.671 44.5333 538.214 44.5253Z" fill="#FF937E"/>
<path d="M538.084 45.6182H539.611V47.3128H538.084C537.859 47.3149 537.642 47.2278 537.48 47.0705C537.319 46.9133 537.226 46.6986 537.222 46.4731C537.222 46.3602 537.244 46.2484 537.287 46.1442C537.331 46.04 537.395 45.9454 537.475 45.8659C537.555 45.7864 537.65 45.7236 537.755 45.6811C537.859 45.6386 537.971 45.6172 538.084 45.6182Z" fill="#D9634C"/>
<path d="M562.481 45.6172L560.954 45.4111L560.725 47.0828L562.252 47.2889C562.365 47.3038 562.48 47.2957 562.59 47.265C562.7 47.2343 562.802 47.1818 562.891 47.1105C562.981 47.0392 563.054 46.9507 563.108 46.8501C563.162 46.7496 563.196 46.6393 563.206 46.5256C563.226 46.3099 563.161 46.0949 563.026 45.9257C562.891 45.7564 562.695 45.6459 562.481 45.6172Z" fill="#D9634C"/>
<path d="M551.809 30.6635C558.817 31.5108 562.717 37.9153 561.862 44.9227L561.794 45.457C560.649 52.9683 554.443 59.014 548.817 58.5101C543.191 58.0063 538.13 49.3501 538.962 42.335L539.031 41.8007C539.878 34.7779 544.802 29.8162 551.809 30.6635Z" fill="#FF937E"/>
<path d="M549.763 53.0971H549.359C548.668 53.0752 548.014 52.7799 547.54 52.2762C547.066 51.7724 546.812 51.1013 546.832 50.4102L552.45 50.5781C552.44 50.92 552.361 51.2564 552.22 51.568C552.08 51.8797 551.879 52.1605 551.629 52.3945C551.379 52.6284 551.086 52.8109 550.766 52.9315C550.446 53.052 550.105 53.1083 549.763 53.0971Z" fill="white"/>
<path d="M553.488 47.2051C553.488 47.7471 553.191 48.1822 552.847 48.1746C552.504 48.167 552.229 47.7242 552.236 47.1822C552.244 46.6403 552.534 46.1975 552.878 46.2052C553.221 46.2128 553.496 46.6555 553.488 47.2051Z" fill="#1E2046"/>
<path d="M548.092 47.0901C548.092 47.6397 547.794 48.0748 547.451 48.0672C547.107 48.0595 546.832 47.6168 546.84 47.0672C546.848 46.5176 547.138 46.0901 547.481 46.0978C547.825 46.1054 548.099 46.5481 548.092 47.0901Z" fill="#1E2046"/>
<path d="M550.481 49.5331H549.252C549.099 49.5331 549 49.2888 549.061 49.0751L549.779 46.5942C549.847 46.35 550.061 46.3347 550.145 46.5942L550.641 49.0751C550.779 49.2812 550.641 49.5331 550.481 49.5331Z" fill="#D9634C"/>
<path d="M545.695 49.4878C545.651 49.1997 545.522 48.9311 545.325 48.7162C545.128 48.5013 544.872 48.3496 544.589 48.2804C544.305 48.2112 544.008 48.2276 543.734 48.3274C543.46 48.4273 543.222 48.6062 543.05 48.8415C542.878 49.0767 542.779 49.3578 542.767 49.6491C542.755 49.9403 542.829 50.2287 542.981 50.4777C543.132 50.7267 543.354 50.9251 543.619 51.0479C543.883 51.1706 544.178 51.2121 544.466 51.1672C544.85 51.1033 545.193 50.8918 545.423 50.5779C545.652 50.2641 545.75 49.8728 545.695 49.4878Z" fill="#FF7C6B"/>
<path d="M557.389 50.0442C557.366 49.8472 557.303 49.6568 557.205 49.4846C557.107 49.3123 556.974 49.1617 556.816 49.0418C556.658 48.9219 556.478 48.8351 556.285 48.7867C556.093 48.7383 555.893 48.7293 555.697 48.7601C555.501 48.791 555.313 48.8611 555.145 48.9663C554.977 49.0715 554.831 49.2096 554.718 49.3723C554.604 49.5349 554.525 49.7189 554.484 49.9131C554.443 50.1072 554.442 50.3076 554.481 50.5022C554.555 50.8755 554.771 51.2057 555.083 51.4235C555.395 51.6414 555.779 51.73 556.155 51.6707C556.531 51.6115 556.87 51.4091 557.1 51.1059C557.33 50.8027 557.433 50.4222 557.389 50.0442Z" fill="#FF7C6B"/>
<path d="M555.008 44.6239C555.473 45.0209 554.862 43.3797 554.198 43.0973C554.055 43.0306 553.9 42.9929 553.742 42.9864C553.584 42.9799 553.427 43.0046 553.278 43.0592C553.13 43.1139 552.994 43.1973 552.878 43.3047C552.762 43.4121 552.669 43.5413 552.603 43.685C553.49 43.7041 554.342 44.0367 555.008 44.6239Z" fill="#1E2046"/>
<path d="M545.328 43.5785C544.802 43.8838 545.718 42.3877 546.412 42.2732C546.722 42.197 547.049 42.2466 547.322 42.4111C547.596 42.5756 547.793 42.8417 547.87 43.151C546.999 42.9945 546.1 43.1456 545.328 43.5785Z" fill="#1E2046"/>
<path d="M538.825 44.3188C538.825 44.3188 545.695 37.5709 546.138 35.3191C546.138 35.3191 544.978 40.8151 555.97 38.3114C559.344 37.548 557.497 46.647 561.886 44.2883C561.886 44.2883 569.275 26.5941 549.672 25.9682C539.176 25.6781 537.566 34.1664 538.825 44.3188Z" fill="#FFC56B"/>
<path d="M560.221 88.4471C571.617 87.3326 586.441 83.0427 592.884 78.1649C600.417 72.4055 606.191 64.6566 609.555 55.7915L620.845 26.38C620.845 26.38 630.463 9.85369 629.875 9.27355C628.914 8.31938 626.211 12.533 625.013 14.5177C625.008 14.5277 625.001 14.5367 624.993 14.544C624.984 14.5513 624.974 14.5569 624.964 14.5605C624.953 14.564 624.942 14.5655 624.931 14.5647C624.919 14.5639 624.908 14.5609 624.898 14.5559C624.888 14.5509 624.879 14.5439 624.872 14.5354C624.865 14.527 624.859 14.5172 624.856 14.5065C624.852 14.4959 624.851 14.4847 624.851 14.4735C624.852 14.4623 624.855 14.4514 624.86 14.4414L627.532 7.67817C628.387 5.88433 627.188 6.15149 627.043 6.38813L622.532 13.8612C622.522 13.8797 622.505 13.8938 622.485 13.9005C622.465 13.9072 622.443 13.9061 622.424 13.8974C622.405 13.8887 622.389 13.8731 622.381 13.8537C622.373 13.8343 622.372 13.8124 622.379 13.7925L625.211 4.70115C625.585 3.0676 624.379 3.67828 624.265 3.93781L620.059 12.3345C620.005 12.4261 619.86 12.3345 619.891 12.2735C620.578 10.1972 622.135 6.037 621.998 4.36528C621.899 3.15157 621.295 3.91491 621.089 4.11338C620.128 5.03702 615.044 17.5329 615.044 17.5329C615.044 17.5329 613.044 10.6094 612.143 11.7162C611.563 12.4338 612.769 16.365 612.616 20.2198C612.517 22.7007 613.242 23.0213 612.189 25.296L596.769 53.906C595.547 56.2057 593.956 58.2893 592.06 60.0738C587.945 63.8905 580.556 68.6995 568.724 69.7529L560.221 88.4471Z" fill="#FF937E"/>
<path d="M534.039 90.0057C499.52 98.0513 481.101 46.5793 481.101 46.5793L475.88 34.7781C475.88 34.7781 463.666 20.038 464.178 19.3739C464.941 18.2823 468.33 21.9998 469.834 23.7631C469.903 23.8471 470.025 23.7631 469.972 23.6562L466.231 17.4198C465.101 15.7862 466.315 15.8167 466.506 16.0686L472.155 22.6792C472.167 22.6984 472.186 22.712 472.208 22.717C472.23 22.722 472.254 22.718 472.273 22.7059C472.292 22.6937 472.306 22.6744 472.311 22.6522C472.316 22.6301 472.312 22.6068 472.3 22.5876L468.025 14.084C467.384 12.5573 468.674 12.9389 468.788 13.1527L474.307 20.7861C474.376 20.87 474.513 20.7861 474.46 20.6945C473.452 18.7632 471.231 14.9084 471.094 13.2366C471.002 12.0229 471.712 12.6794 471.949 12.8397C473.055 13.6031 480.101 25.0989 480.101 25.0989C480.101 25.0989 480.948 17.9465 482.017 18.8854C482.704 19.496 482.154 23.5723 482.941 27.3508C483.437 29.7858 482.773 30.2133 484.185 32.2896L494.421 47.4571C502.894 60.4339 518.55 74.8534 540.718 69.2352L542.756 68.9146L534.039 90.0057Z" fill="#FF937E"/>
<path d="M480.124 25.0762C480.124 25.0762 478.902 26.4044 479.498 29.0608" stroke="#A94846" stroke-width="0.12" stroke-miterlimit="10" stroke-linecap="round"/>
<path d="M475.513 20.8857C475.513 20.8857 471.59 22.4124 470.407 24.336" stroke="#A94846" stroke-width="0.12" stroke-miterlimit="10" stroke-linecap="round"/>
<path d="M540.741 69.2119C532.703 71.3868 524.162 70.7401 516.543 67.3799C513.619 73.0668 506.62 79.5933 503.91 82.0742C510.467 90.364 523.604 93.1273 533.794 90.7533L543.435 67.6012L540.741 69.2119Z" fill="#FF616B"/>
<path d="M586.335 64.3428C580.964 67.442 574.962 69.2893 568.778 69.7472L559.152 88.7925C568.419 93.0291 580.969 85.5712 588.571 81.1133C587.251 75.9303 587.648 69.5182 586.335 64.3428Z" fill="#FF616B"/>
<path d="M544.58 68.8757C543.817 69.3872 532.679 86.2188 531.374 92.2416C530.191 97.7147 536.214 115.615 539.962 123.042C539.962 123.042 554.938 126.966 565.701 124.203C567.869 115.806 572.106 84.5089 569.075 69.349C569.075 69.349 563.076 68.0284 560.205 67.7002C560.205 67.7002 545.191 79.1503 544.58 68.8757Z" fill="#FF937E"/>
<path d="M543.626 67.2266C542.863 67.738 531.061 86.5314 529.764 92.5542C528.581 98.0273 532.413 103.447 532.443 108.874C532.443 108.874 561.595 111.065 572.358 108.294C574.518 99.8975 572.488 84.1116 569.465 68.9593C569.465 68.9593 562.939 66.7304 560.206 67.6998C560.206 67.6998 546.137 81.8827 543.626 67.2266Z" fill="#FF616B"/>
<g style="mix-blend-mode:multiply" opacity="0.5">
<g style="mix-blend-mode:multiply" opacity="0.5">
<path d="M554.656 109.692C561.473 109.692 568.251 109.348 572.358 108.295C573.259 104.806 573.427 100.028 573.121 94.5547C567.8 100.539 561.568 105.647 554.656 109.692Z" fill="#FF616B"/>
</g>
</g>
<path d="M593.434 277.618L598.327 297.457L621.418 299.152L607.929 289.244L605.181 277.908L593.434 277.618Z" fill="#FF937E"/>
<path d="M598.8 277.765L598.67 294.97L596.793 292.802L592.701 277.009L598.8 277.765Z" fill="#E0603D"/>
<path d="M617.868 294.436L622.586 298.703C623.097 299.1 622.731 299.764 621.998 299.771C621.998 299.771 596.808 299.642 596.754 299.313C596.556 297.275 596.151 293.207 596.503 291.359C596.556 291.092 612.395 298.825 614.059 298.229C615.235 297.802 617.525 294.168 617.868 294.436Z" fill="#45A2B9"/>
<path d="M566.282 115.234C567.664 115.547 575.633 125.921 578.641 140.691C579.725 145.996 583.702 167.339 590.854 191.468C600.961 225.681 607.648 266.085 608.495 279.672C604.785 280.642 593.373 281.252 591.03 281.115C585.564 263.612 562.786 196.331 552.733 163.454C552.638 163.104 552.417 162.802 552.113 162.606C551.808 162.41 551.442 162.333 551.084 162.391C550.727 162.449 550.403 162.637 550.176 162.919C549.949 163.202 549.835 163.558 549.855 163.92C549.534 198.438 553.489 272.207 551.878 281.207C549.931 282.275 536.611 281.779 534.321 281.474C531.878 252.933 512.948 132.859 537.52 115.249C549.802 114.989 557.649 113.272 566.282 115.234Z" fill="#0096C8"/>
<path d="M539.176 115.508C539.176 115.508 535.031 116.599 529.703 138.095C523.382 163.621 536.13 281.656 536.13 281.656" stroke="white" stroke-width="0.48" stroke-miterlimit="10"/>
<path d="M564.198 115.219C564.198 115.219 568.626 126.15 585.969 190.988C592.075 213.888 598.64 241.216 607.205 280.123" stroke="white" stroke-width="0.48" stroke-miterlimit="10"/>
<g style="mix-blend-mode:multiply" opacity="0.28">
<path d="M537.519 114.929L577.556 137.333C577.556 137.333 575.968 125.615 565.587 114.929H537.519Z" fill="#8CD1B5"/>
</g>
<path d="M574.755 27.6703C575.64 28.2428 575.617 29.8611 574.701 31.2885C573.785 32.716 572.32 33.4182 571.427 32.8152C570.534 32.2122 570.572 30.6244 571.488 29.197C572.404 27.7695 573.869 27.1436 574.755 27.6703Z" fill="#3F468E"/>
<path d="M582.228 23.3817C583.121 23.9466 583.091 25.5648 582.175 26.9999C581.259 28.435 579.793 29.122 578.907 28.5266C578.022 27.9312 578.045 26.3358 578.961 24.9084C579.877 23.4809 581.312 22.8092 582.228 23.3817Z" fill="#3F468E"/>
<path d="M575.022 28.411C574.839 28.1362 574.526 18.167 574.526 18.167L582.48 11.1748V24.4264" stroke="#3F468E" stroke-width="0.84" stroke-linecap="round" stroke-linejoin="round"/>
<path d="M492.849 110.447C493.734 111.012 493.711 112.63 492.795 114.065C491.879 115.5 490.414 116.187 489.528 115.592C488.643 114.997 488.665 113.401 489.581 111.974C490.497 110.546 492.001 109.875 492.849 110.447Z" fill="#3F468E"/>
<path d="M500.33 106.15C501.215 106.723 501.185 108.341 500.269 109.768C499.353 111.196 497.887 111.891 497.002 111.295C496.116 110.7 496.139 109.104 497.055 107.677C497.971 106.249 499.437 105.578 500.33 106.15Z" fill="#3F468E"/>
<path d="M493.116 111.188C492.94 110.913 492.62 100.944 492.62 100.944L500.574 93.9443V107.196" stroke="#3F468E" stroke-width="0.84" stroke-linecap="round" stroke-linejoin="round"/>
<path d="M589.419 95.5708C589.42 94.7111 589.167 93.8703 588.69 93.1548C588.213 92.4394 587.535 91.8815 586.741 91.5518C585.947 91.2221 585.073 91.1355 584.23 91.3028C583.387 91.4702 582.612 91.884 582.004 92.4919C581.396 93.0998 580.982 93.8744 580.815 94.7176C580.648 95.5609 580.734 96.4348 581.064 97.2288C581.394 98.0228 581.952 98.701 582.667 99.1777C583.382 99.6544 584.223 99.908 585.083 99.9065C585.652 99.9065 586.216 99.7944 586.742 99.5765C587.268 99.3586 587.746 99.0392 588.149 98.6366C588.551 98.234 588.871 97.756 589.089 97.23C589.307 96.7039 589.419 96.1401 589.419 95.5708Z" fill="#3F468E"/>
<path d="M507.864 27.8932C510.259 27.8932 512.2 25.952 512.2 23.5574C512.2 21.1629 510.259 19.2217 507.864 19.2217C505.47 19.2217 503.528 21.1629 503.528 23.5574C503.528 25.952 505.47 27.8932 507.864 27.8932Z" fill="#3F468E"/>
<path d="M489.643 169.316C492.037 169.316 493.979 167.375 493.979 164.98C493.979 162.586 492.037 160.645 489.643 160.645C487.248 160.645 485.307 162.586 485.307 164.98C485.307 167.375 487.248 169.316 489.643 169.316Z" fill="#3F468E"/>
<path d="M613.709 206.621C613.709 205.763 613.454 204.925 612.978 204.212C612.501 203.499 611.824 202.943 611.032 202.615C610.24 202.287 609.368 202.201 608.527 202.368C607.686 202.536 606.913 202.949 606.307 203.555C605.701 204.161 605.288 204.934 605.12 205.775C604.953 206.616 605.039 207.488 605.367 208.28C605.695 209.072 606.251 209.75 606.964 210.226C607.677 210.702 608.515 210.957 609.373 210.957C610.523 210.957 611.626 210.5 612.439 209.687C613.252 208.874 613.709 207.771 613.709 206.621Z" fill="#3F468E"/>
<path d="M633.662 30.4958C636.057 30.4958 637.998 28.5546 637.998 26.16C637.998 23.7654 636.057 21.8242 633.662 21.8242C631.267 21.8242 629.326 23.7654 629.326 26.16C629.326 28.5546 631.267 30.4958 633.662 30.4958Z" fill="#3F468E"/>
<path d="M534.703 56.7847C534.185 55.8952 533.415 55.1791 532.49 54.7271C531.565 54.2751 530.527 54.1073 529.507 54.2451C528.487 54.3828 527.531 54.8199 526.759 55.501C525.987 56.1822 525.435 57.0768 525.171 58.0719C524.908 59.067 524.945 60.1178 525.279 61.0916C525.613 62.0654 526.228 62.9184 527.046 63.5428C527.864 64.1673 528.849 64.5351 529.877 64.5999C530.904 64.6646 531.927 64.4234 532.817 63.9067C534.011 63.2115 534.88 62.071 535.234 60.7357C535.587 59.4004 535.396 57.9794 534.703 56.7847Z" fill="#1E2046"/>
<path d="M527.205 54.0157L527.007 54.1307C526.614 54.3595 526.48 54.8641 526.709 55.2577L531.982 64.3328C532.211 64.7264 532.715 64.8601 533.109 64.6314L533.307 64.5163C533.701 64.2876 533.834 63.783 533.606 63.3893L528.332 54.3143C528.103 53.9206 527.599 53.7869 527.205 54.0157Z" fill="#272B4F"/>
<path d="M523.269 60.6045L521.404 61.6885L523.767 65.752L525.631 64.6681L523.269 60.6045Z" fill="#1E2046"/>
<path d="M526.153 64.5485L514.367 71.0369C514.04 71.2181 513.655 71.2676 513.292 71.1754C512.929 71.0833 512.615 70.8563 512.413 70.5407C512.201 70.2107 512.128 69.8098 512.211 69.4262C512.294 69.0426 512.526 68.7077 512.856 68.495L524.207 61.2051L526.153 64.5485Z" fill="#1E2046"/>
<path d="M521.649 289.046V65.0137" stroke="#1E2046" stroke-width="2.28" stroke-miterlimit="10"/>
<path d="M495.818 301L521.65 274.779" stroke="#1E2046" stroke-width="2.28" stroke-miterlimit="10"/>
<path d="M547.87 301L522.039 274.779" stroke="#1E2046" stroke-width="2.28" stroke-miterlimit="10"/>
<path d="M524.321 54.9917L516.566 47.9385" stroke="#45A2B9" stroke-width="0.57" stroke-miterlimit="10" stroke-linecap="round"/>
<path d="M523.932 56.8167L513.482 55.9541" stroke="#45A2B9" stroke-width="0.57" stroke-miterlimit="10" stroke-linecap="round"/>
</g>
<defs>
<clipPath id="clip0_1_4466">
<rect width="638" height="302" fill="white"/>
</clipPath>
</defs>
</svg>
