<svg width="347" height="216" viewBox="0 0 347 216" fill="none" xmlns="http://www.w3.org/2000/svg">
<g clip-path="url(#clip0_1_4868)">
<path d="M267.264 59.5109C267.264 59.5109 268.594 70.0273 263.517 74.3789C257.932 79.1609 253.204 97.926 273.555 103.09C293.906 108.254 317.332 110.27 318.637 82.3569C319.846 56.4889 314.407 48.7527 308.179 42.6459C302.324 36.9018 267.264 59.5109 267.264 59.5109Z" fill="#352C38"/>
<path d="M270.213 69.679C270.213 69.679 270.823 78.184 278.109 76.9704C285.396 75.7568 275.987 66.338 270.213 69.679Z" fill="#F29083"/>
<path d="M312.589 62.1169C312.589 62.1169 317.961 68.7411 311.81 72.8364C305.66 76.9318 306.095 63.6255 312.589 62.1169Z" fill="#F29083"/>
<path d="M287.833 42.0365C287.833 42.0365 270.214 45.9868 271.732 61.4786C273.632 80.8192 287.204 91.2437 297.247 90.3347C307.29 89.4257 312.294 72.1884 310.002 58.4228C308.484 49.3279 302.715 40.2185 287.833 42.0365Z" fill="#FFAC9D"/>
<path d="M271.732 61.4785C271.732 61.4785 271.775 61.788 271.853 62.3682C271.891 62.6583 271.93 63.0161 272.003 63.4319L272.249 64.8825C272.356 65.4192 272.491 66.0042 272.631 66.6473C272.772 67.2904 272.96 67.977 273.182 68.6974C273.664 70.326 274.25 71.9217 274.938 73.4745C275.749 75.3064 276.72 77.0635 277.839 78.7255C279.083 80.5801 280.528 82.2923 282.147 83.8314C282.997 84.645 283.903 85.398 284.859 86.0845C285.829 86.7966 286.854 87.4304 287.925 87.9799C290.09 89.1312 292.464 89.835 294.907 90.0493C296.12 90.1671 297.344 90.092 298.533 89.8269C299.697 89.5325 300.794 89.0206 301.768 88.3184C303.66 86.886 305.207 85.0469 306.293 82.9369C307.352 80.972 308.195 78.8986 308.808 76.7527C309.355 74.8228 309.764 72.8564 310.031 70.8684C310.441 67.8859 310.554 64.8702 310.37 61.8653C310.336 61.319 310.297 60.8355 310.249 60.4148C310.2 59.9941 310.171 59.6315 310.128 59.3462C310.05 58.766 310.007 58.4566 310.007 58.4566C310.007 58.4566 310.06 58.7612 310.152 59.3414C310.205 59.6267 310.253 59.9845 310.307 60.4051C310.36 60.8258 310.423 61.3141 310.466 61.8557C310.573 62.9436 310.655 64.2732 310.655 65.7963C310.667 67.5059 310.57 69.2146 310.365 70.9119C310.132 72.9226 309.752 74.9135 309.228 76.8688C308.649 79.0635 307.818 81.1841 306.753 83.1883C305.636 85.3745 304.043 87.2827 302.092 88.7729C301.061 89.5265 299.896 90.0763 298.659 90.3926C297.413 90.6784 296.131 90.7649 294.858 90.6489C292.34 90.4132 289.895 89.6732 287.669 88.4731C286.575 87.9149 285.528 87.268 284.54 86.539C283.57 85.8341 282.651 85.0618 281.789 84.2278C280.149 82.64 278.7 80.8664 277.471 78.943C275.44 75.7994 273.922 72.3523 272.975 68.7312C272.771 68.0011 272.636 67.2807 272.491 66.657C272.346 66.0332 272.254 65.4143 272.162 64.8776C272.07 64.3409 272.012 63.8526 271.954 63.4271C271.896 63.0016 271.867 62.6486 271.833 62.3537L271.732 61.4785Z" fill="#D15A5A"/>
<path d="M286.242 44.9763C286.242 44.9763 291.159 66.6087 315.417 64.3169C315.417 64.3169 317.385 37.4384 294.438 38.0959C271.49 38.7535 263.299 47.2827 268.869 71.2021C268.869 71.2069 287.881 68.9054 286.242 44.9763Z" fill="#352C38"/>
<path d="M286.314 42.9504C286.314 42.9504 287.223 62.9969 306.661 66.338L286.314 42.9504Z" fill="#352C38"/>
<path d="M279.449 70.2063C279.449 70.2063 279.521 70.4045 279.661 70.7381C279.85 71.1957 280.063 71.6428 280.3 72.0775C280.608 72.6824 281.01 73.2355 281.489 73.7166C281.74 73.9627 282.045 74.148 282.379 74.2581C282.716 74.3531 283.074 74.3413 283.404 74.2243H283.433H283.409L283.481 74.1904L283.65 74.1082C283.742 74.0647 283.844 74.026 283.931 73.9777C284.07 73.8817 284.202 73.7767 284.327 73.6634C284.459 73.5393 284.578 73.4015 284.68 73.2524C284.734 73.175 284.787 73.1074 284.835 73.03L284.956 72.7882C285.239 72.177 285.42 71.5237 285.493 70.8542C285.556 70.3635 285.588 69.8694 285.589 69.3746C285.589 69.012 285.589 68.8041 285.589 68.8041C285.643 68.9885 285.687 69.1757 285.72 69.365C285.817 69.8637 285.869 70.3702 285.875 70.8784C285.876 71.2232 285.85 71.5675 285.797 71.9082C285.744 72.2988 285.64 72.6808 285.488 73.0445L285.357 73.3298C285.309 73.4265 285.246 73.5135 285.188 73.6102C285.073 73.8005 284.933 73.9746 284.772 74.1276C284.6 74.2935 284.412 74.4425 284.211 74.5724C284.115 74.6256 284.023 74.6643 283.931 74.7078L283.791 74.7755L283.723 74.8093H283.684H283.641C283.183 74.9543 282.692 74.9543 282.234 74.8093C281.8 74.6737 281.406 74.4329 281.088 74.1082C280.596 73.5553 280.213 72.9137 279.961 72.2177C279.785 71.7454 279.644 71.2605 279.541 70.7671C279.468 70.4142 279.449 70.2063 279.449 70.2063Z" fill="#1C171E"/>
<path d="M295.583 67.0246L295.796 67.5564C295.932 67.8901 296.149 68.3591 296.434 68.8958C296.745 69.4997 297.146 70.0525 297.624 70.5349C297.878 70.7802 298.183 70.9652 298.518 71.0764C298.854 71.1714 299.21 71.1595 299.539 71.0426H299.572H299.548L299.621 71.0087L299.761 70.9459C299.853 70.9024 299.954 70.8637 300.037 70.8153C300.178 70.7205 300.312 70.6155 300.438 70.501C300.568 70.3756 300.687 70.238 300.791 70.09C300.839 70.0127 300.897 69.945 300.946 69.8676L301.067 69.6259C301.349 69.0146 301.531 68.3614 301.603 67.6918C301.665 67.2011 301.696 66.7069 301.695 66.2123C301.695 65.8496 301.695 65.6417 301.695 65.6417C301.749 65.8261 301.792 66.0134 301.826 66.2026C301.924 66.7011 301.974 67.2079 301.976 67.716C301.979 68.0607 301.954 68.405 301.903 68.7459C301.846 69.1347 301.741 69.5149 301.589 69.8773L301.463 70.1674C301.41 70.2593 301.352 70.3511 301.294 70.443C301.179 70.6349 301.039 70.8105 300.878 70.9652C300.706 71.1312 300.518 71.2801 300.317 71.41C300.22 71.4632 300.129 71.5019 300.037 71.5454L299.896 71.6131L299.824 71.647H299.78H299.742C299.284 71.7919 298.793 71.7919 298.335 71.647C297.911 71.4986 297.531 71.2478 297.227 70.9169C296.734 70.3652 296.351 69.7232 296.101 69.0263C295.92 68.5555 295.779 68.0703 295.68 67.5758C295.638 67.3939 295.606 67.2099 295.583 67.0246Z" fill="#1C171E"/>
<path d="M289.119 69.9305C289.07 70.9562 288.951 71.9772 288.761 72.9863C288.669 73.4699 288.573 73.9872 288.461 74.4852C288.35 74.9833 288.224 75.4813 288.094 75.9745L287.968 75.694C289.095 76.3758 290.207 77.072 291.285 77.8311C290.071 77.3186 288.892 76.7384 287.722 76.1437L287.562 76.0663L287.591 75.8681C287.673 75.3846 287.76 74.8575 287.867 74.3595C287.973 73.8615 288.079 73.3635 288.2 72.8655C288.44 71.8677 288.747 70.8872 289.119 69.9305Z" fill="#D15A5A"/>
<path d="M288.863 80.8289C288.863 80.8289 289.037 80.8869 289.346 80.9642C289.496 81.0078 289.68 81.0513 289.893 81.1045C290.105 81.1576 290.342 81.1963 290.599 81.2544C290.855 81.3124 291.14 81.3559 291.44 81.3849C291.74 81.4139 292.054 81.4478 292.383 81.4574C292.715 81.4743 293.047 81.4743 293.379 81.4574C293.548 81.4574 293.717 81.4139 293.862 81.3946C294.026 81.3786 294.187 81.3495 294.346 81.3075C294.678 81.2432 295.002 81.1427 295.313 81.0078C295.468 80.9401 295.627 80.8869 295.772 80.8192L296.188 80.5726C296.456 80.4192 296.708 80.2377 296.937 80.0311C297.049 79.9344 297.17 79.8522 297.266 79.7506L297.537 79.446C297.711 79.2773 297.873 79.0964 298.021 78.9045L298.345 78.421L298.635 78.0245L298.451 78.508C298.388 78.6531 298.311 78.832 298.219 79.035C298.106 79.2576 297.973 79.4696 297.822 79.6684L297.581 80.0262C297.483 80.1472 297.376 80.2603 297.261 80.3647C297.037 80.6171 296.78 80.8383 296.497 81.0223L296.053 81.3269C295.893 81.4139 295.724 81.4816 295.569 81.559C295.228 81.7117 294.871 81.8284 294.505 81.9071C294.323 81.9526 294.137 81.9817 293.949 81.9941C293.766 81.9941 293.582 82.0473 293.398 82.0521C293.041 82.0599 292.685 82.0453 292.33 82.0086C292.003 81.9802 291.68 81.9252 291.363 81.8442C291.053 81.7862 290.773 81.6798 290.512 81.6073C289.933 81.4154 289.379 81.154 288.863 80.8289Z" fill="#D15A5A"/>
<path d="M292.102 65.5838C292.082 65.3651 292.082 65.145 292.102 64.9262C292.151 64.3429 292.278 63.7689 292.479 63.2194C292.776 62.4062 293.24 61.6647 293.843 61.0436C294.207 60.6776 294.622 60.3665 295.076 60.1201C295.56 59.8674 296.08 59.6912 296.618 59.5979C297.146 59.523 297.681 59.523 298.209 59.5979C298.461 59.6269 298.71 59.677 298.954 59.7478C299.19 59.8061 299.421 59.882 299.645 59.975C299.861 60.0522 300.071 60.1443 300.274 60.2506C300.472 60.357 300.67 60.4489 300.844 60.5649L301.328 60.8986L301.768 61.2418C302.021 61.4458 302.261 61.6671 302.483 61.9043C302.657 62.078 302.819 62.2638 302.967 62.4603C303.233 62.7843 303.363 62.9825 303.363 62.9825C303.363 62.9825 303.126 62.9196 302.744 62.7746L302.063 62.528C301.802 62.4361 301.516 62.3201 301.202 62.2185L300.719 62.0493L300.201 61.8946C300.027 61.8366 299.848 61.7931 299.664 61.7495C299.483 61.6964 299.299 61.6528 299.113 61.619C298.742 61.5406 298.365 61.4905 297.987 61.4691C297.62 61.4461 297.252 61.4624 296.889 61.5175C296.538 61.5804 296.194 61.6809 295.864 61.8172C295.537 61.9625 295.224 62.1389 294.931 62.3443C294.368 62.7645 293.858 63.2516 293.413 63.7948C292.987 64.2783 292.663 64.7618 292.446 65.0713L292.102 65.5838Z" fill="#1C171E"/>
<path d="M286.885 66.4539L286.401 66.1638C286.102 65.9849 285.681 65.7383 285.183 65.4724C284.652 65.1765 284.1 64.9227 283.529 64.7133C283.238 64.609 282.939 64.5297 282.635 64.4764C282.346 64.423 282.053 64.4052 281.76 64.4232C281.471 64.4386 281.185 64.4905 280.909 64.5779C280.769 64.6214 280.633 64.6794 280.493 64.7278C280.353 64.7761 280.217 64.8583 280.087 64.9309C279.819 65.0789 279.56 65.2403 279.308 65.4144C279.071 65.6029 278.825 65.7722 278.617 65.9559C278.409 66.1396 278.196 66.2992 278.017 66.4394L277.534 66.8456C277.395 66.9737 277.25 67.0947 277.099 67.2082C277.125 67.0196 277.16 66.8324 277.205 66.6473C277.249 66.4342 277.312 66.2254 277.394 66.0236C277.481 65.7538 277.591 65.4917 277.722 65.2403C277.879 64.9344 278.06 64.6417 278.264 64.3652C278.509 64.0509 278.785 63.7611 279.086 63.4997C279.432 63.2103 279.818 62.9725 280.232 62.7937C281.126 62.4142 282.123 62.3545 283.056 62.6245C283.482 62.7432 283.89 62.9188 284.269 63.1467C284.9 63.5239 285.454 64.0159 285.903 64.5972C286.215 64.9923 286.476 65.4242 286.682 65.8834C286.766 66.0674 286.834 66.2583 286.885 66.4539Z" fill="#1C171E"/>
<path d="M256.042 111.696C256.042 111.696 264.542 155.029 273.047 154.623C281.552 154.217 275.465 114.128 275.465 114.128L256.042 111.696Z" fill="#F29083"/>
<path d="M256.042 111.696C256.042 111.696 264.542 155.029 273.047 154.623C281.552 154.217 275.465 114.128 275.465 114.128L256.042 111.696Z" stroke="#D15A5A" stroke-width="1.24" stroke-miterlimit="10"/>
<path d="M338.05 100.406C338.05 100.406 340.337 144.508 331.987 146.181C323.637 147.854 319.788 107.499 319.788 107.499L338.05 100.406Z" fill="#F29083"/>
<path d="M338.05 100.406C338.05 100.406 340.337 144.508 331.987 146.181C323.637 147.854 319.788 107.499 319.788 107.499L338.05 100.406Z" stroke="#D15A5A" stroke-width="1.24" stroke-miterlimit="10"/>
<path d="M279.531 137.618C279.531 137.618 250.37 165.56 252.396 215.778H336.634C336.634 215.778 349.205 159.888 325.697 129.514C302.189 99.1397 279.531 137.618 279.531 137.618Z" fill="#FC6A5A"/>
<path d="M296.778 152.766C306.327 155.493 316.176 157.055 326.011 158.365C329.951 158.892 334.003 159.376 338.099 159.729C336.131 148.84 332.369 138.15 325.692 129.514C302.203 99.1397 279.526 137.618 279.526 137.618C277.318 139.86 275.28 142.263 273.429 144.808C281.17 147.602 288.867 150.503 296.778 152.766Z" fill="#EA4134"/>
<path d="M279.531 137.618C279.531 137.618 250.37 165.56 252.396 215.778H336.634C336.634 215.778 349.205 159.888 325.697 129.514C302.189 99.1397 279.531 137.618 279.531 137.618Z" stroke="#A50000" stroke-width="0.92" stroke-miterlimit="10"/>
<path d="M254.823 90.6394L254.422 77.2751C254.422 77.2751 289.235 78.8948 294.109 93.0666C294.109 93.0666 310.306 74.843 328.922 71.6035L335.807 106.837L254.823 90.6394Z" fill="#FDDEC0"/>
<path d="M249.964 79.7023L288.437 87.8011L292.083 142.472L251.584 132.347L249.964 79.7023Z" fill="#0096C8"/>
<path d="M249.964 79.7023L288.437 87.8011L292.083 142.472L251.584 132.347L249.964 79.7023Z" stroke="#1B4268" stroke-width="0.5" stroke-miterlimit="10"/>
<path d="M337.088 74.7318L300.051 87.9172L303.774 142.583L342.547 127.12L337.088 74.7318Z" fill="#0096C8"/>
<path d="M337.088 74.7318L300.051 87.9172L303.774 142.583L342.547 127.12L337.088 74.7318Z" stroke="#1B4268" stroke-width="0.5" stroke-miterlimit="10"/>
<path d="M288.437 87.8012L301.4 87.395L304.64 145.31C304.64 145.31 296.942 148.144 290.057 144.904L288.437 87.8012Z" fill="#0096C8"/>
<path d="M288.437 87.8012L301.395 87.279H301.506V87.3902L302.406 101.862L303.286 116.338L304.954 145.291V145.538L304.727 145.62C304.126 145.826 303.514 145.999 302.894 146.137C302.28 146.282 301.661 146.398 301.042 146.5L300.104 146.621C299.79 146.664 299.476 146.679 299.137 146.708C298.799 146.737 298.509 146.746 298.17 146.756C297.832 146.766 297.537 146.78 297.203 146.756C296.869 146.732 296.575 146.756 296.236 146.756L295.269 146.679C294.955 146.679 294.645 146.592 294.331 146.553C294.017 146.514 293.702 146.461 293.398 146.384L292.469 146.171L291.565 145.89L291.111 145.745L290.671 145.562L289.936 145.185L289.767 145.117V144.919L289.385 130.64L289.046 116.362L288.727 102.084L288.437 87.8012ZM288.437 87.8012L288.969 102.074L289.452 116.348L289.936 130.621L290.361 144.894L290.187 144.629L291.033 144.977L291.454 145.151L291.894 145.286L292.764 145.557L293.659 145.76C293.954 145.832 294.259 145.876 294.558 145.919C294.858 145.963 295.163 146.021 295.467 146.036L296.381 146.108C296.691 146.108 296.995 146.108 297.3 146.108C297.604 146.108 297.914 146.108 298.218 146.108C298.523 146.108 298.833 146.108 299.137 146.06C299.442 146.011 299.751 146.011 300.051 145.973L300.965 145.847C301.569 145.75 302.174 145.634 302.768 145.489C303.362 145.359 303.947 145.198 304.523 145.006L304.311 145.334L302.739 116.372L302.024 101.886L301.308 87.4047L301.424 87.5111L288.437 87.8012Z" fill="#1B4268"/>
<path d="M245.874 104.598C245.874 104.598 244.713 96.8621 247.131 95.7887C249.548 94.7153 266.805 101.286 250.97 99.4586C250.97 99.4586 277.868 105.425 251.777 103.032C251.777 103.032 273.328 106.948 252.396 105.623C252.396 105.623 269.319 109.685 251.405 107.79L250.709 113.302C250.709 113.302 248.586 114.684 245.874 104.598Z" fill="#FFAC9D"/>
<path d="M245.873 104.598C245.691 103.467 245.576 102.325 245.53 101.18C245.465 100.029 245.543 98.8741 245.762 97.7422C245.867 97.1552 246.107 96.6006 246.463 96.1225C246.658 95.8744 246.92 95.688 247.218 95.5858C247.515 95.5127 247.821 95.4834 248.127 95.4987C249.284 95.5742 250.43 95.7736 251.545 96.0934C252.658 96.3907 253.754 96.749 254.828 97.1668C255.371 97.3749 255.902 97.6122 256.419 97.8776C256.684 98.016 256.94 98.1694 257.188 98.3369C257.319 98.4253 257.442 98.5257 257.555 98.6367C257.707 98.7732 257.812 98.9543 257.855 99.1541C257.864 99.225 257.859 99.2971 257.84 99.366C257.821 99.4349 257.788 99.4993 257.744 99.5554C257.676 99.6437 257.59 99.7162 257.492 99.7682C257.339 99.8461 257.177 99.9031 257.009 99.9374C256.714 99.9984 256.415 100.039 256.114 100.058C255.524 100.092 254.944 100.087 254.369 100.058C253.213 100.02 252.067 99.9035 250.926 99.7778L251.037 99.1348C253.025 99.5796 255.002 100.049 256.975 100.556C257.942 100.813 258.948 101.078 259.929 101.373C260.413 101.518 260.896 101.673 261.38 101.857C261.876 102.024 262.361 102.224 262.83 102.456C262.965 102.525 263.092 102.606 263.212 102.698L263.314 102.79C263.355 102.835 263.392 102.884 263.425 102.935C263.469 103.017 263.496 103.108 263.502 103.201C263.503 103.313 263.467 103.421 263.401 103.511C263.262 103.67 263.072 103.777 262.864 103.815C262.714 103.854 262.579 103.873 262.443 103.897C261.923 103.955 261.4 103.983 260.877 103.98C259.847 103.98 258.827 103.941 257.806 103.883C255.771 103.757 253.745 103.583 251.719 103.399L251.811 102.703C253.407 103.003 254.992 103.322 256.574 103.67C257.366 103.844 258.159 104.028 258.948 104.231C259.339 104.333 259.731 104.444 260.127 104.56C260.532 104.676 260.928 104.822 261.312 104.995C261.43 105.049 261.541 105.119 261.641 105.203C261.745 105.287 261.813 105.408 261.829 105.541C261.829 105.624 261.807 105.705 261.767 105.777C261.726 105.849 261.668 105.909 261.597 105.952C261.373 106.059 261.13 106.123 260.882 106.141C260.456 106.184 260.05 106.194 259.639 106.204C258.822 106.204 258.01 106.204 257.221 106.155C255.597 106.088 253.982 105.981 252.386 105.865L252.454 105.382C253.755 105.715 255.041 106.064 256.322 106.45C256.96 106.644 257.599 106.847 258.232 107.084C258.546 107.2 258.861 107.325 259.17 107.475C259.343 107.548 259.506 107.644 259.653 107.761C259.699 107.8 259.737 107.848 259.765 107.901C259.791 107.94 259.805 107.987 259.805 108.034C259.805 108.081 259.791 108.127 259.765 108.167C259.685 108.252 259.58 108.308 259.465 108.326C259.125 108.389 258.78 108.417 258.435 108.409C258.097 108.409 257.763 108.409 257.429 108.38C256.762 108.341 256.095 108.288 255.428 108.23C254.098 108.109 252.773 107.944 251.448 107.78C252.78 107.896 254.111 107.994 255.442 108.075C256.104 108.114 256.772 108.147 257.439 108.162C257.768 108.162 258.101 108.162 258.406 108.162C258.731 108.164 259.055 108.13 259.373 108.06C259.424 108.052 259.472 108.033 259.513 108.002C259.513 108.002 259.513 108.046 259.513 108.036C259.513 108.027 259.513 108.007 259.47 107.988C259.345 107.897 259.211 107.82 259.068 107.761C258.769 107.627 258.462 107.509 258.15 107.408C257.521 107.2 256.883 107.016 256.245 106.832C254.963 106.474 253.668 106.151 252.377 105.865L252.449 105.382C254.059 105.469 255.674 105.541 257.284 105.58C258.092 105.58 258.894 105.58 259.702 105.58C260.103 105.58 260.5 105.546 260.882 105.498C261.037 105.485 261.19 105.45 261.336 105.396C261.312 105.418 261.294 105.445 261.282 105.475C261.27 105.506 261.266 105.538 261.268 105.57C261.268 105.686 261.317 105.677 261.297 105.667C261.237 105.626 261.174 105.589 261.109 105.556C260.754 105.402 260.389 105.273 260.016 105.169C259.634 105.058 259.247 104.951 258.861 104.855C258.082 104.656 257.299 104.482 256.511 104.308C254.934 103.97 253.348 103.66 251.763 103.375L251.859 102.679C253.88 102.853 255.901 103.017 257.927 103.129C258.938 103.177 259.948 103.216 260.949 103.22C261.434 103.222 261.918 103.199 262.4 103.153C262.511 103.138 262.62 103.117 262.729 103.09C262.82 103.09 262.932 102.998 262.859 103.066C262.859 103.066 262.806 103.148 262.825 103.201C262.815 103.229 262.815 103.26 262.825 103.288L262.787 103.254C262.703 103.193 262.616 103.136 262.526 103.085C262.087 102.869 261.634 102.682 261.172 102.524C260.688 102.36 260.205 102.205 259.721 102.041C258.754 101.746 257.787 101.475 256.82 101.214C254.86 100.698 252.891 100.215 250.912 99.7633L251.023 99.1202C252.154 99.2556 253.286 99.3668 254.407 99.4297C254.967 99.4667 255.529 99.4748 256.09 99.4539C256.361 99.4451 256.631 99.416 256.897 99.3668C257.011 99.3438 257.121 99.3081 257.226 99.2605C257.255 99.2475 257.281 99.2295 257.304 99.2073C257.274 99.1302 257.228 99.0608 257.168 99.0042C257.076 98.9147 256.978 98.8323 256.873 98.7576C256.649 98.5991 256.415 98.4553 256.172 98.3273C255.677 98.059 255.167 97.8185 254.644 97.6068C253.596 97.1742 252.524 96.8013 251.434 96.4899C250.887 96.3352 250.336 96.195 249.78 96.0789C249.232 95.9566 248.677 95.8742 248.117 95.8323C247.852 95.8117 247.585 95.8263 247.324 95.8759C247.074 95.9517 246.852 96.0997 246.686 96.3014C246.346 96.7375 246.109 97.245 245.994 97.7857C245.748 98.8965 245.638 100.033 245.665 101.17C245.672 102.316 245.741 103.46 245.873 104.598Z" fill="#D15A5A"/>
<path d="M345.54 95.5471C345.54 95.5471 346.991 87.8689 344.626 86.694C342.262 85.519 324.749 91.4227 340.647 90.2139C340.647 90.2139 313.536 95.1313 339.68 93.7533C339.68 93.7533 317.99 96.8284 338.964 96.3159C338.964 96.3159 321.896 99.7005 339.869 98.5207L340.352 104.057C340.352 104.057 342.426 105.536 345.54 95.5471Z" fill="#FFAC9D"/>
<path d="M345.54 95.5469C345.716 94.4178 345.829 93.2798 345.879 92.1381C345.951 91.0061 345.884 89.8695 345.68 88.7535C345.588 88.2087 345.371 87.6925 345.047 87.245C344.888 87.0387 344.673 86.8826 344.428 86.7953C344.17 86.734 343.905 86.708 343.64 86.718C343.077 86.7409 342.517 86.8023 341.962 86.9017C341.406 86.9936 340.85 87.1144 340.299 87.2498C339.195 87.5193 338.107 87.8502 337.04 88.241C336.513 88.4393 335.986 88.652 335.488 88.8986C335.241 89.0185 335.002 89.1541 334.772 89.3048C334.667 89.3746 334.567 89.4522 334.473 89.5368C334.406 89.5887 334.355 89.6571 334.323 89.7351L334.4 89.7931C334.504 89.8471 334.614 89.8862 334.729 89.9091C334.991 89.9704 335.258 90.0109 335.527 90.03C336.086 90.0736 336.648 90.0881 337.209 90.0735C338.341 90.0735 339.482 89.9817 340.618 89.8946L340.705 90.5474C338.713 90.9197 336.721 91.3258 334.743 91.7658C333.776 91.9883 332.771 92.2203 331.794 92.4814C331.31 92.6072 330.827 92.7425 330.343 92.8924C329.874 93.0237 329.414 93.1852 328.965 93.3759C328.874 93.4219 328.785 93.4736 328.699 93.5307L328.661 93.5645C328.67 93.5524 328.678 93.5384 328.682 93.5234C328.686 93.5085 328.687 93.4929 328.685 93.4775C328.685 93.4243 328.656 93.3518 328.656 93.3421C328.656 93.3324 328.695 93.3421 328.786 93.3711C328.894 93.4042 329.004 93.4285 329.115 93.4436C329.596 93.5141 330.08 93.5577 330.566 93.5742C331.568 93.6032 332.577 93.6032 333.593 93.5742C335.614 93.5452 337.644 93.463 339.67 93.3663L339.738 94.0625C338.142 94.2898 336.547 94.546 334.961 94.812C334.168 94.9522 333.375 95.1021 332.592 95.2665C332.195 95.3487 331.808 95.4357 331.422 95.5372C331.045 95.6248 330.675 95.7396 330.314 95.8805C330.247 95.9071 330.183 95.9429 330.126 95.9869C330.126 95.9869 330.126 95.9869 330.155 95.8902C330.162 95.8575 330.16 95.8234 330.149 95.7917C330.138 95.7601 330.118 95.7322 330.092 95.7113C330.238 95.7693 330.391 95.8099 330.546 95.8322C330.924 95.895 331.32 95.9289 331.717 95.9579C332.514 96.0111 333.322 96.0353 334.134 96.0498C335.744 96.0788 337.359 96.0498 338.969 96.0498L339.022 96.5333C337.717 96.7847 336.411 97.0603 335.116 97.3698C334.473 97.5245 333.825 97.684 333.182 97.8533C332.865 97.942 332.554 98.0469 332.248 98.1676C332.104 98.2211 331.966 98.2909 331.837 98.3755L331.789 98.4238C331.789 98.4238 331.789 98.3948 331.789 98.39C331.829 98.421 331.875 98.444 331.925 98.4577C332.242 98.5338 332.566 98.5791 332.892 98.5931C333.22 98.6172 333.554 98.6269 333.888 98.6366C334.555 98.6366 335.217 98.6366 335.884 98.6366C337.219 98.6076 338.553 98.5608 339.888 98.4963C338.558 98.6124 337.229 98.7236 335.889 98.7913C335.222 98.8251 334.555 98.8542 333.888 98.8638C333.554 98.8638 333.215 98.8638 332.882 98.8638C332.537 98.8626 332.193 98.8237 331.857 98.7478C331.742 98.7258 331.639 98.6663 331.562 98.5785C331.536 98.5381 331.522 98.4911 331.522 98.4432C331.522 98.3952 331.536 98.3482 331.562 98.3078C331.593 98.2567 331.632 98.211 331.678 98.1724C331.829 98.0658 331.991 97.9766 332.161 97.9065C332.481 97.7662 332.795 97.655 333.128 97.5487C333.767 97.3407 334.41 97.157 335.062 96.9926C336.363 96.6542 337.664 96.3544 338.974 96.0788L339.027 96.5623C337.408 96.6155 335.793 96.659 334.168 96.6638C333.356 96.6638 332.548 96.6638 331.75 96.6155C331.339 96.5913 330.933 96.5671 330.508 96.5043C330.261 96.4766 330.021 96.4028 329.802 96.2867C329.733 96.2416 329.677 96.1797 329.639 96.1069C329.601 96.0342 329.582 95.9529 329.584 95.8709C329.593 95.8042 329.616 95.7401 329.651 95.6826C329.686 95.6252 329.732 95.5757 329.787 95.5372C329.889 95.4582 330.002 95.3932 330.121 95.3438C330.512 95.185 330.915 95.0557 331.325 94.957C331.721 94.8507 332.123 94.7588 332.519 94.6718C333.312 94.4977 334.11 94.3478 334.908 94.1882C336.503 93.8981 338.104 93.6354 339.709 93.4001L339.777 94.1012C337.741 94.2124 335.71 94.3091 333.67 94.3526C332.65 94.3526 331.63 94.3816 330.6 94.3526C330.077 94.3324 329.556 94.284 329.038 94.2076C328.903 94.1786 328.767 94.1544 328.622 94.1109C328.415 94.0622 328.23 93.9467 328.095 93.7821C328.032 93.6897 328 93.5797 328.003 93.4678C328.015 93.3753 328.047 93.2864 328.095 93.2067C328.13 93.1569 328.169 93.11 328.211 93.0665L328.317 92.9795C328.439 92.8916 328.568 92.8155 328.704 92.7522C329.185 92.5351 329.681 92.3541 330.189 92.2107C330.672 92.0608 331.156 91.9254 331.673 91.7997C332.64 91.5434 333.655 91.3162 334.651 91.0986C336.644 90.6634 338.64 90.2718 340.647 89.9091L340.729 90.5522C339.583 90.6344 338.433 90.7069 337.277 90.7021C336.702 90.7021 336.121 90.7021 335.536 90.6248C335.235 90.5959 334.936 90.5442 334.642 90.47C334.472 90.4313 334.309 90.3678 334.158 90.2815C334.06 90.227 333.976 90.1509 333.912 90.059C333.83 89.9405 333.797 89.795 333.82 89.6529C333.874 89.4629 333.986 89.2941 334.139 89.1694C334.258 89.064 334.386 88.9685 334.521 88.8841C334.773 88.7255 335.034 88.5833 335.304 88.4586C335.83 88.2132 336.369 87.9969 336.919 87.8107C338.009 87.4259 339.12 87.1031 340.246 86.8437C341.371 86.5606 342.524 86.3985 343.684 86.3602C343.989 86.3587 344.294 86.4011 344.588 86.4859C344.881 86.6012 345.136 86.7973 345.323 87.0516C345.659 87.5431 345.878 88.1057 345.961 88.6955C346.133 89.8365 346.166 90.9942 346.058 92.143C345.954 93.287 345.781 94.4237 345.54 95.5469Z" fill="#D15A5A"/>
<path d="M150.67 148.646L144.331 215.777H206.704L209.871 150.247L150.67 148.646Z" fill="#FDDEC0"/>
<path d="M208.972 168.848L209.871 150.247L150.67 148.646L148.833 168.098L208.972 168.848Z" fill="#EFC8A8"/>
<path d="M176.726 196.945L175.3 215.778H206.704L207.724 194.619L176.726 196.945Z" fill="#EFC8A8"/>
<path d="M202.73 194.861L189.738 196.045L183.244 196.635C181.078 196.833 178.893 197.036 176.746 197.172L176.954 196.964L175.503 215.792L175.126 215.763L176.514 196.906V196.713H176.707C178.873 196.505 181.059 196.355 183.21 196.229L189.718 195.779L202.73 194.861Z" fill="#C98D61"/>
<path d="M209.112 163.384L206.704 215.777" stroke="#C98D61" stroke-width="0.9" stroke-miterlimit="10"/>
<path d="M149.06 161.933L144.331 215.777" stroke="#C98D61" stroke-width="0.9" stroke-miterlimit="10"/>
<path d="M153.513 68.6734L165.891 67.4839C165.891 67.4839 161.819 9.4623 164.87 7.64913C167.921 5.83595 189.269 7.04957 192.619 16.7005C194.07 20.9554 202.672 58.7662 184.4 62.5859L184.583 68.4848C184.583 68.4848 191.517 68.243 197.261 68.2672C203.005 68.2914 194.843 83.0386 175.551 81.4865C156.259 79.9344 153.513 68.6734 153.513 68.6734Z" fill="#FFAC9D"/>
<path d="M197.256 68.2673C191.512 68.2673 184.578 68.4848 184.578 68.4848L184.395 62.586C172.268 62.4361 166.988 52.2001 164.532 43.2454C165.04 55.6137 165.891 67.4985 165.891 67.4985L153.513 68.6879C153.513 68.6879 156.259 79.9441 175.546 81.501C194.834 83.0579 203 68.3059 197.256 68.2673Z" fill="#F29083"/>
<path d="M164.929 35.3738C164.929 35.3738 161.399 30.4226 158.947 35.5382C155.8 42.1188 162.332 48.9654 166.756 43.9465C171.18 38.9276 164.929 35.3738 164.929 35.3738Z" fill="#FFAC9D"/>
<path d="M164.706 47.5874L165.006 52.5627C165.103 54.2212 165.199 55.8796 165.325 57.5332L165.673 62.5038C165.804 64.1622 165.92 65.8158 166.065 67.4694V67.6338H165.9L153.527 68.8716L153.721 68.6009C154.173 69.9733 154.862 71.2561 155.756 72.3916C156.642 73.5479 157.668 74.5891 158.812 75.4909C161.131 77.2767 163.751 78.6327 166.548 79.4944C167.944 79.9315 169.363 80.2899 170.798 80.5678C172.249 80.8338 173.699 81.0513 175.15 81.1674C178.063 81.4613 181.003 81.3523 183.887 80.8434C186.777 80.3418 189.558 79.344 192.107 77.894C193.373 77.1704 194.555 76.3094 195.632 75.3265C196.717 74.3614 197.628 73.2165 198.325 71.9419C198.668 71.3206 198.866 70.6297 198.905 69.9209C198.922 69.5784 198.829 69.2395 198.639 68.9538C198.434 68.6973 198.141 68.5252 197.817 68.4703C197.466 68.4103 197.109 68.3876 196.753 68.4026H195.651H193.441C190.492 68.4026 187.546 68.4429 184.603 68.5235H184.53V68.4655L184.197 62.5715H184.617V68.4703L184.559 68.4171C187.505 68.2979 190.452 68.2076 193.398 68.1464L195.607 68.1174H196.715C197.094 68.0915 197.476 68.111 197.851 68.1754C198.261 68.2453 198.631 68.4639 198.891 68.7894C199.122 69.1242 199.242 69.5235 199.234 69.9305C199.207 70.6989 199.002 71.4505 198.634 72.1257C197.934 73.452 197.006 74.645 195.893 75.6505C194.802 76.6662 193.602 77.558 192.315 78.3098C189.734 79.8064 186.911 80.839 183.974 81.3608C181.047 81.8863 178.061 82.0051 175.102 81.7138C173.622 81.5848 172.154 81.385 170.697 81.1142C169.238 80.8379 167.797 80.4713 166.384 80.0166C163.537 79.1228 160.873 77.7277 158.517 75.8971C157.348 74.9666 156.299 73.8947 155.394 72.7059C154.468 71.5153 153.758 70.1718 153.295 68.7363L153.223 68.4897H153.489L165.871 67.3389L165.721 67.5178C165.596 65.8593 165.499 64.2009 165.388 62.5424C165.277 60.884 165.204 59.2255 165.117 57.5671C165.03 55.9086 164.962 54.2454 164.895 52.5869L164.706 47.5874Z" fill="#D15A5A"/>
<path d="M158.773 10.2504C158.773 10.2504 155.771 -2.6497 148.571 0.947638C141.372 4.54498 150.684 12.9484 150.684 12.9484C150.684 12.9484 149.185 2.45137 144.983 10.2504C140.782 18.0495 156.37 20.148 158.773 10.2504Z" fill="#76413B"/>
<path d="M148.571 0.947638C145.186 2.64961 145.452 5.42014 146.695 7.87155C145.984 8.55649 145.399 9.36186 144.969 10.2504C140.772 18.0495 156.37 20.148 158.773 10.2504C158.773 10.2504 155.771 -2.6497 148.571 0.947638Z" stroke="#54201C" stroke-width="1.3" stroke-linecap="round" stroke-linejoin="round"/>
<path d="M195.869 38.4488C195.869 38.4488 196.27 47.447 193.872 48.8492C191.473 50.2514 196.869 41.0501 189.67 41.0501C182.47 41.0501 175.469 38.9468 174.473 42.7473C173.477 46.5477 174.957 51.6487 170.373 46.6492C167.714 43.7481 167.191 33.6524 167.225 25.6357C169.159 24.5043 171.524 21.8691 170.271 15.8494C170.271 15.8494 181.271 7.45077 192.619 16.7004C192.619 16.7004 191.469 2.19498 171.872 2.64948C154.465 3.0508 149.669 22.8507 159.47 34.2471C159.47 34.2471 162.279 32.2115 164.261 34.4067C163.942 42.7231 164.982 61.0966 180.169 62.9339C202.841 65.7093 197.672 49.2505 195.869 38.4488Z" fill="#965450"/>
<path d="M192.619 16.7006C192.619 16.7006 192.59 16.425 192.484 15.9221C192.327 15.1948 192.115 14.4804 191.85 13.785C191.447 12.7062 190.923 11.6762 190.289 10.7147C189.472 9.46851 188.481 8.34651 187.344 7.38326C186.695 6.83702 186.006 6.33927 185.284 5.89404C184.509 5.43166 183.701 5.02606 182.867 4.68042C181.043 3.96146 179.136 3.47414 177.19 3.22988C175.107 2.95217 173.002 2.88091 170.905 3.01713C168.746 3.13563 166.625 3.63148 164.638 4.48218C162.668 5.35008 160.891 6.6027 159.411 8.16655C157.992 9.70198 156.866 11.4851 156.09 13.4272C155.369 15.2491 154.918 17.1662 154.75 19.1181C154.601 20.8726 154.677 22.639 154.978 24.3739C155.24 25.843 155.647 27.2828 156.191 28.6724C156.322 28.977 156.448 29.2768 156.564 29.5669C156.68 29.857 156.834 30.1132 156.965 30.3743C157.202 30.9014 157.502 31.3414 157.734 31.762C158.117 32.3997 158.537 33.0148 158.991 33.6042L159.474 34.2279L158.967 33.6235C158.486 33.0515 158.04 32.4509 157.632 31.8249C157.386 31.4139 157.076 30.9739 156.815 30.4517L156.385 29.6491C156.259 29.3638 156.124 29.0688 155.983 28.7594C154.66 25.7159 154.082 22.4008 154.296 19.0891C154.424 17.0812 154.859 15.1047 155.587 13.2289C156.372 11.2192 157.519 9.3706 158.972 7.7749C160.497 6.13704 162.335 4.82173 164.377 3.9068C166.427 3.03054 168.615 2.51997 170.842 2.39823C172.979 2.27186 175.123 2.35608 177.243 2.64966C179.232 2.91982 181.176 3.4565 183.021 4.24526C183.875 4.61224 184.699 5.04382 185.487 5.53624C186.218 6.00465 186.913 6.52667 187.566 7.09799C188.704 8.10091 189.683 9.27159 190.468 10.5696C191.076 11.5636 191.57 12.6227 191.942 13.727C192.186 14.4326 192.372 15.1571 192.498 15.8931C192.553 16.1599 192.593 16.4295 192.619 16.7006Z" fill="#54201C"/>
<path d="M164.261 34.4067C164.261 34.4067 164.261 34.692 164.261 35.2384C164.261 35.7847 164.261 36.5777 164.261 37.5882C164.261 38.0959 164.295 38.652 164.315 39.2612C164.334 39.8704 164.382 40.5328 164.455 41.2339C164.582 42.8039 164.802 44.3651 165.112 45.9095C165.458 47.7362 165.97 49.5278 166.64 51.262C167.01 52.2055 167.436 53.1259 167.917 54.018C168.427 54.9387 169.005 55.8195 169.648 56.6532C170.993 58.3973 172.684 59.8457 174.613 60.9081C176.624 61.9727 178.837 62.6021 181.107 62.7551C183.374 63.0041 185.662 63.0041 187.929 62.7551C190.149 62.4843 192.32 61.8171 193.973 60.5019C195.555 59.205 196.64 57.4012 197.044 55.396C197.436 53.5884 197.573 51.7345 197.45 49.8888C197.368 48.1627 197.15 46.5864 196.966 45.1939C196.782 43.8014 196.565 42.5829 196.4 41.582C196.067 39.5851 195.917 38.4392 195.917 38.4392C195.917 38.4392 196.13 39.5755 196.546 41.5627C196.749 42.5297 196.995 43.7579 197.251 45.1504C197.538 46.7101 197.743 48.2836 197.866 49.8646C198.032 51.7516 197.932 53.6526 197.571 55.5121C197.357 56.5386 196.989 57.5266 196.478 58.4422C195.938 59.4056 195.217 60.256 194.355 60.9468C192.595 62.3635 190.313 63.0742 188.031 63.3643C185.714 63.6181 183.376 63.6035 181.063 63.3208C178.724 63.152 176.445 62.493 174.376 61.3868C172.382 60.2889 170.646 58.7771 169.285 56.9529C168.639 56.0894 168.061 55.1777 167.554 54.2259C167.077 53.3133 166.657 52.3718 166.297 51.407C165.648 49.6422 165.162 47.8213 164.846 45.9675C164.574 44.4048 164.393 42.8275 164.305 41.2436C164.252 40.5425 164.247 39.8801 164.223 39.266C164.198 38.652 164.223 38.0959 164.223 37.5882C164.223 36.5728 164.257 35.7799 164.29 35.2384C164.324 34.6968 164.261 34.4067 164.261 34.4067Z" fill="#54201C"/>
<path d="M185.57 27.5506C185.734 28.0583 185.874 28.5756 186.024 29.0882C186.174 29.6007 186.305 30.1181 186.445 30.6306C186.709 31.6653 186.962 32.7016 187.204 33.7396C187.688 35.8138 188.108 37.9026 188.481 40.0252L188.519 40.2573L188.297 40.2815C187.33 40.3734 186.363 40.4652 185.396 40.5426C184.429 40.62 183.462 40.707 182.495 40.7699C183.462 40.5958 184.429 40.4507 185.396 40.2863C186.363 40.122 187.33 39.9914 188.297 39.8512L188.118 40.1074C187.586 38.0428 187.117 35.9637 186.692 33.875C186.485 32.8306 186.289 31.783 186.102 30.7321C186.015 30.2051 185.923 29.6781 185.845 29.151C185.768 28.624 185.633 28.0825 185.57 27.5506Z" fill="#D15A5A"/>
<path d="M164.116 43.9659C163.806 43.8831 163.503 43.7731 163.212 43.6371C162.904 43.506 162.62 43.3247 162.371 43.1004C162.226 42.9672 162.132 42.7877 162.105 42.5927C162.098 42.4827 162.12 42.3729 162.168 42.2736C162.21 42.183 162.269 42.1011 162.342 42.0318C162.6 41.7957 162.905 41.6162 163.236 41.5048L163.086 41.674C163.241 40.6973 163.308 39.7085 163.285 38.7197C163.268 38.2391 163.203 37.7612 163.091 37.2934C162.999 36.8543 162.777 36.4532 162.453 36.1426C162.375 36.0737 162.289 36.0152 162.197 35.9686L162.129 35.9347C162.09 35.9347 162.129 35.9347 162.129 35.9347H162.085C162.028 35.9139 161.97 35.8962 161.911 35.8815C161.717 35.826 161.51 35.8362 161.322 35.9105C160.92 36.1261 160.597 36.4651 160.403 36.8776C160.167 37.3117 159.971 37.7665 159.818 38.2362C159.658 38.7125 159.522 39.1966 159.412 39.6868C159.432 39.1782 159.493 38.6721 159.595 38.1734C159.688 37.6641 159.841 37.1675 160.05 36.6938C160.16 36.4484 160.298 36.2164 160.461 36.0024C160.636 35.7718 160.861 35.5834 161.118 35.4512C161.404 35.3191 161.725 35.2835 162.032 35.3497C162.096 35.3639 162.159 35.3816 162.221 35.4028H162.264L162.332 35.4319L162.438 35.4754C162.572 35.5388 162.699 35.6166 162.816 35.7075C163.239 36.0934 163.534 36.5995 163.662 37.158C163.791 37.6703 163.859 38.1962 163.865 38.7246C163.878 39.7545 163.766 40.7822 163.531 41.7852L163.497 41.9158L163.381 41.9545C163.101 42.0321 162.835 42.1581 162.598 42.3268C162.553 42.3577 162.515 42.3979 162.487 42.4445C162.458 42.4912 162.44 42.5434 162.434 42.5975C162.446 42.7212 162.496 42.838 162.579 42.9312C162.778 43.1649 163.015 43.3642 163.28 43.521C163.55 43.6844 163.83 43.8329 164.116 43.9659Z" fill="#D15A5A"/>
<path d="M185.98 27.9519C186.04 27.3027 186.219 26.6701 186.507 26.0855C186.799 25.468 187.185 24.9002 187.653 24.4029C187.934 24.1088 188.247 23.8476 188.587 23.6245C188.957 23.3766 189.363 23.1859 189.791 23.0587C189.897 23.0201 190.013 23.0007 190.124 22.9717H190.168H190.25H190.318H190.453C190.55 22.9717 190.714 22.9717 190.845 22.9427H191.207C191.67 22.9909 192.12 23.1271 192.532 23.344C193.183 23.7068 193.724 24.2379 194.099 24.8816C194.348 25.3012 194.523 25.7609 194.616 26.2403C194.655 26.4197 194.675 26.6029 194.674 26.7866L194.239 26.4724C193.963 26.2886 193.596 26.0178 193.165 25.7519C192.733 25.4686 192.263 25.2488 191.768 25.0992C191.541 25.0353 191.307 25.0012 191.072 24.9976H190.898C190.849 24.9976 190.835 24.9976 190.753 24.9976H190.617H190.55C190.487 24.9976 190.419 24.9976 190.356 25.0412C190.091 25.1134 189.832 25.2089 189.583 25.3264C189.317 25.4558 189.059 25.5995 188.809 25.7568C188.328 26.0711 187.863 26.41 187.417 26.7721L185.98 27.9519Z" fill="#76413B"/>
<path d="M181.798 26.9123L181.262 26.598C180.928 26.4046 180.454 26.1145 179.903 25.8292C178.805 25.2442 177.35 24.5624 176.035 24.5914C175.709 24.596 175.384 24.6382 175.068 24.7172C174.903 24.7413 174.749 24.8187 174.584 24.8574C174.42 24.8961 174.27 24.9928 174.101 25.0459C173.931 25.0991 173.801 25.2055 173.646 25.278C173.491 25.3506 173.356 25.4569 173.206 25.5391C172.931 25.7277 172.65 25.9018 172.408 26.0952C172.167 26.2886 171.925 26.4578 171.722 26.6222C171.519 26.7866 171.325 26.9268 171.18 27.0525C170.881 27.304 170.697 27.4393 170.697 27.4393C170.736 27.2323 170.786 27.0273 170.847 26.8253C170.91 26.5917 170.993 26.3637 171.093 26.1435C171.146 26.013 171.209 25.8776 171.272 25.7325C171.335 25.5875 171.432 25.4473 171.519 25.2974C171.711 24.9668 171.932 24.6545 172.181 24.3642C172.321 24.2095 172.471 24.0596 172.626 23.8807C172.781 23.7018 172.974 23.5906 173.158 23.4455C173.563 23.1552 174.007 22.924 174.478 22.7589C174.979 22.5865 175.505 22.4936 176.035 22.4833C176.556 22.4885 177.073 22.5667 177.572 22.7154C178.034 22.8542 178.475 23.0508 178.887 23.3005C180.066 24.0148 181.009 25.0586 181.6 26.3031C181.683 26.5001 181.75 26.704 181.798 26.9123Z" fill="#76413B"/>
<path d="M175.687 31.8732C175.687 33.3237 175.252 34.5373 174.72 34.5325C174.188 34.5276 173.801 33.3334 173.811 31.8635C173.82 30.3936 174.246 29.1993 174.754 29.1993C175.261 29.1993 175.696 30.4033 175.687 31.8732Z" fill="#1C171E"/>
<path d="M190.231 32.0423C190.231 33.4929 189.796 34.7065 189.264 34.7065C188.732 34.7065 188.364 33.4929 188.398 32.0423C188.432 30.5918 188.828 29.3782 189.341 29.383C189.854 29.3879 190.236 30.558 190.231 32.0423Z" fill="#1C171E"/>
<path d="M175.871 43.7483L192.484 46.0643C192.484 46.0643 186.073 52.9496 175.871 43.7483Z" fill="white"/>
<path d="M206.67 100.648C206.67 100.648 215.069 137.85 225.871 135.848C236.672 133.846 219.469 85.4465 219.469 85.4465L206.67 100.648Z" fill="#F29083"/>
<path d="M189.365 66.9473C189.365 66.9473 206.467 62.7504 215.165 73.233C223.864 83.7156 225.667 99.0333 225.667 99.0333L207.067 105.319L189.365 66.9473Z" fill="#0096C8"/>
<path d="M201.738 92.4815L201.293 92.82L207.071 105.348L225.672 99.0622C225.672 99.0622 224.434 88.5796 219.072 79.0109C213.425 83.6284 207.574 88.0236 201.738 92.4815Z" fill="#558AB5"/>
<path d="M232.533 34.6726C232.533 34.6726 229.211 22.372 238.36 18.1654C238.36 18.1654 241.183 29.499 232.533 34.6726Z" fill="#965450"/>
<path d="M238.476 25.9017C238.94 23.3399 238.901 20.7121 238.36 18.1654C236.695 18.9026 235.258 20.0711 234.197 21.55C235.618 23.0199 237.035 24.4705 238.476 25.9017Z" fill="#FC6A5A"/>
<path d="M232.089 33.7879C230.454 35.4415 227.79 41.1905 223.642 53.8343C218.376 69.9015 212.7 91.031 214.097 91.471C215.495 91.911 223.444 71.5696 228.714 55.4976C232.621 43.608 233.965 37.4045 233.834 34.7984C233.244 34.4599 232.664 34.136 232.089 33.7879Z" fill="#FC6A5A"/>
<path d="M232.088 33.7879C230.938 34.9531 229.274 38.1395 226.944 44.3526C228.491 44.9973 230.03 45.642 231.561 46.2867C233.292 40.2089 233.926 36.6164 233.834 34.7887C233.244 34.4599 232.664 34.136 232.088 33.7879Z" fill="#FDDEC0"/>
<path d="M225.073 51.4506C225.073 51.4506 233.873 50.2467 235.87 54.6466C237.867 59.0466 240.27 133.459 228.269 135.848C218.947 137.714 209.073 127.449 222.67 68.6395C222.67 68.6395 216.669 67.0391 219.073 64.2395C219.073 64.2395 215.872 61.0387 220.272 59.8396C220.272 59.8396 217.854 56.6387 221.872 56.2374C221.872 56.2471 217.893 52.2484 225.073 51.4506Z" fill="#FFAC9D"/>
<path d="M228.269 135.848C227.506 136.009 226.727 136.078 225.948 136.056H225.653L225.363 136.017L224.778 135.945C224.393 135.87 224.015 135.766 223.646 135.635C222.16 135.093 220.865 134.126 219.923 132.855C218.976 131.597 218.235 130.197 217.728 128.706C217.207 127.228 216.814 125.707 216.553 124.161C216.486 123.779 216.408 123.393 216.355 123.006L216.205 121.845C216.089 121.067 216.036 120.288 215.968 119.51C215.9 118.731 215.871 117.948 215.828 117.17C215.784 116.391 215.78 115.608 215.77 114.825C215.76 114.041 215.77 113.263 215.77 112.484C215.77 111.706 215.77 110.918 215.833 110.139L215.954 107.799C216.002 107.021 216.075 106.242 216.128 105.464C216.234 103.907 216.423 102.36 216.573 100.803C216.722 99.2459 216.935 97.7035 217.148 96.1611C217.361 94.6186 217.569 93.0666 217.83 91.529C218.091 89.9914 218.313 88.449 218.603 86.9114C218.893 85.3739 219.15 83.8411 219.459 82.3132C219.769 80.7853 220.054 79.2526 220.387 77.7295C220.721 76.2065 221.026 74.6737 221.355 73.1555L222.389 68.596L222.578 68.9102C222.008 68.7462 221.451 68.5426 220.91 68.301C220.36 68.065 219.839 67.7665 219.358 67.4113C219.111 67.2236 218.887 67.0078 218.69 66.7683C218.48 66.5135 218.334 66.2116 218.265 65.8883C218.197 65.556 218.229 65.2113 218.357 64.8971C218.415 64.7461 218.49 64.6018 218.579 64.4667C218.664 64.3367 218.758 64.2123 218.86 64.0944V64.4281C218.682 64.2366 218.521 64.0312 218.376 63.814C218.223 63.5998 218.09 63.3715 217.98 63.1323C217.92 63.0124 217.87 62.8879 217.83 62.7599C217.785 62.6311 217.753 62.4984 217.733 62.3635L217.699 62.1604V61.9476C217.699 61.8751 217.699 61.8074 217.699 61.7349L217.748 61.527C217.748 61.4593 217.781 61.3868 217.801 61.3191L217.897 61.1305L217.999 60.9419C218.038 60.8839 218.086 60.8356 218.129 60.7824C218.214 60.671 218.311 60.5703 218.42 60.4826L218.748 60.2457C218.859 60.1734 218.975 60.1103 219.097 60.0571L219.449 59.8879L220.184 59.6461L220.073 59.9797C219.94 59.7922 219.82 59.595 219.715 59.3899C219.612 59.1847 219.526 58.9712 219.459 58.7516C219.421 58.6415 219.391 58.5283 219.372 58.4132C219.347 58.2972 219.334 58.1789 219.333 58.0602C219.314 57.9384 219.314 57.8145 219.333 57.6927L219.362 57.5138L219.43 57.3398C219.43 57.2817 219.478 57.2237 219.507 57.1657L219.614 57.0158C219.681 56.9112 219.766 56.8195 219.865 56.745C219.954 56.6642 220.052 56.5928 220.155 56.5323L220.475 56.3727C220.582 56.33 220.691 56.2945 220.803 56.2664C220.91 56.2374 221.021 56.1987 221.132 56.1745L221.799 56.073L221.688 56.3824C221.392 56.0658 221.137 55.7133 220.929 55.3332C220.708 54.9483 220.578 54.5185 220.547 54.076C220.526 53.6163 220.676 53.165 220.968 52.8092C221.26 52.4808 221.62 52.2186 222.022 52.0405C222.408 51.8625 222.812 51.7232 223.226 51.6246C223.637 51.5279 224.053 51.4506 224.468 51.3925C224.884 51.3345 225.295 51.291 225.716 51.2668C226.136 51.2427 226.547 51.2185 226.968 51.2088C228.64 51.1544 230.31 51.34 231.929 51.76C232.738 51.9756 233.507 52.3201 234.206 52.7802C234.553 53.015 234.868 53.2928 235.144 53.607C235.417 53.9212 235.643 54.273 235.816 54.6514C235.635 54.2776 235.402 53.931 235.125 53.6215C234.837 53.3161 234.513 53.048 234.158 52.8237C233.457 52.3818 232.69 52.0553 231.885 51.8567C230.271 51.472 228.61 51.3222 226.954 51.4119C226.538 51.4119 226.127 51.4554 225.716 51.4941C225.305 51.5328 224.894 51.5908 224.483 51.6488C224.072 51.7068 223.675 51.7939 223.279 51.8954C222.885 51.9993 222.502 52.1384 222.133 52.3112C221.776 52.4739 221.458 52.7114 221.2 53.0075C220.959 53.302 220.838 53.6768 220.861 54.0567C220.896 54.4473 221.016 54.8255 221.214 55.164C221.411 55.5138 221.65 55.8385 221.925 56.131L222.172 56.3824L221.819 56.4404L221.19 56.542C221.089 56.542 220.992 56.6 220.895 56.629C220.796 56.6548 220.699 56.6888 220.605 56.7305L220.334 56.8659C220.238 56.9046 220.184 56.9868 220.102 57.04C220.026 57.0958 219.962 57.1665 219.914 57.2479L219.831 57.3591L219.778 57.4897L219.73 57.6202L219.706 57.7604C219.689 57.8548 219.689 57.9514 219.706 58.0457C219.702 58.1451 219.714 58.2445 219.74 58.3406C219.756 58.4412 219.782 58.54 219.817 58.6356C219.881 58.8318 219.96 59.0226 220.054 59.2061C220.149 59.3877 220.258 59.5622 220.378 59.7283L220.552 59.9652L220.262 60.0619L219.58 60.2989C219.469 60.3424 219.367 60.4004 219.261 60.4536C219.154 60.5023 219.05 60.5589 218.951 60.6228L218.676 60.8307C218.591 60.8999 218.514 60.9795 218.449 61.0676C218.411 61.109 218.375 61.1526 218.342 61.1982L218.275 61.3384L218.197 61.4835L218.163 61.6382L218.125 61.7929C218.125 61.8509 218.125 61.9041 218.125 61.9573V62.1217L218.158 62.2861C218.174 62.3968 218.201 62.5054 218.241 62.6101C218.277 62.7217 218.322 62.83 218.376 62.934C218.476 63.1464 218.596 63.3488 218.734 63.5384C218.868 63.733 219.018 63.9157 219.184 64.0848L219.329 64.2298L219.198 64.4184C219.113 64.5209 219.036 64.6291 218.966 64.7424C218.895 64.8488 218.835 64.9622 218.787 65.0808C218.699 65.3071 218.678 65.5535 218.724 65.7916C218.782 66.0345 218.894 66.2611 219.053 66.454C219.223 66.6605 219.418 66.8456 219.633 67.0052C220.084 67.334 220.57 67.6098 221.084 67.8272C221.6 68.0553 222.132 68.2475 222.675 68.4025L222.921 68.4702L222.868 68.7168L221.853 73.2764C221.509 74.7994 221.209 76.3273 220.886 77.8504C220.562 79.3735 220.276 80.9014 219.977 82.4293C219.677 83.9572 219.411 85.4899 219.13 87.0227C218.85 88.5554 218.603 90.0881 218.347 91.6257C218.091 93.1633 217.864 94.7008 217.646 96.2384C217.428 97.776 217.245 99.3281 217.051 100.87C216.858 102.413 216.703 103.96 216.597 105.512C216.534 106.291 216.461 107.064 216.413 107.838L216.282 110.168C216.234 110.942 216.229 111.721 216.2 112.499C216.171 113.277 216.162 114.051 216.166 114.83C216.171 115.608 216.166 116.382 216.195 117.16C216.224 117.939 216.239 118.712 216.307 119.486C216.374 120.259 216.408 121.033 216.515 121.802L216.65 122.957C216.703 123.344 216.771 123.726 216.834 124.108C217.078 125.638 217.448 127.145 217.941 128.614C218.409 130.092 219.109 131.486 220.015 132.744C220.915 134.012 222.168 134.987 223.617 135.548C223.98 135.684 224.352 135.795 224.729 135.882L225.305 135.964L225.595 136.007H225.885C226.683 136.051 227.484 135.998 228.269 135.848Z" fill="#D15A5A"/>
<path d="M162.071 67.247C162.071 67.247 165.673 79.5476 177.369 79.2478C189.066 78.948 189.365 66.9472 189.365 66.9472C189.365 66.9472 206.772 63.9494 210.065 72.0483C213.357 80.1471 211.568 165.047 211.568 165.047L147.072 163.558C147.072 163.558 138.069 74.1564 142.571 70.8588C147.072 67.5613 162.071 67.247 162.071 67.247Z" fill="#0096C8"/>
<path d="M183.945 108.67C174.947 102.867 167.312 95.281 159.673 87.8397C154.074 82.3857 148.344 76.6367 143.958 70.0609C143.471 70.2763 143.006 70.5404 142.571 70.8491C138.069 74.1466 140.946 163.548 140.946 163.548L211.573 165.047C211.573 165.047 212.032 143.371 212.056 120.878C202.202 118.108 192.576 114.24 183.945 108.67Z" fill="#0096C8"/>
<path d="M142.571 70.8492C142.241 71.207 142.013 71.6458 141.908 72.1208C141.773 72.5854 141.662 73.0567 141.575 73.5327C141.396 74.4997 141.27 75.4425 141.159 76.4047C140.946 78.3388 140.811 80.2728 140.699 82.2069C140.482 86.075 140.38 89.9431 140.308 93.8112C140.172 101.547 140.158 109.308 140.216 117.059C140.342 132.554 140.664 148.047 141.183 163.539L140.961 163.321L158.618 163.689L176.271 164.09L211.568 164.897L211.413 165.047L211.689 126.12L212.018 87.1919L211.897 126.12L211.718 165.047V165.202H211.563L176.267 164.506L158.614 164.162L140.956 163.776H140.738V163.558C140.293 148.06 140.022 132.56 139.926 117.059C139.926 113.19 139.926 109.322 139.926 105.454C139.955 101.586 139.993 97.718 140.1 93.8257C140.206 89.9334 140.351 86.0895 140.583 82.2214C140.714 80.2873 140.869 78.3533 141.096 76.4192C141.217 75.4522 141.352 74.4852 141.541 73.5472C141.63 73.0704 141.747 72.5991 141.889 72.1353C141.998 71.6536 142.233 71.2096 142.571 70.8492Z" fill="#1B4268"/>
<path d="M138.369 73.847C138.369 73.847 116.471 123.349 123.67 132.352C130.87 141.355 185.773 119.452 185.773 119.452L173.172 110.154L145.873 113.756L159.073 78.658L138.369 73.847Z" fill="#FFAC9D"/>
<path d="M160.591 128.31C173.97 124.157 185.773 119.447 185.773 119.447L173.173 110.149L148.479 113.403C150.902 119.375 155.389 124.166 160.591 128.31Z" fill="#F29083"/>
<path d="M148.267 107.364L159.068 78.6483L138.364 73.847C138.364 73.847 133.017 85.9349 128.477 99.2557C134.356 103.462 141.159 105.957 148.267 107.364Z" fill="#F29083"/>
<path d="M130.067 119.346C130.067 119.346 130.208 119.239 130.493 119.065C130.778 118.891 131.184 118.625 131.731 118.33C132.277 118.035 132.949 117.697 133.723 117.315C134.496 116.933 135.405 116.565 136.392 116.159L137.953 115.598C138.495 115.405 139.051 115.192 139.641 115.033C140.816 114.704 142.034 114.273 143.345 114.027L145.327 113.592L145.84 113.481L146.323 113.398L147.348 113.234L151.521 112.562C152.923 112.359 154.311 112.112 155.703 111.967L159.77 111.484C161.085 111.324 162.366 111.189 163.575 111.053L166.988 110.729C171.214 110.333 174.043 110.164 174.043 110.164L167.022 111.068L163.638 111.488C162.434 111.658 161.167 111.837 159.852 112.001L155.8 112.523C154.422 112.683 153.029 112.949 151.627 113.157L147.455 113.79L146.425 113.945L145.912 114.022L145.429 114.124L143.461 114.539C142.16 114.781 140.942 115.158 139.767 115.458C139.177 115.598 138.621 115.792 138.074 115.966L136.508 116.478C136.024 116.657 135.541 116.851 135.091 117.02C134.641 117.189 134.206 117.339 133.815 117.503C133.026 117.851 132.335 118.137 131.784 118.427C131.233 118.717 130.817 118.91 130.507 119.08C130.198 119.249 130.067 119.346 130.067 119.346Z" fill="#D15A5A"/>
<path d="M162.071 67.247C162.071 67.247 146.173 54.0471 135.961 70.2496C125.75 86.4522 125.16 92.4477 125.16 92.4477C125.16 92.4477 141.662 103.849 155.461 105.648L162.071 67.247Z" fill="#0096C8"/>
<path d="M146.333 62.412L145.172 62.7021C144.79 62.8036 144.423 62.968 144.051 63.0985C143.677 63.2299 143.315 63.3916 142.968 63.5821C142.605 63.7458 142.258 63.9399 141.928 64.1623C141.599 64.3799 141.261 64.5829 140.937 64.815L140.018 65.5693C139.712 65.8211 139.423 66.0924 139.153 66.3816C138.882 66.6669 138.582 66.928 138.336 67.2374L137.581 68.1561C137.46 68.3108 137.33 68.4607 137.214 68.6396L136.88 69.1231C136.435 69.7807 135.981 70.4238 135.589 71.1152L133.143 75.2154C132.722 75.8923 132.35 76.5934 131.972 77.2897L130.86 79.3784C130.478 80.0747 130.092 80.7661 129.753 81.4866L128.699 83.6237C128.336 84.3296 128.022 85.0742 127.708 85.785C127.394 86.4958 127.05 87.2355 126.784 87.9753C126.518 88.7151 126.209 89.4259 125.991 90.2091L125.648 91.3406C125.571 91.7177 125.455 92.1094 125.411 92.472L125.314 92.2592C126.456 93.028 127.626 93.7726 128.81 94.4882C129.995 95.2038 131.189 95.9098 132.398 96.5867C132.998 96.93 133.607 97.2588 134.216 97.5876C134.825 97.9163 135.43 98.25 136.049 98.5546C136.667 98.8592 137.277 99.1977 137.9 99.4926L139.772 100.392L141.667 101.238C142.295 101.528 142.939 101.784 143.601 102.041C144.263 102.297 144.877 102.577 145.535 102.795L147.469 103.496C148.122 103.709 148.789 103.902 149.447 104.105C150.104 104.308 150.776 104.482 151.448 104.642C152.12 104.802 152.783 105.005 153.465 105.101L155.505 105.459L155.297 105.614L157.275 94.4931L159.301 83.4061L157.507 94.5269L155.665 105.648L155.631 105.827L155.457 105.798L153.392 105.459C152.701 105.367 152.029 105.164 151.347 105.019C150.665 104.874 149.993 104.7 149.331 104.482C148.668 104.265 147.991 104.091 147.329 103.878L145.366 103.216C144.703 102.998 144.07 102.732 143.432 102.461C142.794 102.191 142.141 101.954 141.498 101.664L139.564 100.817L137.678 99.9229C137.049 99.628 136.435 99.2992 135.816 98.9897C135.198 98.6803 134.579 98.3515 133.969 98.0227C133.36 97.6939 132.741 97.37 132.142 97.017C130.926 96.3337 129.729 95.6277 128.549 94.8992C127.36 94.174 126.19 93.4487 125.034 92.6412L124.923 92.5639V92.4285C124.976 92.003 125.097 91.6307 125.179 91.2294L125.542 90.0641C125.769 89.2905 126.088 88.5604 126.354 87.8061C126.62 87.0518 126.983 86.3555 127.292 85.6013C127.602 84.847 127.93 84.1507 128.298 83.4303L129.371 81.2883C129.714 80.5727 130.111 79.8813 130.503 79.185L131.673 77.0963C132.064 76.4048 132.441 75.7037 132.872 75.0317L135.367 70.9605C135.763 70.2739 136.232 69.6163 136.692 68.9684L137.035 68.4849C137.161 68.3302 137.291 68.1803 137.422 68.0014L138.195 67.0875C138.456 66.7829 138.766 66.5218 139.046 66.2414C139.322 65.9538 139.618 65.6856 139.931 65.4388L140.898 64.699C141.222 64.4717 141.57 64.2735 141.909 64.0559C142.595 63.6521 143.315 63.3076 144.06 63.026C144.442 62.9051 144.81 62.7456 145.197 62.6537L146.333 62.412Z" fill="#1B4268"/>
<path d="M199.872 107.751C186.072 90.9489 182.17 91.2486 177.069 94.8508C171.968 98.453 169.27 96.9493 169.27 96.9493C159.673 91.2487 152.666 84.2329 146.772 94.5317C140.772 105.053 174.376 142.849 190.569 140.751C206.762 138.652 213.671 124.548 199.872 107.751ZM190.003 106.678C189.152 108.413 185.395 108.317 181.614 106.46C177.833 104.603 175.454 101.693 176.296 99.9567C177.137 98.2209 180.908 98.3225 184.689 100.174C188.471 102.026 190.854 104.942 190.003 106.678Z" fill="white"/>
<path d="M175.571 100.846C175.571 100.846 178.269 96.05 181.856 95.7502C185.444 95.4504 200.157 102.95 185.159 100.846C185.173 100.846 182.471 111.75 175.571 100.846Z" fill="#FFAC9D"/>
<path d="M159.47 112.649C161.9 112.649 163.87 110.679 163.87 108.249C163.87 105.819 161.9 103.849 159.47 103.849C157.04 103.849 155.07 105.819 155.07 108.249C155.07 110.679 157.04 112.649 159.47 112.649Z" fill="#965450"/>
<path d="M169.067 123.847C171.498 123.847 173.467 121.877 173.467 119.447C173.467 117.017 171.498 115.047 169.067 115.047C166.637 115.047 164.667 117.017 164.667 119.447C164.667 121.877 166.637 123.847 169.067 123.847Z" fill="#6F96BD"/>
<path d="M185.381 132.158C187.099 130.44 187.099 127.654 185.381 125.936C183.662 124.218 180.876 124.218 179.158 125.936C177.44 127.654 177.44 130.44 179.158 132.158C180.876 133.877 183.662 133.877 185.381 132.158Z" fill="#5D8584"/>
<path d="M195.467 133.846C197.897 133.846 199.867 131.876 199.867 129.446C199.867 127.016 197.897 125.046 195.467 125.046C193.037 125.046 191.067 127.016 191.067 129.446C191.067 131.876 193.037 133.846 195.467 133.846Z" fill="#FFA65B"/>
<path d="M197.067 120.245C199.497 120.245 201.467 118.275 201.467 115.845C201.467 113.415 199.497 111.445 197.067 111.445C194.637 111.445 192.667 113.415 192.667 115.845C192.667 118.275 194.637 120.245 197.067 120.245Z" fill="#FC6A5A"/>
<path d="M63.5065 139.068C63.5065 139.068 42.0675 161.653 42.8073 215.778H119.343C119.343 215.778 120.861 153.69 92.5657 141.157C64.2705 128.624 63.5065 139.068 63.5065 139.068Z" fill="#0096C8"/>
<path d="M76.2232 193.454C70.3823 191.964 63.9806 189.653 58.4396 187.516C54.0879 185.843 49.1948 184.015 45.6458 181.264C44.0986 186.438 42.7447 206.847 42.7979 215.777H76.2232V193.454Z" fill="#0096C8"/>
<path d="M98.6244 144.585C96.722 143.247 94.6928 142.099 92.566 141.157C64.266 128.619 63.5069 139.068 63.5069 139.068C61.7647 140.94 60.2071 142.975 58.8555 145.146C72.0738 146.802 85.4581 146.613 98.6244 144.585Z" fill="#0096C8"/>
<path d="M119.343 215.778C119.343 215.778 120.861 153.69 92.5659 141.157C64.2707 128.624 63.5067 139.068 63.5067 139.068C63.5067 139.068 42.5512 159.236 42.8075 215.778" stroke="#1B4268" stroke-width="0.5" stroke-miterlimit="10"/>
<path d="M49.833 183.803C50.3649 184.044 50.9016 184.286 51.4383 184.513C51.975 184.741 52.502 184.997 53.0435 185.215L54.6585 185.896C55.1952 186.133 55.7415 186.336 56.2831 186.559L57.9077 187.216C58.4444 187.439 58.9908 187.647 59.542 187.85L62.825 189.073L66.1419 190.19C66.6931 190.378 67.2443 190.577 67.8052 190.727L69.4878 191.21L71.1705 191.694C71.7265 191.868 72.297 191.979 72.8676 192.105L76.2764 192.849H76.1797L83.2099 191.399C85.555 190.915 87.8952 190.432 90.2451 189.992L97.285 188.618L104.339 187.303L97.3382 188.875L90.3273 190.388C87.9919 190.901 85.6469 191.355 83.3066 191.868L76.286 193.318H76.228H76.1845L72.7467 192.54C72.1762 192.409 71.6008 192.293 71.0447 192.114L69.3573 191.631L67.6698 191.147C67.1041 190.992 66.5529 190.789 66.0017 190.596L62.6848 189.445L59.4211 188.154C58.8763 187.942 58.3348 187.719 57.7965 187.487L56.1864 186.791C55.6497 186.554 55.1081 186.331 54.5811 186.075L52.9855 185.34C51.9266 184.833 50.8774 184.349 49.833 183.803Z" fill="#1B4268"/>
<path d="M76.049 215.777L75.9717 204.444V193.115H76.489C76.489 193.115 76.489 198.777 76.489 204.444C76.489 210.111 76.4068 215.777 76.4068 215.777H76.049Z" fill="#1B4268"/>
<path d="M90.5349 80.5145C90.5349 80.5145 88.4219 97.9549 91.1006 97.5004C93.7793 97.0458 105.026 90.6683 107.395 102.113C109.764 113.558 93.5665 136.443 93.5665 136.443L57.3997 136.012C57.3997 136.012 51.3316 101.359 60.939 97.9258C70.5464 94.4929 76.5807 104.008 76.2422 89.1694C75.8989 74.108 90.5349 80.5145 90.5349 80.5145Z" fill="#965450"/>
<path d="M75.812 95.2569C76.0999 93.2373 76.2437 91.1998 76.2423 89.1598C76.5566 74.0935 90.535 80.5146 90.535 80.5146C90.535 80.5146 90.0031 84.929 89.8097 89.2613C86.2656 91.8288 79.8832 94.1351 75.812 95.2569Z" fill="#76413B"/>
<path d="M72.8385 48.0951C72.8385 48.0951 64.8606 42.0221 56.3169 55.5025C47.7732 68.9829 57.4531 83.0628 68.4676 83.232C79.482 83.4012 72.8385 48.0951 72.8385 48.0951Z" fill="#EFC8A8"/>
<path d="M72.8385 48.0951C72.8385 48.0951 64.8606 42.0221 56.3169 55.5025C47.7732 68.9829 57.4531 83.0628 68.4676 83.232C79.482 83.4012 72.8385 48.0951 72.8385 48.0951Z" stroke="#C98D61" stroke-width="1.06" stroke-miterlimit="10"/>
<path d="M78.6648 50.5078C78.6648 50.5078 64.1207 49.1685 62.4284 65.3178C60.2768 85.872 72.6644 98.2692 84.5588 89.155C96.4532 80.0408 98.0537 50.0243 78.6648 50.5078Z" fill="#965450"/>
<path d="M90.8398 75.4957C90.8398 75.4957 91.7391 66.5121 95.6749 68.272C99.6107 70.032 97.1255 82.0328 90.4385 78.6096" fill="#965450"/>
<path d="M78.6647 50.5077C78.6647 50.5077 78.3504 50.4835 77.7654 50.5077C76.9177 50.5306 76.0727 50.613 75.2366 50.7543C73.9444 50.9762 72.6833 51.3511 71.4797 51.8712C69.7815 52.5915 68.2465 53.6476 66.9669 54.9763C65.6873 56.3049 64.6895 57.8785 64.0336 59.6026C63.2395 61.6918 62.7667 63.8894 62.6314 66.1203C62.4211 68.5091 62.4211 70.9117 62.6314 73.3005C62.835 75.7678 63.3301 78.2023 64.1061 80.5532C64.8524 82.8993 65.9973 85.0992 67.4907 87.0565C68.2284 88.0012 69.0756 88.8549 70.0147 89.5998C70.9373 90.3099 71.9586 90.8817 73.0463 91.2969C74.1002 91.6918 75.2137 91.9044 76.339 91.9255C77.4208 91.9609 78.5013 91.8238 79.5399 91.5193C81.4581 90.9557 83.2426 90.01 84.786 88.7391C86.1063 87.6727 87.2701 86.426 88.2431 85.0354C88.7266 84.4358 89.0554 83.8073 89.4132 83.2561C89.771 82.7048 90.0176 82.1488 90.2835 81.6701C90.7671 80.7031 91.1055 79.8956 91.3038 79.3444L91.6374 78.508L91.3328 79.3541C91.149 79.915 90.8154 80.7079 90.3657 81.7136C90.1191 82.1972 89.8581 82.7532 89.5438 83.3383C89.2295 83.9233 88.8765 84.5422 88.422 85.1659C88.1996 85.4754 87.9965 85.8187 87.7354 86.133L86.9473 87.1C86.3509 87.7792 85.7044 88.4128 85.0132 88.9954C83.4473 90.3284 81.6285 91.3315 79.6656 91.9448C78.5861 92.2814 77.46 92.4446 76.3293 92.4283C75.1453 92.4245 73.9714 92.21 72.8626 91.7949C71.7182 91.3681 70.6429 90.7751 69.6714 90.0349C68.6908 89.2671 67.8046 88.3858 67.0314 87.4094C65.482 85.4067 64.2911 83.1508 63.5114 80.7418C62.7413 78.3458 62.2545 75.8678 62.0609 73.3585C61.8646 70.9362 61.8792 68.5014 62.1044 66.0816C62.2543 63.8001 62.7685 61.5572 63.6275 59.4382C64.3932 57.5344 65.5552 55.8154 67.0362 54.3951C68.2991 53.2115 69.776 52.2794 71.3878 51.6488C72.6193 51.16 73.905 50.8208 75.2173 50.6382C76.0581 50.5191 76.9065 50.4609 77.7557 50.4642C78.3504 50.4738 78.6647 50.5077 78.6647 50.5077Z" fill="#54201C"/>
<path d="M92.5659 47.3359C92.5659 47.3359 80.7875 36.6986 93.1364 31.5734C105.485 26.4481 105.481 44.1109 97.314 46.7702C97.314 46.7702 101.298 47.5293 104.91 40.4845C104.91 40.499 103.58 53.4137 92.5659 47.3359Z" fill="#EFC8A8"/>
<path d="M92.5657 47.3361C91.8733 46.6839 91.2271 45.9844 90.6317 45.2425C90.0236 44.5036 89.4724 43.7197 88.9829 42.8975C88.4896 42.0755 88.0968 41.1973 87.8128 40.2817C87.5188 39.3646 87.4151 38.3971 87.5082 37.4386C87.6205 36.4725 87.9766 35.5507 88.5429 34.7599C89.1138 33.9767 89.8234 33.3048 90.6365 32.7775C91.4398 32.2403 92.2931 31.7821 93.1846 31.4092C93.6343 31.2496 94.0598 31.0465 94.5336 30.9257L95.2396 30.7226C95.4765 30.6694 95.7231 30.6307 95.9552 30.5872C96.9166 30.4125 97.9033 30.4339 98.8563 30.6501C99.8297 30.8928 100.711 31.4156 101.39 32.1538C102.059 32.8905 102.555 33.7678 102.84 34.7213C103.12 35.6626 103.257 36.6405 103.247 37.6223C103.245 39.5851 102.735 41.5139 101.767 43.2214C101.282 44.0766 100.662 44.8473 99.9297 45.5036C99.1915 46.1555 98.3276 46.6492 97.3912 46.9541L97.3622 46.5287C97.5585 46.5458 97.7558 46.5458 97.9521 46.5287C98.1569 46.5082 98.3603 46.4759 98.5613 46.4319C98.7644 46.3981 98.9626 46.3159 99.1609 46.2627C99.3591 46.2095 99.5525 46.1128 99.7411 46.021C99.9297 45.9291 100.118 45.8324 100.297 45.7212L100.829 45.3779L101.313 44.9862C101.487 44.8605 101.627 44.701 101.796 44.5608C101.956 44.4178 102.108 44.2661 102.251 44.1062L102.676 43.6227C102.821 43.4632 102.942 43.2843 103.077 43.1392C103.213 42.9942 103.343 42.8008 103.464 42.6267L103.822 42.0852C103.933 41.9063 104.064 41.7322 104.17 41.5436L104.803 40.4219L105.113 39.8755L105.036 40.4896C104.928 41.2258 104.767 41.9531 104.552 42.6654C104.346 43.3769 104.082 44.0706 103.764 44.7397C103.6 45.0733 103.425 45.3972 103.232 45.7067C103.035 46.0203 102.822 46.3237 102.594 46.6157C102.358 46.9022 102.103 47.172 101.83 47.4232C101.556 47.6714 101.261 47.8962 100.95 48.0952C100.635 48.2899 100.301 48.4519 99.9538 48.5788C99.7831 48.6496 99.6069 48.7062 99.4268 48.748C99.2501 48.8017 99.0688 48.8389 98.8853 48.8592C98.519 48.9172 98.1488 48.9463 97.778 48.9462C97.4104 48.9326 97.0439 48.8971 96.6804 48.8399C96.3164 48.7816 95.9563 48.7009 95.6022 48.5981C95.2444 48.5062 94.9011 48.3612 94.553 48.2451L93.5424 47.8051L92.5657 47.3361ZM92.5657 47.3361L93.5328 47.8196L94.5481 48.25C94.9011 48.3612 95.2396 48.5014 95.5974 48.5884C95.9512 48.6898 96.3114 48.7674 96.6756 48.8205C97.0388 48.8785 97.4055 48.9124 97.7732 48.922C98.1394 48.9186 98.5048 48.8863 98.8659 48.8253C99.048 48.8034 99.2277 48.7646 99.4026 48.7093C99.5795 48.6675 99.7526 48.6109 99.92 48.5401C100.258 48.413 100.582 48.251 100.887 48.0566C101.195 47.8606 101.485 47.6373 101.753 47.3893C102.016 47.1345 102.262 46.8614 102.487 46.5722C102.709 46.281 102.914 45.9775 103.101 45.6632C103.28 45.3489 103.45 45.0249 103.585 44.6961C103.883 44.0279 104.129 43.3377 104.32 42.6315C104.513 41.9272 104.653 41.2097 104.741 40.4847L104.968 40.5524L104.397 41.7129C104.291 41.9014 104.165 42.0803 104.054 42.2689L103.701 42.8201C103.58 43.0038 103.445 43.1731 103.319 43.352C103.193 43.5309 103.063 43.7098 102.923 43.8742L102.492 44.3577C102.342 44.529 102.18 44.6905 102.009 44.8412C101.849 44.9911 101.704 45.1555 101.525 45.2909L101.013 45.7115L100.462 46.0838C100.273 46.2047 100.075 46.3014 99.8813 46.4126C99.6879 46.5238 99.4703 46.5963 99.2672 46.6834C99.0642 46.7704 98.8418 46.8381 98.6193 46.8816C98.398 46.9336 98.1735 46.9707 97.9472 46.9928C97.7127 47.0193 97.4759 47.0193 97.2413 46.9928L96.342 46.8574L97.2123 46.5625C98.0898 46.2623 98.8962 45.7851 99.5815 45.1603C100.268 44.5323 100.85 43.7976 101.303 42.9845C101.761 42.171 102.108 41.2992 102.333 40.3929C102.571 39.488 102.699 38.5578 102.715 37.6223C102.733 36.6906 102.611 35.7615 102.352 34.8663C102.098 33.9732 101.648 33.1475 101.037 32.4487C100.413 31.7703 99.61 31.2811 98.7209 31.0369C97.8172 30.816 96.8785 30.7782 95.96 30.9257C95.0251 31.0692 94.11 31.3207 93.233 31.6751C92.3529 32.0217 91.5092 32.4541 90.7139 32.9661C89.9085 33.4604 89.2032 34.1017 88.6348 34.8566C88.064 35.6138 87.6962 36.5042 87.5662 37.4434C87.4559 38.3897 87.5465 39.3486 87.8321 40.2575C88.1066 41.1711 88.4914 42.0479 88.9781 42.8685C89.457 43.6936 89.9985 44.4808 90.5978 45.2232C91.2048 45.9716 91.8623 46.6776 92.5657 47.3361Z" fill="#C98D61"/>
<path d="M93.4994 48.1758C95.54 47.3456 96.5212 45.0182 95.6909 42.9776C94.8606 40.937 92.5333 39.9558 90.4927 40.7861C88.4521 41.6164 87.4709 43.9437 88.3012 45.9843C89.1315 48.0249 91.4588 49.0061 93.4994 48.1758Z" fill="#6F96BD"/>
<path d="M70.7256 47.1473C70.7256 47.1473 70.5322 68.2285 91.4249 73.3537C91.4249 73.3537 91.1396 67.5129 95.2253 68.6104C99.311 69.708 96.7435 75.4473 96.7435 75.4473C96.7435 75.4473 108.135 63.843 97.1206 49.0475C87.7308 36.4181 70.7256 47.1473 70.7256 47.1473Z" fill="#FDDEC0"/>
<path d="M96.7435 75.4474C97.5464 74.544 98.259 73.5643 98.871 72.5221C99.4912 71.4903 100.02 70.4064 100.452 69.2826C101.332 67.0401 101.78 64.6515 101.772 62.2426C101.771 61.0438 101.648 59.8482 101.405 58.6743C101.355 58.379 101.289 58.0868 101.206 57.7991C101.129 57.509 101.066 57.2189 100.974 56.9288C100.786 56.3631 100.621 55.7877 100.384 55.2365C99.9407 54.1235 99.4171 53.0441 98.8178 52.0066C98.5083 51.4941 98.1844 50.9864 97.8507 50.4836C97.5171 49.9807 97.1642 49.4875 96.8064 49.033C96.4436 48.5543 96.0528 48.0974 95.6363 47.6647C95.4283 47.4568 95.2349 47.2295 95.0174 47.0313L94.3453 46.4414C93.435 45.6706 92.4291 45.0205 91.3523 44.5073C90.2722 44.0084 89.1357 43.6415 87.9677 43.4146C86.8037 43.2167 85.6232 43.1325 84.4429 43.1632C83.2496 43.1891 82.0607 43.3169 80.8891 43.5451C79.7115 43.766 78.5489 44.0599 77.4078 44.4251C76.267 44.7952 75.1469 45.2262 74.0522 45.7161C72.9574 46.1965 71.8933 46.7439 70.8659 47.3552L70.9771 47.1618C70.9854 47.9019 71.0322 48.6411 71.1173 49.3763C71.1995 50.1161 71.3107 50.8559 71.4461 51.586C71.5815 52.3161 71.741 53.0365 71.9296 53.7715C72.1182 54.5064 72.3261 55.222 72.5582 55.9134C72.7902 56.6048 73.0417 57.3205 73.3414 58.0119C73.6412 58.7033 73.9362 59.3754 74.3085 60.0378C74.468 60.3714 74.6518 60.7002 74.8355 61.0048C75.0192 61.3094 75.203 61.6576 75.406 61.9718C75.7929 62.6101 76.2329 63.2145 76.6632 63.8237C77.0935 64.4329 77.5867 64.9986 78.1137 65.5402L78.486 65.9608L78.8825 66.3525C79.1533 66.6136 79.4047 66.8892 79.6851 67.1358L80.5265 67.8707C80.8117 68.1173 81.1163 68.3542 81.4065 68.567C81.6953 68.8044 81.9972 69.0255 82.3106 69.2294L83.2341 69.8628C83.8869 70.2303 84.5106 70.6509 85.1682 70.97L86.1691 71.4777L87.2038 71.9226C87.8855 72.2368 88.6011 72.4544 89.3071 72.7155C90.013 72.9766 90.7576 73.141 91.4635 73.3538C90.7431 73.1555 90.013 72.9863 89.2926 72.759C88.5721 72.5318 87.842 72.3142 87.1651 72.0096L86.1207 71.5841L85.1005 71.1006C84.4139 70.7911 83.7757 70.385 83.1133 70.0272L82.1462 69.4131C81.8271 69.21 81.5225 68.9925 81.2227 68.7604C80.9229 68.5283 80.6087 68.3204 80.3234 68.0738L79.4434 67.3388C79.1533 67.0923 78.897 66.8167 78.6214 66.5604L78.2153 66.1639L77.8333 65.7481C77.3111 65.2017 76.8421 64.607 76.3827 64.0219C75.9234 63.4369 75.4882 62.8083 75.0869 62.1653C74.8742 61.851 74.6856 61.5222 74.497 61.1982C74.3085 60.8743 74.1151 60.5406 73.9458 60.207C73.588 59.5398 73.2689 58.8532 72.9788 58.1618C72.6887 57.4703 72.4083 56.7596 72.1617 56.044C71.9151 55.3284 71.7023 54.5934 71.5138 53.873C71.3252 53.1526 71.1511 52.4225 71.0302 51.6633C70.9094 50.9042 70.774 50.1693 70.687 49.4198C70.5999 48.6704 70.5419 47.9161 70.5322 47.1473V47.0313L70.6434 46.9636C71.6873 46.3346 72.7693 45.771 73.883 45.2761C74.9858 44.7735 76.1157 44.3329 77.2676 43.9561C78.4244 43.5756 79.6052 43.272 80.8021 43.0471C82.0029 42.8208 83.221 42.6979 84.4429 42.6797C85.6683 42.6585 86.8927 42.7589 88.0983 42.9794C89.3045 43.2168 90.477 43.6017 91.5892 44.1254C92.7011 44.6507 93.7398 45.3187 94.6789 46.1126L95.3655 46.7218C95.5927 46.9297 95.7958 47.1618 96.0086 47.3842C96.4281 47.8238 96.822 48.2871 97.1883 48.7719C97.5703 49.2554 97.8943 49.768 98.2521 50.266C98.6099 50.764 98.8951 51.2959 99.2191 51.8229C99.8215 52.8824 100.342 53.9864 100.776 55.1253C101.008 55.6862 101.172 56.2761 101.356 56.8563C101.443 57.1464 101.506 57.4462 101.583 57.7411C101.661 58.036 101.724 58.3358 101.772 58.6356C102.005 59.8317 102.115 61.0484 102.101 62.2668C102.098 63.4841 101.968 64.6978 101.714 65.8883C101.462 67.0756 101.103 68.2376 100.641 69.3599C100.182 70.483 99.6249 71.5638 98.9773 72.5898C98.3274 73.6127 97.5793 74.5698 96.7435 75.4474Z" fill="#C98D61"/>
<path d="M64.3289 71.1344C64.3289 71.1344 64.3579 71.3133 64.4111 71.6179C64.4851 72.0343 64.5836 72.446 64.7061 72.8509C64.8575 73.4098 65.0922 73.9428 65.4023 74.432C65.4927 74.5545 65.5912 74.6708 65.6973 74.7801C65.8056 74.8798 65.9258 74.9659 66.0551 75.0363C66.3187 75.1769 66.6193 75.2326 66.9157 75.1959H66.9447H67.0124L67.143 75.1717C67.2252 75.1717 67.317 75.1331 67.3944 75.1089C67.6779 75.0015 67.9363 74.8369 68.1535 74.6254C68.2681 74.5221 68.3733 74.4088 68.4678 74.2869C68.8126 73.8218 69.0803 73.3043 69.2608 72.7542C69.4018 72.356 69.5165 71.9489 69.6041 71.5357C69.6718 71.2311 69.7008 71.0522 69.7008 71.0522C69.7382 71.6487 69.6926 72.2475 69.5654 72.8315C69.5079 73.1197 69.4271 73.4027 69.3236 73.6777C69.2013 73.9938 69.0388 74.2928 68.8401 74.5673C68.7436 74.7213 68.6283 74.8626 68.4968 74.988C68.3659 75.1268 68.2181 75.2486 68.0568 75.3506C67.8821 75.4581 67.6975 75.5488 67.5056 75.6214L67.2493 75.6843L67.1188 75.7133H67.0559H66.9544C66.5484 75.7519 66.1402 75.6659 65.7843 75.4667C65.4547 75.271 65.1802 74.9948 64.9865 74.664C64.6732 74.115 64.468 73.511 64.3821 72.8847C64.3179 72.4574 64.2872 72.0258 64.2902 71.5937C64.3096 71.3133 64.3289 71.1344 64.3289 71.1344Z" fill="#1C171E"/>
<path d="M78.3747 71.3714C78.3747 71.3714 78.3989 71.5454 78.4569 71.8549C78.5309 72.2713 78.6294 72.683 78.7518 73.0878C78.9011 73.6476 79.136 74.1809 79.4481 74.6689C79.5384 74.7915 79.637 74.9078 79.743 75.0171C79.8514 75.1168 79.9715 75.2028 80.1008 75.2733C80.3618 75.4163 80.6617 75.4722 80.9566 75.4329H80.9905H81.0533H81.1839C81.2709 75.4329 81.3628 75.399 81.4402 75.3749C81.574 75.3173 81.7047 75.2527 81.8318 75.1815C81.9607 75.0989 82.0821 75.005 82.1944 74.901C82.3115 74.8002 82.4169 74.6867 82.5087 74.5626C82.8558 74.0982 83.1253 73.5805 83.3065 73.0298C83.4475 72.6316 83.5622 72.2246 83.6498 71.8114C83.7175 71.5068 83.7465 71.3279 83.7465 71.3279C83.7839 71.9244 83.7384 72.5232 83.6111 73.1072C83.5519 73.3954 83.4695 73.6784 83.3645 73.9533C83.2434 74.2715 83.0809 74.5722 82.881 74.8478C82.78 74.9984 82.6633 75.1377 82.5329 75.2637C82.403 75.4036 82.255 75.5255 82.0929 75.6263C81.9204 75.7347 81.7373 75.8254 81.5465 75.8971C81.4547 75.9261 81.3725 75.9357 81.2854 75.9599L81.1597 75.9889H81.092H80.9953C80.5878 76.0273 80.1781 75.9413 79.8204 75.7423C79.4929 75.5439 79.219 75.2684 79.0226 74.9397C78.7113 74.3919 78.5078 73.7895 78.423 73.1652C78.3565 72.7366 78.3258 72.3031 78.3312 71.8694C78.3351 71.7026 78.3497 71.5363 78.3747 71.3714Z" fill="#1C171E"/>
<path d="M72.4469 71.4682C72.4179 71.8502 72.3695 72.2225 72.326 72.5948C72.2825 72.9671 72.2341 73.3443 72.181 73.7166C72.0697 74.4612 71.944 75.201 71.8086 75.9407C71.7458 76.313 71.6684 76.6805 71.5959 77.048C71.5234 77.4155 71.4509 77.7878 71.3687 78.1504C71.2139 78.8853 71.0399 79.6009 70.861 80.3504L70.6434 80.0361C71.2139 80.1521 71.7845 80.2682 72.3502 80.3939C72.6355 80.4568 72.9159 80.5341 73.1963 80.6018C73.4768 80.6695 73.762 80.742 74.0425 80.8242C73.7524 80.8242 73.4623 80.8242 73.1722 80.7807C72.882 80.7372 72.5871 80.7469 72.3018 80.7227C71.7216 80.6792 71.1414 80.6163 70.566 80.5535C70.5001 80.5462 70.4397 80.5131 70.3981 80.4615C70.3564 80.4098 70.3368 80.3438 70.3436 80.2779V80.244C70.4742 79.4994 70.6047 78.7596 70.7594 78.0247C70.8271 77.6572 70.9093 77.2897 70.9915 76.9223C71.0737 76.5548 71.1462 76.1873 71.2381 75.8247C71.4073 75.0898 71.5862 74.3742 71.7845 73.6344C71.886 73.2717 71.9875 72.9091 72.0988 72.5513C72.21 72.1935 72.3212 71.826 72.4469 71.4682Z" fill="#54201C"/>
<path d="M72.2437 83.4205C72.2437 83.4205 77.3689 88.5506 82.499 82.85L72.2437 83.4205Z" fill="white"/>
<path d="M93.3155 77.6619C93.5179 77.466 93.6964 77.2469 93.8473 77.0091C93.9187 76.8977 93.971 76.7751 94.0021 76.6465C94.0132 76.5874 94.0132 76.5267 94.0021 76.4676C94.005 76.4097 93.9951 76.3519 93.9731 76.2984C93.9731 76.2452 93.9247 76.2017 93.9005 76.1533C93.8763 76.105 93.8232 76.0711 93.7845 76.0324C93.7436 75.9868 93.6921 75.9519 93.6346 75.9309L93.475 75.839L93.2865 75.7762C93.2279 75.7481 93.1662 75.727 93.1027 75.7133L92.7062 75.6166C92.6562 75.6052 92.6112 75.5778 92.578 75.5385C92.5449 75.4993 92.5254 75.4503 92.5225 75.399C92.4984 74.961 92.4984 74.5219 92.5225 74.0839C92.5422 73.6444 92.5906 73.2067 92.6676 72.7736C92.7396 72.3278 92.8663 71.8925 93.0447 71.4777C93.1369 71.2579 93.2554 71.0501 93.3977 70.8588C93.5454 70.6512 93.7347 70.4766 93.9537 70.3463C94.184 70.2167 94.4437 70.1484 94.708 70.1481C94.7805 70.1443 94.8531 70.1443 94.9256 70.1481L95.0851 70.1819C95.1998 70.198 95.312 70.2289 95.4188 70.2738C95.652 70.3642 95.8623 70.5052 96.0345 70.6866C96.2068 70.868 96.3366 71.0854 96.4148 71.323C96.5561 71.7544 96.6039 72.211 96.555 72.6623C96.5222 73.0971 96.4345 73.5261 96.2939 73.9388C96.3405 73.5149 96.3486 73.0877 96.3181 72.6623C96.2947 72.2556 96.1998 71.8563 96.0376 71.4826C95.9667 71.318 95.8621 71.1702 95.7305 71.0486C95.5989 70.927 95.4433 70.8344 95.2737 70.7766C95.1814 70.7447 95.0856 70.7236 94.9884 70.7138H94.8289H94.7225C94.5506 70.718 94.3832 70.7699 94.239 70.8637C93.9432 71.0827 93.7179 71.3836 93.5911 71.7292C93.4399 72.1058 93.3249 72.496 93.2478 72.8944C93.0983 73.7181 93.0142 74.5524 92.9964 75.3894L92.8078 75.1573L93.2333 75.2975C93.3059 75.324 93.3769 75.3547 93.446 75.3894L93.6491 75.4909L93.8473 75.6311C94.0608 75.7758 94.2099 75.9977 94.2632 76.25C94.2801 76.3346 94.2801 76.4217 94.2632 76.5063C94.2532 76.5868 94.2304 76.6651 94.1955 76.7384C94.1352 76.8786 94.0519 77.0077 93.9489 77.1203C93.7695 77.335 93.5554 77.518 93.3155 77.6619Z" fill="#54201C"/>
<path d="M75.7397 69.5389C75.7677 69.3538 75.8097 69.1712 75.8655 68.9925C76.0094 68.5153 76.2176 68.0598 76.4844 67.6387C76.8758 67.012 77.3968 66.4762 78.0123 66.0673C78.3807 65.8252 78.7833 65.6394 79.2065 65.5161C79.6548 65.3911 80.1195 65.3356 80.5846 65.3517C81.0404 65.3816 81.4897 65.4761 81.9191 65.6321C82.1232 65.699 82.3207 65.7848 82.5089 65.8884C82.6958 65.977 82.8753 66.0805 83.0456 66.1978C83.2151 66.3 83.3768 66.4148 83.5292 66.5411C83.6756 66.6545 83.816 66.7756 83.9498 66.9038L84.3124 67.2712L84.6219 67.6435C84.7971 67.8588 84.9586 68.0849 85.1054 68.3204C85.2246 68.4973 85.3297 68.6832 85.4197 68.8765C85.508 69.0412 85.5871 69.2107 85.6566 69.3842C85.6566 69.3842 85.4729 69.2826 85.1731 69.0989L84.6509 68.7701C84.4478 68.6444 84.2302 68.4993 83.9837 68.3591C83.7371 68.2189 83.5001 68.0545 83.2052 67.9095C83.0746 67.8273 82.9296 67.7596 82.7845 67.687C82.6395 67.6145 82.4993 67.5372 82.3494 67.484C82.0543 67.3495 81.7487 67.2395 81.4355 67.1552C81.1325 67.0708 80.8213 67.0189 80.5072 67.0005C80.2028 66.9875 79.8979 67.0086 79.5982 67.0633C79.299 67.1294 79.0061 67.2216 78.723 67.3389C78.1801 67.5885 77.6689 67.9018 77.2 68.2721C76.76 68.6009 76.4022 68.9297 76.1459 69.1618L75.7397 69.5389Z" fill="#1C171E"/>
<path d="M71.2093 69.3309L70.8611 69.0069C70.6387 68.8038 70.3341 68.5234 69.9666 68.2091C69.5764 67.8688 69.161 67.5584 68.724 67.2808C68.4989 67.1424 68.2628 67.0227 68.0181 66.923C67.5596 66.7325 67.0622 66.6546 66.5675 66.6957L66.1904 66.7489C66.0647 66.7876 65.939 66.8069 65.8132 66.8456C65.5666 66.9181 65.3297 67.0197 65.0783 67.1164C64.8269 67.2131 64.5948 67.3243 64.4062 67.4452C63.9759 67.6579 63.6084 67.8658 63.3473 68.0109C63.2079 68.0925 63.0642 68.1667 62.917 68.2333C62.9723 68.0819 63.0353 67.9335 63.1056 67.7885C63.1816 67.6197 63.2722 67.458 63.3763 67.3049C63.4981 67.0955 63.6372 66.8965 63.7922 66.7102C63.976 66.4814 64.1799 66.2694 64.4014 66.0768C64.6608 65.8559 64.9428 65.6631 65.2427 65.5014C65.5828 65.3202 65.9477 65.1898 66.3258 65.1146C66.734 65.0468 67.1505 65.0468 67.5587 65.1146C67.9613 65.1841 68.351 65.3145 68.7143 65.5014C69.0483 65.677 69.3573 65.8966 69.633 66.1542C70.0899 66.5863 70.465 67.0973 70.7402 67.6627C70.9246 68.0501 71.0641 68.4573 71.1561 68.8764C71.1868 69.0261 71.2046 69.1781 71.2093 69.3309Z" fill="#1C171E"/>
<path d="M66.9253 96.9058C66.9253 96.9058 64.0242 112.228 75.2804 113.427C89.5247 114.946 93.3251 96.5045 93.3251 96.5045C93.3251 96.5045 101.492 90.2188 107.376 97.4715C113.26 104.724 105.481 135.645 99.5914 143.047L55.3403 140.2C55.3403 140.2 45.2783 92.9168 66.9253 96.9058Z" fill="#FFA65B"/>
<path d="M107.376 97.4762C105.582 95.2762 103.575 94.3333 101.656 94.0916C100.926 99.3812 96.6031 104.134 92.9526 107.63C88.3447 112.011 83.205 115.584 77.2771 117.953C69.5409 121.047 61.3889 122.45 53.1885 123.596C53.5408 129.182 54.2661 134.739 55.3595 140.228L99.6106 143.076C105.48 135.65 113.265 104.69 107.376 97.4762Z" fill="#EF924D"/>
<path d="M109.349 103.191L109.431 105.793V108.404L109.339 111.01L109.155 113.611L108.884 116.208L108.522 118.794L108.038 121.362L107.502 123.91L106.854 126.444L106.124 128.948L105.302 131.429L104.402 133.885L103.435 136.302L102.371 138.686L101.23 141.041L100.017 143.357L99.9394 143.497H99.775C96.0745 143.207 92.3676 142.904 88.6542 142.588L77.5575 141.674L72.0116 141.273L66.4561 140.944L60.8957 140.727L55.3353 140.64H55.1225L55.0935 140.427C54.6584 137.231 54.1265 134.04 53.6962 130.839C53.2658 127.638 52.85 124.418 52.6856 121.168C52.6421 120.361 52.6131 119.549 52.6034 118.751C52.5937 117.953 52.6034 117.131 52.6034 116.333C52.6034 115.535 52.6856 114.718 52.7533 113.916L52.879 112.707L53.0386 111.503L53.2368 110.304L53.4737 109.114L53.759 107.935L54.083 106.765L54.4504 105.609L54.8614 104.468L55.3449 103.346L55.8285 102.244L55.3449 103.351L54.9098 104.482L54.5181 105.628L54.17 106.789L53.8654 107.959L53.6043 109.139L53.3867 110.328L53.2126 111.527L53.0724 112.726L52.9709 113.93C52.9177 114.738 52.8839 115.54 52.8645 116.348C52.8452 117.155 52.8645 117.958 52.8645 118.765C52.8645 119.573 52.9225 120.375 52.9709 121.183C53.174 124.403 53.5946 127.604 54.0733 130.795C54.552 133.986 55.1129 137.173 55.5529 140.383L55.3063 140.17L60.8812 140.238L66.4512 140.436L72.0165 140.746L77.572 141.133C81.2758 141.423 84.9827 141.735 88.6929 142.071C92.403 142.406 96.1003 142.728 99.7847 143.038L99.5477 143.168L100.761 140.872L101.902 138.536L102.976 136.167L103.977 133.749L104.9 131.332L105.737 128.871L106.491 126.381L107.158 123.871L107.738 121.333L108.222 118.78L108.633 116.212L108.952 113.626L109.179 111.034L109.315 108.433L109.368 105.831L109.349 103.191Z" fill="#DD7128"/>
<path d="M32.8375 102.795C32.8375 102.795 0.645136 101.369 0.359863 69.7564C0.359863 69.7564 33.1227 69.7564 32.8375 102.795Z" fill="#5D8584"/>
<path d="M35.6855 80.0022C35.6855 80.0022 16.3159 65.7579 25.1449 39.5514C25.1449 39.5514 47.6476 52.35 35.6855 80.0022Z" fill="#5D8584"/>
<path d="M42.8074 86.5537C42.8074 86.5537 33.4079 56.6436 52.2069 37.274C52.2069 37.274 64.1739 58.6357 42.8074 86.5537Z" fill="#5D8584"/>
<path d="M45.3703 105.357C45.3703 105.357 41.096 82.2842 61.3262 79.4315C61.3214 79.4267 60.4704 101.083 45.3703 105.357Z" fill="#5D8584"/>
<path d="M8.04785 75.4474C8.04785 75.4474 37.6727 91.6838 39.6696 130.423C39.6696 130.423 40.5255 81.1432 29.4143 50.3773" stroke="#396666" stroke-width="2.36" stroke-linecap="round" stroke-linejoin="round"/>
<path d="M49.359 49.5213C49.359 49.5213 38.5331 99.6568 41.6662 125.868C41.6662 125.868 40.2447 104.787 55.0547 89.4015" stroke="#396666" stroke-width="2.36" stroke-linecap="round" stroke-linejoin="round"/>
<path d="M24.8838 116.773L29.4772 146.471H55.3935L59.982 115.211L24.8838 116.773Z" fill="#FC6A5A"/>
<path d="M58.5168 125.206L59.9673 115.211L24.8643 116.773L25.9908 124.026C36.8409 124.582 47.6958 124.945 58.5168 125.206Z" fill="#EA4134"/>
<path d="M62.9363 111.145H19.6377V119.273H62.9363V111.145Z" fill="#FC6A5A"/>
<path d="M104.339 116.469C104.339 116.469 93.5134 150.934 87.2471 153.501C80.9808 156.069 57.337 134.697 57.337 134.697C57.337 134.697 32.9679 140.156 52.8451 133.44C52.8451 133.44 31.9815 136.694 52.2069 131.279C52.2069 131.279 35.6852 133.561 51.9216 129.001C51.9216 129.001 32.5521 129.572 57.6222 126.154C57.6222 126.154 45.9406 115.613 60.1849 125.868L81.8318 138.415C81.8318 138.415 91.502 101.098 95.5055 99.6715C99.509 98.2451 104.339 116.469 104.339 116.469Z" fill="#965450"/>
<path d="M86.8267 121.492C89.9545 123.755 93.4096 125.528 97.0724 126.748C98.2086 127.12 99.3497 127.444 100.5 127.715C102.778 121.429 104.34 116.449 104.34 116.449C104.34 116.449 99.5044 98.2159 95.5058 99.6375C93.388 100.397 89.6601 111.29 86.6333 121.328L86.8267 121.492Z" fill="#76413B"/>
<path d="M88.4804 114.757L81.9626 138.449C81.9582 138.466 81.9503 138.482 81.9396 138.496C81.9288 138.51 81.9154 138.522 81.9 138.53C81.8847 138.539 81.8677 138.544 81.8502 138.546C81.8327 138.548 81.8151 138.546 81.7982 138.541H81.7692L60.074 126.057C59.0586 125.331 58.0384 124.606 57.0085 123.905C55.9786 123.204 54.9439 122.503 53.8705 121.913C53.7351 121.84 53.5997 121.773 53.4692 121.715C53.4082 121.687 53.3451 121.665 53.2806 121.647H53.2323C53.2323 121.647 53.2323 121.647 53.2806 121.647C53.3263 121.622 53.3608 121.58 53.3773 121.531C53.3773 121.454 53.3773 121.478 53.3773 121.492C53.3866 121.516 53.3979 121.539 53.4112 121.56C53.4465 121.62 53.4852 121.678 53.5272 121.734C53.6142 121.85 53.7109 121.966 53.8076 122.082C54.209 122.542 54.6441 122.986 55.089 123.422C55.9738 124.297 56.8876 125.148 57.8063 125.984C57.8318 126.009 57.852 126.038 57.8658 126.07C57.8797 126.103 57.8868 126.138 57.8868 126.173C57.8868 126.208 57.8797 126.243 57.8658 126.275C57.852 126.308 57.8318 126.337 57.8063 126.361C57.7653 126.408 57.7084 126.437 57.6467 126.444C55.9641 126.676 54.2847 126.919 52.6085 127.174C50.9356 127.43 49.2578 127.701 47.6042 128.029C47.1883 128.112 46.7774 128.204 46.3712 128.3C45.9707 128.386 45.5777 128.504 45.1963 128.653C45.1324 128.677 45.0722 128.71 45.0174 128.75C45.0174 128.75 45.0174 128.75 45.0512 128.677C45.0559 128.649 45.0544 128.62 45.0469 128.593C45.0394 128.565 45.026 128.54 45.0077 128.518C44.9787 128.484 45.0077 128.518 45.0367 128.518C45.2165 128.573 45.401 128.612 45.5879 128.634C45.9941 128.687 46.4147 128.711 46.8354 128.731C48.518 128.803 50.22 128.779 51.9026 128.731C51.9713 128.731 52.0375 128.757 52.0893 128.802C52.1412 128.847 52.1754 128.909 52.1858 128.977C52.1963 129.044 52.1823 129.114 52.1464 129.172C52.1104 129.231 52.0549 129.275 51.9896 129.296C50.7712 129.64 49.5721 129.993 48.3536 130.375C47.7541 130.568 47.1545 130.766 46.5694 130.984C46.2745 131.09 45.9844 131.206 45.704 131.332C45.5669 131.391 45.433 131.457 45.3026 131.53C45.2423 131.562 45.1841 131.597 45.1286 131.636C45.0802 131.665 45.0319 131.723 45.0512 131.699C45.0645 131.672 45.0713 131.642 45.0713 131.612C45.0713 131.582 45.0645 131.552 45.0512 131.525C45.0125 131.467 45.0029 131.477 45.0125 131.482C45.0626 131.5 45.1145 131.513 45.1673 131.52C45.3094 131.545 45.4533 131.56 45.5976 131.564C45.9022 131.564 46.2117 131.564 46.5259 131.564C47.1497 131.564 47.7782 131.491 48.402 131.438C49.6591 131.322 50.9162 131.172 52.1685 131.003C52.208 130.997 52.2484 130.999 52.2871 131.009C52.3258 131.019 52.3621 131.037 52.3938 131.061C52.4254 131.085 52.4518 131.116 52.4713 131.151C52.4907 131.186 52.5029 131.224 52.507 131.264C52.5166 131.337 52.4993 131.411 52.4584 131.473C52.4175 131.534 52.3558 131.579 52.2846 131.598C50.7615 132.009 49.2433 132.425 47.7347 132.874C46.9804 133.102 46.2262 133.334 45.4864 133.585C45.1189 133.711 44.7514 133.841 44.3936 133.986C44.2196 134.059 44.0407 134.136 43.9101 134.218C43.8396 134.256 43.7717 134.298 43.7071 134.344C43.6684 134.392 43.7071 134.344 43.7071 134.344C43.7213 134.314 43.7287 134.281 43.7287 134.247C43.7287 134.214 43.7213 134.181 43.7071 134.151C43.6684 134.083 43.649 134.078 43.6394 134.073C43.6297 134.069 43.7264 134.098 43.8038 134.107H44.0745H44.6451C45.027 134.107 45.4187 134.069 45.8103 134.035C46.5888 133.972 47.3721 133.885 48.1554 133.793C49.7171 133.609 51.2789 133.392 52.8358 133.155C52.9086 133.148 52.9815 133.167 53.0412 133.209C53.1009 133.251 53.1434 133.314 53.161 133.385C53.1786 133.456 53.1701 133.53 53.137 133.596C53.1039 133.661 53.0485 133.712 52.9808 133.74C51.3224 134.301 49.6639 134.871 48.0345 135.495C47.6283 135.65 47.2222 135.814 46.8257 135.978C46.4292 136.143 46.0279 136.327 45.6701 136.525C45.5844 136.572 45.5021 136.626 45.4235 136.684C45.3966 136.702 45.3722 136.723 45.351 136.747C45.351 136.747 45.351 136.747 45.351 136.709C45.3582 136.675 45.3575 136.64 45.3492 136.606C45.3408 136.573 45.3249 136.542 45.3026 136.515C45.235 136.452 45.264 136.486 45.3026 136.486C45.3429 136.49 45.3833 136.49 45.4235 136.486H45.7233C46.1391 136.486 46.5743 136.428 46.9998 136.375C48.7259 136.148 50.4472 135.824 52.1637 135.49C53.8802 135.156 55.5966 134.789 57.3034 134.417C57.3473 134.406 57.3932 134.406 57.437 134.417C57.4809 134.428 57.5213 134.449 57.5549 134.48C59.9289 136.607 62.3658 138.676 64.8414 140.693C67.317 142.709 69.8409 144.667 72.4229 146.538C74.9889 148.431 77.6838 150.142 80.4879 151.659C81.8731 152.419 83.3525 152.993 84.8879 153.366C85.6286 153.557 86.4073 153.543 87.1411 153.327C87.8405 153 88.457 152.519 88.9446 151.92C89.9658 150.707 90.8661 149.396 91.6329 148.008C92.421 146.625 93.1511 145.204 93.8377 143.763C95.2206 140.886 96.4777 137.961 97.672 134.982C100.056 129.05 102.207 123.025 104.209 116.952C102.275 123.049 100.191 129.098 97.8751 135.065C96.7098 138.043 95.4913 141.002 94.1278 143.903C93.4461 145.354 92.7256 146.78 91.9375 148.182C91.1698 149.6 90.2628 150.938 89.2298 152.176C88.7085 152.823 88.0472 153.344 87.2958 153.699C86.8964 153.845 86.4732 153.914 86.0483 153.902C85.634 153.901 85.2209 153.857 84.8154 153.772C83.2385 153.402 81.7181 152.823 80.2945 152.05C78.844 151.325 77.4805 150.498 76.1218 149.633C74.7631 148.767 73.448 147.868 72.1425 146.94C69.5267 145.083 66.9979 143.12 64.5078 141.104C62.0177 139.087 59.5808 137.023 57.1874 134.886L57.434 134.953C55.7224 135.337 54.0059 135.7 52.2846 136.041C50.5584 136.38 48.8371 136.713 47.082 136.945C46.6378 137.007 46.1908 137.045 45.7426 137.062C45.6235 137.069 45.504 137.069 45.3848 137.062L45.1818 137.032C45.0655 137.011 44.959 136.953 44.8772 136.868C44.8384 136.821 44.8112 136.765 44.7977 136.706C44.7843 136.646 44.785 136.584 44.7998 136.525C44.8216 136.459 44.8543 136.397 44.8965 136.341C44.9477 136.284 45.0044 136.232 45.0657 136.186C45.1639 136.113 45.2674 136.047 45.3752 135.988C45.7697 135.771 46.1766 135.577 46.5936 135.408C46.9998 135.234 47.4108 135.069 47.8218 134.924C49.4657 134.291 51.1241 133.716 52.7874 133.15L52.9277 133.74C51.3675 133.982 49.8009 134.199 48.2279 134.392C47.4398 134.489 46.6516 134.576 45.8587 134.639C45.4622 134.673 45.0657 134.702 44.6644 134.716C44.4613 134.716 44.2583 134.716 44.0503 134.716C43.944 134.716 43.8376 134.716 43.7264 134.692C43.5867 134.681 43.4505 134.643 43.3251 134.581C43.25 134.537 43.1882 134.474 43.1462 134.397C43.1222 134.345 43.1099 134.288 43.1099 134.231C43.1099 134.173 43.1222 134.116 43.1462 134.064C43.1894 133.972 43.2541 133.893 43.3347 133.832C43.4293 133.761 43.5296 133.698 43.6345 133.643C43.8279 133.542 44.0117 133.464 44.2002 133.387C44.5774 133.232 44.9545 133.102 45.3317 132.971C46.0859 132.715 46.8451 132.487 47.6042 132.26C49.1224 131.811 50.6455 131.395 52.1734 130.989L52.2942 131.578C51.0307 131.746 49.7671 131.89 48.5035 132.009C47.8653 132.067 47.2319 132.11 46.5694 132.134C46.2455 132.134 45.9264 132.134 45.6024 132.134C45.4306 132.128 45.2594 132.11 45.0899 132.081C44.9868 132.062 44.8862 132.031 44.7901 131.989C44.6994 131.949 44.6235 131.881 44.5725 131.796C44.5378 131.735 44.5195 131.666 44.5195 131.595C44.5195 131.525 44.5378 131.456 44.5725 131.395C44.6386 131.289 44.7259 131.199 44.8288 131.129C44.9029 131.077 44.9804 131.03 45.0609 130.989C45.2108 130.906 45.3607 130.834 45.5106 130.766C45.8103 130.636 46.1101 130.52 46.4099 130.408C47.0094 130.186 47.6187 129.988 48.2231 129.794C49.4367 129.412 50.6406 129.059 51.8784 128.721L51.9655 129.282C50.2587 129.32 48.5809 129.34 46.8499 129.282C46.4244 129.282 45.9941 129.233 45.5589 129.175C45.3249 129.15 45.0945 129.098 44.8723 129.021C44.7779 128.989 44.693 128.934 44.6257 128.861C44.59 128.82 44.564 128.771 44.5498 128.718C44.5355 128.665 44.5334 128.61 44.5435 128.556C44.5574 128.476 44.5963 128.401 44.6547 128.344C44.7601 128.247 44.8833 128.171 45.0174 128.121C45.4296 127.963 45.8531 127.835 46.2842 127.739C46.7 127.638 47.1207 127.551 47.5365 127.469C49.2143 127.14 50.8921 126.874 52.5699 126.618C54.2476 126.361 55.9544 126.134 57.6177 125.897L57.4775 126.381C56.5492 125.535 55.6353 124.679 54.7457 123.789C54.3057 123.344 53.8657 122.895 53.4498 122.411C53.3435 122.285 53.2419 122.164 53.1452 122.029C53.0485 121.894 53.0485 121.889 53.0002 121.807C52.9765 121.763 52.9555 121.718 52.9373 121.671C52.8972 121.587 52.8869 121.491 52.9083 121.4C52.9212 121.357 52.9429 121.316 52.972 121.281C53.0011 121.247 53.037 121.218 53.0775 121.197C53.1286 121.173 53.1852 121.161 53.2419 121.164C53.3023 121.165 53.3622 121.173 53.4208 121.188C53.5078 121.214 53.5933 121.245 53.6771 121.28C53.8318 121.347 53.9769 121.42 54.1171 121.497C55.2292 122.121 56.2542 122.832 57.2889 123.542C58.3237 124.253 59.3342 124.993 60.3496 125.718L81.953 138.333L81.7596 138.41L88.4804 114.757Z" fill="#54201C"/>
<path d="M84.6846 116.749C84.6846 116.749 90.9702 91.6839 102.628 93.9612C114.285 96.2386 105.761 119.031 103.769 124.157C96.7856 123.761 90.106 121.169 84.6846 116.749Z" fill="#FFA65B"/>
<path d="M102.628 93.9612L103.653 94.2078L104.62 94.5995C104.92 94.7832 105.239 94.9428 105.524 95.1507L105.935 95.4891L106.143 95.6535L106.322 95.8518C106.575 96.1015 106.803 96.3752 107.004 96.6689L107.308 97.1089L107.555 97.5924C107.724 97.9026 107.868 98.226 107.985 98.5595C108.115 98.8889 108.223 99.2265 108.309 99.57C108.492 100.257 108.62 100.957 108.691 101.664C108.74 102.017 108.749 102.37 108.773 102.722C108.798 103.075 108.802 103.428 108.802 103.781C108.802 104.134 108.802 104.487 108.802 104.84C108.802 105.193 108.802 105.551 108.744 105.899C108.701 106.605 108.619 107.306 108.536 108.007C108.454 108.708 108.338 109.405 108.208 110.101C108.077 110.797 107.947 111.484 107.792 112.17C107.487 113.548 107.129 114.912 106.738 116.266C105.955 118.973 105.041 121.638 104.025 124.263L103.958 124.447H103.784C102.903 124.423 102.025 124.347 101.153 124.22C100.723 124.147 100.288 124.089 99.8623 124.002C99.4368 123.915 99.0016 123.847 98.5761 123.736C98.1506 123.625 97.7251 123.547 97.3045 123.422C96.8838 123.296 96.4632 123.19 96.0425 123.064L94.7999 122.653C94.3889 122.513 93.9827 122.343 93.5717 122.194C93.1608 122.044 92.7643 121.865 92.363 121.686C91.9616 121.507 91.5603 121.347 91.1735 121.144L89.9889 120.525C89.5973 120.337 89.2298 120.095 88.8478 119.882C88.4658 119.67 88.0839 119.457 87.7309 119.205L86.643 118.471C86.2755 118.234 85.9371 117.958 85.5938 117.692L84.5591 116.889L84.4575 116.812L84.4914 116.686C84.6606 116.072 84.8298 115.468 85.0232 114.864C85.2166 114.259 85.4004 113.66 85.6083 113.06C85.8162 112.46 86.0193 111.866 86.2417 111.276C86.4641 110.686 86.6768 110.086 86.9283 109.506L87.6632 107.761C87.7841 107.466 87.9291 107.185 88.0597 106.9L88.4658 106.044L88.872 105.188C89.0171 104.908 89.1718 104.632 89.3217 104.352L90.2355 102.693L89.3894 104.386L88.9687 105.232L88.5867 106.097L88.2096 106.963C88.0887 107.253 87.9485 107.538 87.8373 107.833L87.1555 109.593C86.9186 110.178 86.7397 110.783 86.5221 111.373C86.3045 111.962 86.1111 112.562 85.9226 113.162C85.734 113.761 85.5454 114.366 85.3714 114.97C85.1973 115.574 85.0281 116.179 84.8878 116.783L84.8202 116.585L85.8549 117.354C86.203 117.61 86.5366 117.881 86.9089 118.103L87.992 118.809C88.345 119.051 88.7318 119.239 89.0992 119.462C89.4667 119.684 89.839 119.907 90.2307 120.09L91.3814 120.671C91.7634 120.869 92.1696 121.019 92.5612 121.198C92.9528 121.376 93.3493 121.546 93.7555 121.681C94.1616 121.816 94.5581 121.991 94.9643 122.131L96.1924 122.527C96.6082 122.653 97.024 122.754 97.435 122.875C97.846 122.996 98.2715 123.074 98.6922 123.175C99.1128 123.277 99.5335 123.344 99.9541 123.431C100.375 123.518 100.805 123.567 101.226 123.634C102.077 123.741 102.942 123.833 103.779 123.857L103.518 124.036C104.543 121.43 105.452 118.785 106.259 116.096C106.656 114.757 107.018 113.403 107.333 112.04C107.487 111.358 107.632 110.676 107.768 109.99C107.903 109.303 108.019 108.617 108.13 107.925C108.242 107.234 108.314 106.542 108.372 105.846C108.416 105.498 108.425 105.15 108.445 104.802C108.464 104.453 108.483 104.105 108.483 103.757C108.483 103.409 108.483 103.061 108.483 102.713C108.483 102.365 108.483 102.017 108.42 101.668C108.362 100.976 108.252 100.289 108.092 99.6135C108.018 99.2741 107.923 98.9398 107.806 98.6126C107.701 98.2808 107.57 97.9575 107.415 97.6456L107.183 97.1621L106.902 96.7269C106.717 96.4341 106.503 96.1603 106.264 95.9098L106.09 95.7116L105.892 95.5423L105.5 95.2039C105.229 94.9863 104.915 94.8267 104.625 94.6333C104.335 94.4399 103.987 94.3432 103.658 94.2078L102.628 93.9612Z" fill="#DD7128"/>
<path d="M22.2487 129.814C22.2487 129.814 19.6716 124.152 21.2817 122.798C22.8918 121.444 37.5423 122.701 25.0193 124.766C25.0193 124.766 46.9128 123.451 26.4215 127.324C26.4215 127.324 43.7699 125.612 27.461 129.171C27.461 129.171 41.2992 128.581 27.1757 131.047L27.8478 135.398C27.8478 135.398 26.5327 136.965 22.2487 129.814Z" fill="#965450"/>
<path d="M22.2483 129.814C21.8624 128.994 21.525 128.153 21.2378 127.295C20.9379 126.426 20.7431 125.526 20.6576 124.611C20.6128 124.139 20.6756 123.663 20.8413 123.219C20.9413 122.981 21.1096 122.779 21.3248 122.638C21.5362 122.516 21.7642 122.425 22.0017 122.368C22.9042 122.173 23.8249 122.076 24.7481 122.077C25.6663 122.06 26.5848 122.094 27.4993 122.179C27.9828 122.227 28.418 122.285 28.8725 122.377C29.1048 122.423 29.3341 122.482 29.559 122.556C29.6797 122.599 29.7976 122.649 29.912 122.706C30.0592 122.78 30.1793 122.898 30.2553 123.044C30.2779 123.098 30.2896 123.156 30.2896 123.214C30.2896 123.272 30.2779 123.329 30.2553 123.383C30.221 123.467 30.17 123.542 30.1054 123.605C30.0063 123.698 29.8958 123.778 29.7766 123.842C29.5636 123.954 29.3421 124.05 29.1142 124.128C28.6742 124.282 28.2294 124.403 27.7797 124.514C26.8852 124.742 25.9859 124.896 25.0865 125.056L25.0237 124.514C26.6435 124.418 28.2584 124.345 29.8588 124.306C30.6711 124.306 31.4786 124.273 32.2764 124.306C32.6825 124.306 33.0887 124.306 33.4997 124.345C33.9199 124.362 34.3384 124.409 34.752 124.485C34.871 124.508 34.9875 124.542 35.1001 124.587L35.1968 124.635C35.2394 124.663 35.2798 124.693 35.3177 124.727C35.3731 124.779 35.4146 124.844 35.4386 124.916C35.4663 125.002 35.4663 125.095 35.4386 125.182C35.3677 125.339 35.2448 125.467 35.0904 125.544C34.9841 125.607 34.8825 125.651 34.781 125.699C34.396 125.857 34.0021 125.993 33.6012 126.105C32.8131 126.337 32.0201 126.521 31.2272 126.7C29.6461 127.053 28.0553 127.357 26.4597 127.667L26.3775 127.087C27.6637 126.971 28.9498 126.869 30.2456 126.792C30.8887 126.753 31.5366 126.719 32.1797 126.705C32.5036 126.705 32.8276 126.705 33.1467 126.705C33.4833 126.703 33.8195 126.727 34.1524 126.777C34.2544 126.792 34.3537 126.821 34.4474 126.864C34.4981 126.884 34.5444 126.914 34.5834 126.953C34.6224 126.991 34.6534 127.036 34.6746 127.087C34.696 127.152 34.6988 127.222 34.6825 127.288C34.6663 127.355 34.6317 127.416 34.5828 127.464C34.4341 127.596 34.2619 127.7 34.0751 127.768C33.7559 127.894 33.4465 127.991 33.137 128.088C32.5085 128.271 31.8847 128.431 31.2562 128.571C29.999 128.871 28.7419 129.142 27.4799 129.407L27.4316 129.021C28.4953 128.992 29.559 128.977 30.6276 128.992C31.1595 128.992 31.6962 129.016 32.228 129.059C32.4971 129.077 32.765 129.11 33.0307 129.156C33.1736 129.177 33.3133 129.216 33.4465 129.272C33.4914 129.294 33.5323 129.323 33.5674 129.359C33.594 129.387 33.6123 129.422 33.62 129.459C33.6277 129.497 33.6245 129.536 33.6109 129.572C33.5677 129.655 33.4979 129.721 33.4127 129.76C33.1674 129.883 32.9096 129.979 32.6439 130.046C32.3828 130.123 32.1265 130.181 31.8654 130.244C31.3432 130.365 30.8259 130.466 30.2988 130.568C29.2544 130.766 28.2052 130.931 27.156 131.09C28.1955 130.887 29.2399 130.669 30.2746 130.442C30.792 130.326 31.3094 130.205 31.8219 130.07C32.0782 130.002 32.3344 129.93 32.581 129.847C32.829 129.778 33.0689 129.682 33.2966 129.562C33.3315 129.542 33.3626 129.516 33.3885 129.485C33.3885 129.485 33.3885 129.528 33.3885 129.519L33.345 129.495C33.2306 129.454 33.1123 129.424 32.992 129.407C32.7357 129.374 32.4746 129.354 32.2087 129.34C31.6865 129.34 31.1546 129.316 30.6276 129.34C29.5687 129.34 28.505 129.378 27.4461 129.432C27.3995 129.43 27.3551 129.412 27.3205 129.38C27.286 129.349 27.2636 129.307 27.2572 129.261C27.2509 129.214 27.261 129.167 27.2858 129.128C27.3106 129.089 27.3485 129.059 27.3929 129.045C28.6452 128.755 29.8975 128.46 31.1353 128.136C31.759 127.971 32.3731 127.802 32.9823 127.609C33.2821 127.512 33.5819 127.411 33.8623 127.29C33.9764 127.244 34.0851 127.186 34.1863 127.116C34.1863 127.116 34.1283 127.154 34.1863 127.275C34.2443 127.396 34.2491 127.348 34.2298 127.348C34.1768 127.328 34.1216 127.315 34.0654 127.309C33.7612 127.265 33.4541 127.244 33.1467 127.246H32.1797C31.5415 127.246 30.9032 127.299 30.2456 127.343C28.9692 127.43 27.6879 127.536 26.4114 127.667C26.339 127.669 26.2685 127.644 26.2132 127.597C26.158 127.55 26.1218 127.485 26.1117 127.413C26.1015 127.342 26.1181 127.269 26.1582 127.209C26.1983 127.148 26.2591 127.105 26.3292 127.087C27.9151 126.782 29.4962 126.463 31.0676 126.12C31.8557 125.936 32.6342 125.742 33.403 125.53C33.7803 125.424 34.1515 125.299 34.5151 125.153C34.5963 125.119 34.6754 125.08 34.752 125.037C34.8197 125.012 34.8874 124.921 34.8439 124.993C34.8003 125.066 34.8197 125.075 34.8439 125.114C34.8452 125.127 34.8494 125.14 34.8561 125.152C34.8627 125.163 34.8717 125.174 34.8825 125.182H34.8487C34.7723 125.15 34.6929 125.125 34.6118 125.109C34.2299 125.04 33.8439 124.996 33.4562 124.979C33.0597 124.95 32.6584 124.94 32.2571 124.93C31.4544 124.93 30.647 124.93 29.8395 124.93C28.2294 124.964 26.6145 125.027 25.0044 125.109C24.9688 125.111 24.9332 125.106 24.8996 125.094C24.866 125.082 24.835 125.064 24.8085 125.04C24.782 125.016 24.7605 124.988 24.7451 124.955C24.7298 124.923 24.7209 124.888 24.7191 124.853C24.7179 124.787 24.74 124.722 24.7816 124.671C24.8232 124.62 24.8815 124.585 24.9463 124.572C25.8408 124.427 26.7353 124.263 27.6153 124.089C28.0505 123.987 28.4905 123.876 28.9063 123.741C29.1107 123.674 29.3095 123.592 29.501 123.494C29.5835 123.455 29.66 123.405 29.7283 123.344C29.7484 123.329 29.765 123.309 29.7766 123.286C29.7353 123.236 29.6843 123.195 29.6267 123.165C29.5384 123.118 29.4462 123.077 29.3511 123.044C29.1465 122.969 28.9363 122.909 28.7226 122.866C28.285 122.77 27.8428 122.698 27.3977 122.648C26.5002 122.548 25.598 122.496 24.6949 122.493C23.7968 122.477 22.8994 122.552 22.0162 122.716C21.8095 122.755 21.6093 122.824 21.4215 122.919C21.2437 123.036 21.1055 123.205 21.025 123.402C20.859 123.808 20.7895 124.247 20.822 124.684C20.8747 125.586 21.0371 126.479 21.3055 127.343C21.5765 128.182 21.8912 129.007 22.2483 129.814Z" fill="#54201C"/>
</g>
<defs>
<clipPath id="clip0_1_4868">
<rect width="345.707" height="216" fill="white" transform="translate(0.359863)"/>
</clipPath>
</defs>
</svg>
