<svg width="16" height="16" viewBox="0 0 16 16" fill="none" xmlns="http://www.w3.org/2000/svg">
<path d="M8 1.17188C6.14598 1.17188 5.9135 1.17973 5.18537 1.21296C4.45875 1.24612 3.9625 1.36151 3.52825 1.53028C3.07933 1.70474 2.69863 1.93816 2.31911 2.31768C1.9396 2.69719 1.70618 3.0779 1.53172 3.52681C1.36295 3.96103 1.24756 4.45729 1.21439 5.1839C1.18117 5.91204 1.17334 6.14451 1.17334 7.99853C1.17334 9.85252 1.18117 10.085 1.21439 10.8131C1.24756 11.5398 1.36295 12.036 1.53172 12.4702C1.70618 12.9191 1.9396 13.2998 2.31911 13.6794C2.69863 14.0589 3.07933 14.2923 3.52825 14.4668C3.9625 14.6355 4.45875 14.7509 5.18537 14.7841C5.9135 14.8173 6.14598 14.8252 8 14.8252C9.85399 14.8252 10.0865 14.8173 10.8146 14.7841C11.5412 14.7509 12.0375 14.6355 12.4717 14.4668C12.9206 14.2923 13.3013 14.0589 13.6809 13.6794C14.0604 13.2998 14.2938 12.9191 14.4682 12.4702C14.637 12.036 14.7524 11.5398 14.7855 10.8131C14.8188 10.085 14.8266 9.85252 14.8266 7.99853C14.8266 6.14451 14.8188 5.91204 14.7855 5.1839C14.7524 4.45729 14.637 3.96103 14.4682 3.52681C14.2938 3.0779 14.0604 2.69719 13.6809 2.31768C13.3013 1.93816 12.9206 1.70474 12.4717 1.53028C12.0375 1.36151 11.5412 1.24612 10.8146 1.21296C10.0865 1.17973 9.85399 1.17188 8 1.17188ZM8 2.40193C9.82277 2.40193 10.0387 2.40886 10.7585 2.44171C11.4241 2.47208 11.7856 2.5833 12.0261 2.67676C12.3448 2.8006 12.5722 2.94855 12.8111 3.18743C13.05 3.4263 13.1979 3.65374 13.3217 3.97236C13.4152 4.21291 13.5264 4.57438 13.5568 5.23997C13.5896 5.95981 13.5966 6.17573 13.5966 7.99853C13.5966 9.82131 13.5896 10.0372 13.5568 10.7571C13.5264 11.4227 13.4152 11.7841 13.3217 12.0247C13.1979 12.3433 13.05 12.5707 12.8111 12.8096C12.5722 13.0485 12.3448 13.1964 12.0261 13.3203C11.7856 13.4138 11.4241 13.525 10.7585 13.5553C10.0388 13.5882 9.82291 13.5951 8 13.5951C6.17706 13.5951 5.96119 13.5882 5.24143 13.5553C4.57584 13.525 4.21438 13.4138 3.97382 13.3203C3.65517 13.1964 3.42776 13.0485 3.18886 12.8096C2.94999 12.5707 2.80204 12.3433 2.67822 12.0247C2.58473 11.7841 2.47352 11.4227 2.44314 10.7571C2.4103 10.0372 2.40336 9.82131 2.40336 7.99853C2.40336 6.17573 2.4103 5.95981 2.44314 5.23997C2.47352 4.57438 2.58473 4.21291 2.67822 3.97236C2.80204 3.65374 2.94999 3.4263 3.18886 3.18743C3.42776 2.94855 3.65517 2.8006 3.97382 2.67676C4.21438 2.5833 4.57584 2.47208 5.24143 2.44171C5.96128 2.40886 6.1772 2.40193 8 2.40193Z" fill="#6D747A"/>
<path d="M8.00021 10.2806C6.74344 10.2806 5.72465 9.26184 5.72465 8.0051C5.72465 6.74833 6.74344 5.72954 8.00021 5.72954C9.25696 5.72954 10.2757 6.74833 10.2757 8.0051C10.2757 9.26184 9.25696 10.2806 8.00021 10.2806ZM8.00021 4.49951C6.06411 4.49951 4.49463 6.069 4.49463 8.0051C4.49463 9.94117 6.06411 11.5107 8.00021 11.5107C9.93629 11.5107 11.5058 9.94117 11.5058 8.0051C11.5058 6.069 9.93629 4.49951 8.00021 4.49951Z" fill="#6D747A"/>
<path d="M12.4631 4.35068C12.4631 4.80311 12.0963 5.16986 11.6439 5.16986C11.1915 5.16986 10.8247 4.80311 10.8247 4.35068C10.8247 3.89824 11.1915 3.53149 11.6439 3.53149C12.0963 3.53149 12.4631 3.89824 12.4631 4.35068Z" fill="#6D747A"/>
</svg>
