<svg width="32" height="32" viewBox="0 0 32 32" fill="none" xmlns="http://www.w3.org/2000/svg">
<path d="M15.9998 18.6666C18.2132 18.6666 19.9998 16.88 19.9998 14.6666V6.66663C19.9998 4.45329 18.2132 2.66663 15.9998 2.66663C13.7865 2.66663 11.9998 4.45329 11.9998 6.66663V14.6666C11.9998 16.88 13.7865 18.6666 15.9998 18.6666ZM23.8798 14.6666C23.2265 14.6666 22.6798 15.1466 22.5732 15.8C22.0265 18.9333 19.2932 21.3333 15.9998 21.3333C12.7065 21.3333 9.97315 18.9333 9.42649 15.8C9.31982 15.1466 8.77315 14.6666 8.11982 14.6666C7.30649 14.6666 6.66649 15.3866 6.78649 16.1866C7.43982 20.1866 10.6398 23.32 14.6665 23.8933V26.6666C14.6665 27.4 15.2665 28 15.9998 28C16.7332 28 17.3332 27.4 17.3332 26.6666V23.8933C21.3598 23.32 24.5598 20.1866 25.2132 16.1866C25.3465 15.3866 24.6932 14.6666 23.8798 14.6666Z" fill="white"/>
</svg>
