<svg width="16" height="16" viewBox="0 0 16 16" fill="none" xmlns="http://www.w3.org/2000/svg">
<path d="M5.03169 14.5008C11.0694 14.5008 14.3718 9.49859 14.3718 5.16066C14.3718 5.01859 14.3718 4.87716 14.3623 4.73634C15.0047 4.27163 15.5593 3.69628 16 3.03716C15.4009 3.30263 14.7653 3.47669 14.1146 3.55363C14.7997 3.1435 15.3128 2.49794 15.5577 1.73794C14.9134 2.12028 14.2084 2.38978 13.4733 2.53475C12.8526 1.87472 11.9857 1.5 11.0798 1.5C9.27719 1.5 7.79397 2.98325 7.79397 4.78575C7.79397 5.03581 7.82253 5.28509 7.87903 5.52866C5.24097 5.39644 2.77966 4.14863 1.11359 2.09891C0.247219 3.59034 0.6955 5.52316 2.12991 6.48097C1.60756 6.4655 1.09644 6.32456 0.64 6.07009V6.11169C0.640437 7.66838 1.74772 9.02141 3.27359 9.32963C2.79034 9.46141 2.28319 9.48066 1.79138 9.38594C2.22034 10.7198 3.45734 11.6393 4.85825 11.6656C3.69606 12.579 2.25959 13.0751 0.781438 13.0736C0.52025 13.0731 0.259313 13.0573 0 13.0262C1.50106 13.9895 3.24813 14.5006 5.03169 14.4983" fill="#6D747A"/>
</svg>
