<svg width="16" height="16" viewBox="0 0 16 16" fill="none" xmlns="http://www.w3.org/2000/svg">
<path d="M14.8871 4.52748C14.7217 3.90501 14.2346 3.41473 13.6161 3.24833C12.4951 2.94605 7.99996 2.94604 7.99996 2.94604C7.99996 2.94604 3.50481 2.94605 2.38375 3.24836C1.76528 3.41476 1.27819 3.90501 1.11287 4.52751C0.8125 5.6558 0.8125 8.00995 0.8125 8.00995C0.8125 8.00995 0.8125 10.3641 1.11287 11.4924C1.27819 12.1149 1.76528 12.5847 2.38375 12.7512C3.50481 13.0535 7.99996 13.0535 7.99996 13.0535C7.99996 13.0535 12.4951 13.0535 13.6161 12.7511C14.2346 12.5847 14.7217 12.1149 14.8871 11.4924C15.1874 10.3641 15.1874 8.00992 15.1874 8.00992C15.1874 8.00992 15.1874 5.6558 14.8871 4.52748Z" fill="#6D747A"/>
<path d="M6.52979 10.1469V5.87207L10.2869 8.00951L6.52979 10.1469Z" fill="#EBEDF0"/>
</svg>
